<mxfile host="app.diagrams.net" modified="2023-04-28T08:00:14.262Z" agent="Mozilla/5.0 (Windows NT 10.0; Win64; x64) AppleWebKit/537.36 (KHTML, like Gecko) Chrome/112.0.0.0 Safari/537.36" etag="-f0aJn0wzKEe6oRfqpM0" version="21.2.2" type="github">
  <diagram name="Страница 1" id="8WgI_ON7PoSOGh-oNtIs">
    <mxGraphModel dx="1050" dy="549" grid="1" gridSize="10" guides="1" tooltips="1" connect="1" arrows="1" fold="1" page="1" pageScale="1" pageWidth="1169" pageHeight="827" math="0" shadow="0">
      <root>
        <mxCell id="0" />
        <mxCell id="1" parent="0" />
        <mxCell id="uQHyKSglJvGrIC3zyUuT-1" value="" style="shape=ext;double=1;rounded=1;whiteSpace=wrap;html=1;gradientColor=none;" parent="1" vertex="1">
          <mxGeometry x="40" y="325.5" width="120" height="120" as="geometry" />
        </mxCell>
        <mxCell id="uQHyKSglJvGrIC3zyUuT-2" value="МКА" style="rounded=1;whiteSpace=wrap;html=1;" parent="1" vertex="1">
          <mxGeometry x="60" y="345.5" width="80" height="30" as="geometry" />
        </mxCell>
        <mxCell id="uQHyKSglJvGrIC3zyUuT-3" value="Приборы" style="rounded=1;whiteSpace=wrap;html=1;" parent="1" vertex="1">
          <mxGeometry x="60" y="395.5" width="80" height="30" as="geometry" />
        </mxCell>
        <mxCell id="uQHyKSglJvGrIC3zyUuT-4" value="" style="shape=ext;double=1;rounded=1;whiteSpace=wrap;html=1;gradientColor=none;" parent="1" vertex="1">
          <mxGeometry x="200" y="142.5" width="150" height="210" as="geometry" />
        </mxCell>
        <mxCell id="uQHyKSglJvGrIC3zyUuT-5" value="Unit" style="rounded=1;whiteSpace=wrap;html=1;" parent="1" vertex="1">
          <mxGeometry x="220" y="165.13" width="110" height="30" as="geometry" />
        </mxCell>
        <mxCell id="uQHyKSglJvGrIC3zyUuT-7" value="&lt;font style=&quot;vertical-align: inherit;&quot;&gt;&lt;font style=&quot;vertical-align: inherit;&quot;&gt;&lt;font style=&quot;vertical-align: inherit;&quot;&gt;&lt;font style=&quot;vertical-align: inherit;&quot;&gt;Владелец&lt;/font&gt;&lt;/font&gt;&lt;/font&gt;&lt;/font&gt;" style="rounded=1;whiteSpace=wrap;html=1;" parent="1" vertex="1">
          <mxGeometry x="220" y="240.12" width="110" height="30" as="geometry" />
        </mxCell>
        <mxCell id="uQHyKSglJvGrIC3zyUuT-8" value="" style="shape=ext;double=1;rounded=1;whiteSpace=wrap;html=1;gradientColor=none;" parent="1" vertex="1">
          <mxGeometry x="195" y="412.5" width="160" height="215" as="geometry" />
        </mxCell>
        <mxCell id="uQHyKSglJvGrIC3zyUuT-15" value="" style="shape=ext;double=1;rounded=1;whiteSpace=wrap;html=1;gradientColor=none;" parent="1" vertex="1">
          <mxGeometry x="390" y="168.13" width="220" height="153.75" as="geometry" />
        </mxCell>
        <mxCell id="uQHyKSglJvGrIC3zyUuT-16" value="" style="shape=ext;double=1;rounded=1;whiteSpace=wrap;html=1;gradientColor=none;" parent="1" vertex="1">
          <mxGeometry x="390" y="435" width="220" height="170" as="geometry" />
        </mxCell>
        <mxCell id="uQHyKSglJvGrIC3zyUuT-19" value="МКА_1" style="rounded=1;whiteSpace=wrap;html=1;" parent="1" vertex="1">
          <mxGeometry x="445" y="201.88" width="110" height="30" as="geometry" />
        </mxCell>
        <mxCell id="uQHyKSglJvGrIC3zyUuT-20" value="МКА_2" style="rounded=1;whiteSpace=wrap;html=1;" parent="1" vertex="1">
          <mxGeometry x="445" y="241.88" width="110" height="30" as="geometry" />
        </mxCell>
        <mxCell id="uQHyKSglJvGrIC3zyUuT-21" value="МКА_3" style="rounded=1;whiteSpace=wrap;html=1;" parent="1" vertex="1">
          <mxGeometry x="445" y="281.88" width="110" height="30" as="geometry" />
        </mxCell>
        <mxCell id="uQHyKSglJvGrIC3zyUuT-22" value="Прибор_1" style="rounded=1;whiteSpace=wrap;html=1;" parent="1" vertex="1">
          <mxGeometry x="445" y="480" width="110" height="30" as="geometry" />
        </mxCell>
        <mxCell id="uQHyKSglJvGrIC3zyUuT-23" value="Прибор_2" style="rounded=1;whiteSpace=wrap;html=1;" parent="1" vertex="1">
          <mxGeometry x="445" y="520" width="110" height="30" as="geometry" />
        </mxCell>
        <mxCell id="uQHyKSglJvGrIC3zyUuT-24" value="Прибор_3" style="rounded=1;whiteSpace=wrap;html=1;" parent="1" vertex="1">
          <mxGeometry x="445" y="560" width="110" height="30" as="geometry" />
        </mxCell>
        <mxCell id="uQHyKSglJvGrIC3zyUuT-25" value="" style="endArrow=classic;html=1;rounded=0;exitX=1;exitY=0.5;exitDx=0;exitDy=0;" parent="1" source="uQHyKSglJvGrIC3zyUuT-2" target="uQHyKSglJvGrIC3zyUuT-4" edge="1">
          <mxGeometry width="50" height="50" relative="1" as="geometry">
            <mxPoint x="380" y="360" as="sourcePoint" />
            <mxPoint x="430" y="310" as="targetPoint" />
          </mxGeometry>
        </mxCell>
        <mxCell id="uQHyKSglJvGrIC3zyUuT-26" value="" style="endArrow=classic;html=1;rounded=0;exitX=1;exitY=0.5;exitDx=0;exitDy=0;entryX=0;entryY=0.25;entryDx=0;entryDy=0;" parent="1" source="uQHyKSglJvGrIC3zyUuT-3" target="uQHyKSglJvGrIC3zyUuT-8" edge="1">
          <mxGeometry width="50" height="50" relative="1" as="geometry">
            <mxPoint x="380" y="360" as="sourcePoint" />
            <mxPoint x="430" y="310" as="targetPoint" />
          </mxGeometry>
        </mxCell>
        <mxCell id="uQHyKSglJvGrIC3zyUuT-29" value="" style="endArrow=classic;html=1;rounded=0;exitX=1;exitY=0.5;exitDx=0;exitDy=0;" parent="1" source="uQHyKSglJvGrIC3zyUuT-4" target="uQHyKSglJvGrIC3zyUuT-15" edge="1">
          <mxGeometry width="50" height="50" relative="1" as="geometry">
            <mxPoint x="500" y="380" as="sourcePoint" />
            <mxPoint x="550" y="330" as="targetPoint" />
          </mxGeometry>
        </mxCell>
        <mxCell id="uQHyKSglJvGrIC3zyUuT-30" value="" style="endArrow=classic;html=1;rounded=0;exitX=1;exitY=0.5;exitDx=0;exitDy=0;entryX=0;entryY=0.5;entryDx=0;entryDy=0;" parent="1" source="uQHyKSglJvGrIC3zyUuT-8" target="uQHyKSglJvGrIC3zyUuT-16" edge="1">
          <mxGeometry width="50" height="50" relative="1" as="geometry">
            <mxPoint x="500" y="380" as="sourcePoint" />
            <mxPoint x="550" y="330" as="targetPoint" />
          </mxGeometry>
        </mxCell>
        <mxCell id="x3hafI14n_ICb8MnIb99-2" value="Функции" style="rounded=1;whiteSpace=wrap;html=1;" parent="1" vertex="1">
          <mxGeometry x="220" y="432.5" width="110" height="30" as="geometry" />
        </mxCell>
        <mxCell id="x3hafI14n_ICb8MnIb99-3" value="Название_прибора" style="rounded=1;whiteSpace=wrap;html=1;" parent="1" vertex="1">
          <mxGeometry x="220" y="552.5" width="110" height="30" as="geometry" />
        </mxCell>
        <mxCell id="x3hafI14n_ICb8MnIb99-5" value="Название_МКА" style="rounded=1;whiteSpace=wrap;html=1;" parent="1" vertex="1">
          <mxGeometry x="220" y="278.88" width="110" height="30" as="geometry" />
        </mxCell>
        <mxCell id="x3hafI14n_ICb8MnIb99-7" value="" style="shape=ext;double=1;rounded=1;whiteSpace=wrap;html=1;gradientColor=none;" parent="1" vertex="1">
          <mxGeometry x="670" y="435" width="240" height="170" as="geometry" />
        </mxCell>
        <mxCell id="x3hafI14n_ICb8MnIb99-8" value="Список подходящих МКА" style="text;html=1;strokeColor=none;fillColor=none;align=center;verticalAlign=middle;whiteSpace=wrap;rounded=0;" parent="1" vertex="1">
          <mxGeometry x="423.75" y="171.88" width="152.5" height="30" as="geometry" />
        </mxCell>
        <mxCell id="x3hafI14n_ICb8MnIb99-9" value="Список подходящих приборов" style="text;html=1;strokeColor=none;fillColor=none;align=center;verticalAlign=middle;whiteSpace=wrap;rounded=0;" parent="1" vertex="1">
          <mxGeometry x="411.87" y="440" width="176.25" height="30" as="geometry" />
        </mxCell>
        <mxCell id="x3hafI14n_ICb8MnIb99-41" style="edgeStyle=orthogonalEdgeStyle;rounded=0;orthogonalLoop=1;jettySize=auto;html=1;exitX=1;exitY=0.5;exitDx=0;exitDy=0;" parent="1" source="x3hafI14n_ICb8MnIb99-10" edge="1">
          <mxGeometry relative="1" as="geometry">
            <mxPoint x="730" y="330" as="targetPoint" />
            <Array as="points">
              <mxPoint x="930" y="523" />
              <mxPoint x="930" y="410" />
              <mxPoint x="730" y="410" />
            </Array>
          </mxGeometry>
        </mxCell>
        <mxCell id="x3hafI14n_ICb8MnIb99-10" value="МКА_2" style="rounded=1;whiteSpace=wrap;html=1;" parent="1" vertex="1">
          <mxGeometry x="815" y="507.5" width="70" height="30" as="geometry" />
        </mxCell>
        <mxCell id="x3hafI14n_ICb8MnIb99-42" style="edgeStyle=orthogonalEdgeStyle;rounded=0;orthogonalLoop=1;jettySize=auto;html=1;entryX=0.25;entryY=1;entryDx=0;entryDy=0;" parent="1" source="x3hafI14n_ICb8MnIb99-11" target="x3hafI14n_ICb8MnIb99-16" edge="1">
          <mxGeometry relative="1" as="geometry">
            <Array as="points">
              <mxPoint x="940" y="560" />
              <mxPoint x="940" y="410" />
              <mxPoint x="730" y="410" />
            </Array>
          </mxGeometry>
        </mxCell>
        <mxCell id="x3hafI14n_ICb8MnIb99-11" value="МКА_3" style="rounded=1;whiteSpace=wrap;html=1;" parent="1" vertex="1">
          <mxGeometry x="815" y="545" width="70" height="30" as="geometry" />
        </mxCell>
        <mxCell id="x3hafI14n_ICb8MnIb99-47" style="edgeStyle=orthogonalEdgeStyle;rounded=0;orthogonalLoop=1;jettySize=auto;html=1;entryX=0.25;entryY=1;entryDx=0;entryDy=0;" parent="1" source="x3hafI14n_ICb8MnIb99-12" target="x3hafI14n_ICb8MnIb99-16" edge="1">
          <mxGeometry relative="1" as="geometry">
            <Array as="points">
              <mxPoint x="920" y="485" />
              <mxPoint x="920" y="410" />
              <mxPoint x="730" y="410" />
            </Array>
          </mxGeometry>
        </mxCell>
        <mxCell id="x3hafI14n_ICb8MnIb99-12" value="МКА_1" style="rounded=1;whiteSpace=wrap;html=1;" parent="1" vertex="1">
          <mxGeometry x="815" y="470" width="70" height="30" as="geometry" />
        </mxCell>
        <mxCell id="x3hafI14n_ICb8MnIb99-13" value="Название_прибора" style="text;html=1;strokeColor=none;fillColor=none;align=center;verticalAlign=middle;whiteSpace=wrap;rounded=0;" parent="1" vertex="1">
          <mxGeometry x="685" y="450" width="120" height="30" as="geometry" />
        </mxCell>
        <mxCell id="x3hafI14n_ICb8MnIb99-14" value="" style="shape=image;verticalLabelPosition=bottom;labelBackgroundColor=default;verticalAlign=top;aspect=fixed;imageAspect=0;image=https://cranemotor.ru/image/cache/catalog/FOTOS/spare_parts_swf-980x980.jpg;" parent="1" vertex="1">
          <mxGeometry x="720" y="487.5" width="50" height="50" as="geometry" />
        </mxCell>
        <mxCell id="x3hafI14n_ICb8MnIb99-15" value="Функция_прибора&lt;br&gt;Организация" style="text;html=1;strokeColor=none;fillColor=none;align=center;verticalAlign=middle;whiteSpace=wrap;rounded=0;" parent="1" vertex="1">
          <mxGeometry x="680" y="530" width="130" height="65" as="geometry" />
        </mxCell>
        <mxCell id="x3hafI14n_ICb8MnIb99-16" value="" style="shape=ext;double=1;rounded=1;whiteSpace=wrap;html=1;gradientColor=none;" parent="1" vertex="1">
          <mxGeometry x="670" y="160" width="240" height="170" as="geometry" />
        </mxCell>
        <mxCell id="x3hafI14n_ICb8MnIb99-45" style="edgeStyle=orthogonalEdgeStyle;rounded=0;orthogonalLoop=1;jettySize=auto;html=1;exitX=1;exitY=0.5;exitDx=0;exitDy=0;entryX=0.5;entryY=0;entryDx=0;entryDy=0;" parent="1" source="x3hafI14n_ICb8MnIb99-17" target="x3hafI14n_ICb8MnIb99-7" edge="1">
          <mxGeometry relative="1" as="geometry">
            <mxPoint x="860" y="420" as="targetPoint" />
            <Array as="points">
              <mxPoint x="930" y="248" />
              <mxPoint x="930" y="390" />
              <mxPoint x="790" y="390" />
            </Array>
          </mxGeometry>
        </mxCell>
        <mxCell id="x3hafI14n_ICb8MnIb99-17" value="Прибор_2" style="rounded=1;whiteSpace=wrap;html=1;" parent="1" vertex="1">
          <mxGeometry x="815" y="232.5" width="70" height="30" as="geometry" />
        </mxCell>
        <mxCell id="x3hafI14n_ICb8MnIb99-44" style="edgeStyle=orthogonalEdgeStyle;rounded=0;orthogonalLoop=1;jettySize=auto;html=1;entryX=0.5;entryY=0;entryDx=0;entryDy=0;" parent="1" source="x3hafI14n_ICb8MnIb99-18" target="x3hafI14n_ICb8MnIb99-7" edge="1">
          <mxGeometry relative="1" as="geometry">
            <Array as="points">
              <mxPoint x="920" y="285" />
              <mxPoint x="920" y="390" />
              <mxPoint x="790" y="390" />
            </Array>
          </mxGeometry>
        </mxCell>
        <mxCell id="x3hafI14n_ICb8MnIb99-18" value="Прибор_3" style="rounded=1;whiteSpace=wrap;html=1;" parent="1" vertex="1">
          <mxGeometry x="815" y="270" width="70" height="30" as="geometry" />
        </mxCell>
        <mxCell id="x3hafI14n_ICb8MnIb99-46" style="edgeStyle=orthogonalEdgeStyle;rounded=0;orthogonalLoop=1;jettySize=auto;html=1;exitX=1;exitY=0.5;exitDx=0;exitDy=0;entryX=0.5;entryY=0;entryDx=0;entryDy=0;" parent="1" source="x3hafI14n_ICb8MnIb99-19" target="x3hafI14n_ICb8MnIb99-7" edge="1">
          <mxGeometry relative="1" as="geometry">
            <mxPoint x="1000" y="380" as="targetPoint" />
            <Array as="points">
              <mxPoint x="940" y="210" />
              <mxPoint x="940" y="390" />
              <mxPoint x="790" y="390" />
            </Array>
          </mxGeometry>
        </mxCell>
        <mxCell id="x3hafI14n_ICb8MnIb99-19" value="Прибор_1" style="rounded=1;whiteSpace=wrap;html=1;" parent="1" vertex="1">
          <mxGeometry x="815" y="195" width="70" height="30" as="geometry" />
        </mxCell>
        <mxCell id="x3hafI14n_ICb8MnIb99-20" value="Название_МКА" style="text;html=1;strokeColor=none;fillColor=none;align=center;verticalAlign=middle;whiteSpace=wrap;rounded=0;" parent="1" vertex="1">
          <mxGeometry x="685" y="176.25" width="120" height="30" as="geometry" />
        </mxCell>
        <mxCell id="x3hafI14n_ICb8MnIb99-22" value="Организация" style="text;html=1;strokeColor=none;fillColor=none;align=center;verticalAlign=middle;whiteSpace=wrap;rounded=0;" parent="1" vertex="1">
          <mxGeometry x="685" y="278.12" width="120" height="41.88" as="geometry" />
        </mxCell>
        <mxCell id="x3hafI14n_ICb8MnIb99-24" value="" style="shape=image;verticalLabelPosition=bottom;labelBackgroundColor=default;verticalAlign=top;aspect=fixed;imageAspect=0;image=data:image/png,iVBORw0KGgoAAAANSUhEUgAAAlkAAAG5CAYAAAC9VCFYAAAgAElEQVR4nOydeXhU9b3/3+ecOefMRKhaRVEQa0uLLCHMJJAQXHtte9uiVhCCkBASoNXae5+f1w0VBJUlgEu1z61WLC6AEEIwoFfb+rSPC0tCErIQgqgo+6rFBTIzZ+ac7++P8PnyPTOTQJAsJN/X88wDmeXs5/t9n8+qhEIhZpomGGNQFAUtxbZt/rsz+X1LONXyGWPNfu44DqLRKGh/z2T9kUgEqqqe1vYk+v3Z/H5L9/dcP7+nwrbtVj2/Z3v/W2N/E53n5tbTkc6vvH/ddLX7FwAikQh0XUckEoHH42nx+m3bhqqqLb4PzgTHccAYg6ZpcBynxctPdD3L+7f59Z+L96/iOA7/ZmufpPbmTE5sc3T04xW7vx19e9ubc/14nevbfyrk/duxt7etCYfD8Hg80DTN9Z5pmgAAy7JgGAYAt3ghIZfoN23Jqa7nzna+u+r9q7bzdkgkEolE0mIYY9yq4TgOAPC/AcAwDOzatQvz589HamoqAoEAsrKyXN9xHAcejwfhcLhtN17SZZCWrO9ARz9e8km4ZZzrx+tc3/5TIe/fjr297YXjOFw4McZQWFiIt99+G6+//rpLUEUiEX4MJ0yYgCVLliASiUDTNNf32gppyfpudPTjQ/vbMqe3RCKRSCQdgEgkgqNHj+KDDz7Au+++i7KyMtTX10PXdUSjUei6Dsuy4DgOdw8yxuD1evH666+DMYalS5e2815IOjsKO9vyUiKRSCSSU9DQ0ICkpCRuibJtG5qmgTEGy7Li4qQcx4FlWaivr8cf//hHfPrpp9i4cSO8Xi8sy+LfETFNE+FwmC/XcRxomgZN02BZFoqLi3Hbbbd1eKuI5NxFiiyJRCKRtBsUlE6B6rEZdowxrFq1CgsWLEBlZSV/n7IIPR4PF1mEoih8GZSlaNs2F2EejweRSATDhg3Dhg0bXMHzEsnZRIosiUQikbQ5VPZAURSXsGKM4cCBAygsLMT9998P27Z5WQciKSkJDQ0N8Pl8CIVCPP5FFFeKokBVVR6LRaIs1poVjUalyJK0GlJkSSQSiaTdcBwHW7duxTvvvIPt27fj5Zdf5qLJ6/UiFApBVVVuhRJFGWOMC7DY4HXGGBhjmDBhAg+Ip/XR56qqNtYyku5CSSshA98lEolEclYIhUIwDMNVEJQxhkgkAsMweI2q3bt3o6ioCK+++iqi0Sh27NgBRVFcRT11XUcoFIJpmtzaRMVGDcNAMBjkBSqBk1mGw4YNwy9/+UvcdNNNyMzMBACkp6cDQEJxZlkWdF1vlwxDSedHiiyJRCKRfGcYYzBNkwsqcssBjTWrNm7ciBdeeAFLly7lYkqMq4pGoy5rFcVZRaNR2LbN31dVFcFgED6fjwutvLw8/O53v8OwYcO46KKMQhJtokuQqsPn5ubCNE2+PInkbCNFlkQikUi+MyRmSGBZloW1a9di4cKFqKys5NXXCcYYF08kqFRV5cshC5bYOobWo2kaZs6ciQceeMAVywWcFFeO4+DOO+/kQi4WwzAwd+5cAIDP55N1ySStghRZEolEIvnO7N27F+vWrcPnn3+O1atXo6KiAkCj6CHLlKZp8Hg8sG0btm3DMAz+fiyiwEpJScGAAQNwxx134Oc//zn/PtXDAsAtZ+RSXLBgARYtWtTk9k6fPh2XXXZZKxwJieQkMvBdIpFIJABO9vuLrV1FYoemCxI5q1evxooVK7Bnzx6Ulpa6lhVbhoEga5WqqjBNE8ePH8d5552HY8eOcRegYRgYO3YsRo8ejd69e2PgwIHweDxQVbXJBsEU6B6NRrF27VpkZWXFbQ/FZE2aNKlZAZZo+RLJmSBFlkQikUgAwBWbFA6HYRgGFxtUZ+rJJ59ESUkJysvLuXiikgoiTYksEljkKiSxNXjwYNx+++2YOHEievTowQPhY919TYkfsbip2ABa/B2JRVp3c0iRJTkbSJElkUgkEt7Hj+pSOY7Da1Y98sgjWLZsGbckxVZRT0SiOCqg0cXHGIOmaUhOTsYLL7zAs/8SQRaqU2X/ie5IAHHfJzelZVkJlyVjsiStgYzJkkgkEgm3/tTX12Pnzp1YvXo1b7IcDofhOA4XVNRUmbIET/WsTmUc0tPTMWrUKIwYMQLDhw/nYicSicBxHHg8Hi7GyKomFhiNXab4vmEYSE1NhWmacBwnzlqlqirWr1/vcoNKJK2N53TMsBKJRCI5NyAXm1hRnYp1isKCxv6ysjK8/fbb2L59Oz7++GPU19fzbD9y7dHcQALFtm3emgYArzmlKAovIMoYQ2ZmJm6++WYkJyejf//++P73v48LLrggbpsTufdaWlJh3Lhx+PTTT2FZlit2zHEcmKaJJUuWYNCgQfz9WOT8J2kNpCVLIpFIOgGxbjWxZQ2JGLL+lJWV4fnnn8fy5ct5KQUSJIC7lAL9LtaVSMVFY2OncnNz8fvf/x69e/dGt27dEgqos4G4fatWrcI777yDb7/91tVih/bnoYcewsiRI+H1eltlWySSplAcx+GmLKnkJRKJ5NxEdN1FIhGYpun6rKSkBAsWLEBZWRl/n1xrALhVShRYoqeDAsrFHoKGYUDTNMyYMQP/8z//A1VV+Xds2+aihiq9twZff/01Lrjggji3JWUqpqWlYcOGDa22fomkOaTIkkgkkk5EKBTCV199hR07duBf//oXHn30UZerkALcqUEyFQklF6Nt2wljrMQ6VFReYezYsXHV0klQicKqtWKgxKrysZimib59+/JCqHJ+k7QH0l0okUgkHRBRmFAQdyJBQVmAJSUl+Oijj7B69WpUVVW56kLRMuhvElMUryW2xGGM8bgqTdOQkpKCtLQ0XH311bj22muRlpbGl+c4TpwLjoSVaDk6mwJLPC6pqamuddi2DdM0EQ6HoSgK/v73v/P9kpYsSXsgRZZEIpF0QERhQlYnMRvv6NGjeP7551FSUoK6urq4bDoSVPSbWOuUpmnQdR2MMYTDYYTDYQCNHo2BAwfi9ttvR05ODnr16uUSNo7jIBwOw+v1tql1iIQSbUd2djZqa2v5vhiGAcYYb1K9fv169OrVCwB4LJlE0tZIkSWRSCQdkFgXm6IoKC8vx6JFi/Daa6/xQHNRHJHoEWtXxWaQ098kSIDG2Ko77rgDd911F9LT0xEKhbg4E5dFAe7t0UxZFElz587F8uXLoes6F59UKd7n82HGjBnw+/0AwC1zEkl7IGOyJBKJpAOzatUqzJ07F/X19dydR+UTRJegKKa8Xi8XX02RkpKCrKwsZGVl4aqrrnLFZ8VCnzU0NEBRlDYRWbF1sOi96upqBAIBl1uQsioZYxg/fjxeeuklfgzE2lsSSVsjK75LJBJJK0JioaGhgbvomqpeXlVVhe3bt+Nvf/sbampq8NlnnyEYDPI6V+IyRREili0Qh3TKHoxEIkhOTsawYcMwcuRIpKWlcVfa6dLWD+FkNRP//vLLL9GzZ084joPu3bvj22+/5dmQtm0jLS0NZWVlp6wOL5G0FVJkSSQSSSvRlDVGURRYlgVd11FcXIxVq1Zh+/bt+OijjxAOh11CiepXxS5HFFiiS4/6CJqmiXHjxuE3v/kNhg8fjksvvTTh9p0ubS2yxN6GiqIgFAqhW7durs/E7Ro0aBCqqqqa7F0okbQHMiZLIpFIWgHRjReJRGAYBndfPfvss7j33nt5LSdVVXnPPa/Xi2AwCOBkJXXqEyhCWYWKovDvJScnY8KECbjvvvsAuIPnEwm1jgzFmIVCIfh8PmRmZsaJK3IT2raNF1980VVQVSLpCEiRJZFIJK0ACRrKBHzwwQfx6quvwuv1IhKJwOfzIRqN8vpU1OCYArmplx+5ChNlDwLA2LFj8cADDyAQCDRbqiDW9XYuCC7GGHw+HyZPnoyqqioeh0XHB2i0ahUXFyMjI4P/JpEFUSJpD6S7UCKRSM4iYlZgaWkp/vznP2PJkiX8c3Hyj21wTFl9pmlya5YYc6SqKvLy8tC/f39kZmbC7/dzIdJSzhUh8uabb+KWW25J6HbVNA1PPPEEHnroobjPzoV9k3R+pMiSSCSSVqCiogLXXHMNj72izEDAXW6BILcfFQGluk/9+/dHVlYWMjIy0LdvX/Ts2bPLZMtVVVUhIyMDlmUlFE35+flYtGhRs5XfJZL2RIosiUQiOQvE1rUi95zP50MoFIpz0cWKBk3TEI1GwRjDmDFjcN9998Hv97vcf1RKITbzrjPy5Zdf4tJLL4Wmaa5+iYTf70dlZWU7bJlEcvp07rtUIpFI2ghRYM2fP59XU49Go9A07ZTuq9mzZ/PYrJUrV/KWMZZlAWgUcVTHSozP6qzPyRdffDFs20Y0Gk147N5++21+bCSSjoq0ZEm6NLGxG7F/i9aJ2D5wFKAs9kZrrqCjpGvw5ZdfolevXnHWF13X4TgOotEoMjIy0L9/f9xyyy0YOXJkk66u5obnzhZzRL0UVVVFTk4Oli9fHvc50ChmN23ahAEDBshK7pIOj8wulHRZRJcL/Z8CjB3HwebNm7F3715Eo1G88847PI2+T58+GDRoEK666ioEAgEAgMfjgeM4UmB1YSgL8N5770U0Go37PBwOY9WqVbjqqqswZMgQV0/BUCgkBQMaXawFBQV4/fXXmxSRq1ev5vedRNLRkZYsiUSgrKwM//3f/41NmzZx6wI9QVPwMnAycNlxHGRnZ+Puu++G3++XLTy6OJWVlbjmmmtcvf+IKVOm4C9/+QsXY1TTibIGE103XcmSBTQKqNGjRwNAwuMxe/ZsTJs2ra03SyI5Y6TIknRpyII1ceJELFmyxFX80bbtOGFFt4umabxWj+jmKC8vh9/vl27DLojjOEhKSuI9A2NF1ueff44+ffogGAzC6/W6rqemBFNXEln79u1D7969ASQWWJmZmfjggw/aerMkku+EDHyXdBlIEDmOA8dxcPDgQTz55JPweDy8jhEJKrJekdWBms/S5GjbNmzb5hWn6b3hw4dj0qRJ2Ldvn2sZibKjJOc+YgB6Tk6O6zOPx8PdyAsWLMAVV1zBa1qRQEpUykGEPk/06kzs2bMHV155JTRNc1mQKSYyJSVFCizJOYm0ZEm6JPPnz8e0adO4RSqRCKK6RQB4nZ7m6hwBJy1jjuOguLgYo0aNAoBmK3FLzn127dqFfv368Ww3smLRtbVjxw5cddVVADqfBepMoYceXdfh9/uxZcsW1+dU0sLj8eD999/nFd0lknMJacmSdBls28Zbb70Fj8fDBRa1LUk08THGuLWK/jZNs8lJkhrTMsag6zomTJiANWvWgDHG+9JJOiePP/64y01IAiISiaCwsBA//OEP23kLOx704DFlyhRs3bo17nPLsuDxePDhhx9i6NCh7bCFEsl3R1qyJF2GQCCA6upqbqGi+kUkpppqLBsIBLhFSlVVFBUVob6+Ps765TgOb/iblJSEhoYGeL1evPfee0hPT2/1/ZO0PbZto7KyEtdddx3C4TAPZheHVWoQTUJbWrJOUlhYiAkTJrhiHwlN0zB9+nRMnz5dHjPJOYsUWZJOB9Wzon8PHTqEX/ziF3HuCPpc13VuhQCAtLQ03HbbbXjwwQe5CKMikWKPuD179uCVV17B008/ja+//hoej4cvi+K4aLnr169HZmZm2xwASZtAFdwDgQDq6+u5q/CCCy5AMBiEqqo4duwYVFWViRBAXJX6+vp6DBw40CWwKOEEAPLy8rB48WLZh1ByTiNFlqRTIQ7IlmVh27ZtGDJkCID4bC8KWtc0DZZlIT8/H3fddRdSU1NdIk0kUXFSaoPyxhtvAECTFrEDBw6gR48eABJnT0nOPRYsWIAHH3yQXwemacKyLDDG8Nxzz+Huu+/mYts0zfbe3HaFLHqapqGyshLp6elQFMVl4aPYx0GDBqG2tpYXb+3qAlVy7iJFlqTTIIqeSCSC6upqDB8+nDePjb3USQyNGzcOTz31FC6//HJeswg4OegbhoGDBw+iZ8+ecesk15CmaSguLkZ2djZv8OvxeFwWstTUVKxfvx6macb1uZOce+zfvx9XXHGFS1RTpqmmadi3bx8uuugiLuYljezevRu33norj8Oi2CxKEnAcB3v27OFV88PhMLp3797OWy2RnBnyzpd0GsjqFIlEcPToUaSnp0PTtGYraR85cgTLly/H5ZdfDuCkC4hKMng8HkydOhWXX345FEWBYRhQVRXZ2dnYv38/F26hUAijR4/Gq6++CgC85xpNrqZpoqqqCs8//3yn7TXX1Rg7diwUReHXl67r3N1VWFiI73//+/y7YgJFVyYcDmP69Omorq7mLkJd12HbNsLhMBzHwcaNG9G7d29+v0mBJTmnYRJJJyEajTLGGHMch02YMIGpqhr3AsAMw2C5ubnMcRzX61SkpaUxXdeZpmkMAFNVlU2ePJkxxpht2/x7xcXFzOv1MgBMURQGwPXau3cvsyzrtNYp6VjQeV6zZk3cedV1namqygYNGtTOW9mxsCyLMdZ47B599FEGgPl8Pub1epmqqq575M0332znrZVIzi7SkiXpNKiqilAohMLCQqxatSrucwq8nTlzJl555ZUWL3/Dhg3Izs52uYeWLl0KRVFQUlLCLRWjRo3CrbfeyreJoJpc06ZNkzWzzlHIIvX444/HfUZFbl966SVXkdKuCt0PjuMgEomgpKQEc+bM4Z+Fw2GeLAIA8+bNw8iRI3miiUTSKWhXiSeRnEXIMqQoCjNNM6EVq6ioyPX9lliyiDlz5jBd15lhGNxiBYA9/vjjjLGT1o5AIMAAMNM0WVJSEn+CB9DidUo6DrNnz2bdunVLaMnKy8tr783rkFRUVDBN01z3i6Io/O/Jkyczy7JYQ0ODtPJKOhUy8F3SabBtG3/84x9x//33wzAMnqlEzJw5E9OnT+fFImMzB0+VJk5B8JFIBJMmTUJxcTHC4TAMw+AWjuLiYtx6662wLAu7du3C4MGDEY1GXU2mNU1DTk4O/vKXv8jU9HMISlZo7pyxEzXXotFol88mJPbs2YMf//jHriQQsXuC3+/HBx98gKSkJG75lR0SJJ0FKbIknQqaAKkoJFV0T0tLQ3l5+XdePt0uiqIgPT0d5eXlrqbRJLZokpg0aRKWLl2a0H3EGOMZkbKOUseFxBVjDJMmTcJrr70GVVVhGAZ3ewFASUkJbr75ZplJeAI6boFAALW1tQnvAVVVceDAAZx//vlSlEo6JXI0kHQaVq5cyUUWxXRQy5wZM2aclXVQ5iFjDGvXrnVljNEk4vf7+VP4XXfd1eSyVq1axbdXCqyOC5Xa2LRpE1577TX+XigUQjgcRlJSElJTU10CS8YUNR6DsWPHora21tVWSlEUmKYJVVWxevVqXHLJJfL6l3RapMiSdBqoTyBVWwcaSyd4PB7ccsstZ3VdiqLg4osvRlFREQzD4D0NNU1DdXU1CgsLEQwGkZ6e3mTfwjVr1sjJuAMTa3m58cYbubVFDNhuaGjACy+84HJ1dfXA90gkgmeffRZFRUUA3BZgsv4tW7aM35fSbS7prEiRJek0fPrppwDA6+vQwD5z5kxXPMjZQtM0jBw5ErfddhsikQhfp6qqmDhxIm/B8+ijjwIAF3/0ev31112xKZKOhVgsdv78+QgGgzwGj1zRQGP7l7S0NAAnLVhdPZ7o73//Ox5++GEAjWKVWlKxE83T582bh9GjRyMajbbzlkokrYuMyZKc04gBsrEWI8dxYJomNm7ciMGDB3NX39mE4qrOO+883gKE1lFYWIhRo0bxFiKxUDsfGY/VcWGM4dChQ7jsssvirh12otI/NYaWNN6PW7ZswYgRI+IebCg+ctiwYSgrK4t7uJDWLElnRFqyJOc0JLC+/vpr/h4N3pRhmJyczJv3nk0oe5ExhoEDB8K2bddE8fHHH0NRFKSlpXErl/hSFAUHDx6UAquDQuf3wQcfTPi5YRh49NFHpctX4MCBA5g4cSJCoVDcZ+RC/cc//tHl3amSroMUWZJzHsYYjh07xv9PRCIRmKYJTdNaRciQiNM0DX379o37fMeOHXybqIWISDQaxaFDhwDEx/9I2h/DMHDo0CEsW7YsoaUqEAjg0UcfhcfjkUILjdfwr3/9a9TX1ye0SjmOgwMHDqBbt27SaiXpMkiRJTlnIWGSyI1D/waDwVbdBqqbVVhYyCdaWj/VBmoq7spxHITDYUQiEZn23wFhjOGWW25xNQ0XWbFiBSKRiGwAfYLc3Fxs376dx13FUl5ejp49e0LTtIQPHRJJZ0SODJJzFtG60KtXr7hyCiS+Pv/881YJLncch8flkJCiQqe2beP666/n2WiJLB2apsHj8TSZfShpe8Q4orlz52LTpk28gTGJB6/Xi0mTJuHKK6+Erutd2irDGINlWXjiiSfw+uuv85hEEp/0mjt3Lk8OAMCzccWXRNIZkSJL0mmgQZwxBp/PB4/Hw/sKtkZgsqqqUBQFeXl5/D1xssjIyAAAHDlyJOGTvW3b8Pv9coLpQIiCd/r06QAaz5PjOPB6vTxRQexd2JXPn6IoeOONN3hPwkRMmTIF06ZNa8Otkkg6DlJkSToN5JoDwAPdGWNYsmRJqwS+RyIR7NmzB0VFRdxSRi7MO++8E0CjBWvx4sVNukfoqb8rT9QdBcdxeMbnxIkToes6t0x6vV4ezD19+nT06tWrnbe2Y7B//36MHz8+4fVtGAZSUlKwaNGidtgyiaRjIEs4SDoNK1aswPjx410xMuSmO3z4MC6++GIAZ8/y4DgOcnJy8Prrr7ve1zQNx48fB2MMXq8Xfr8fW7dujasJlJKSgk2bNvGWLbIMQPsTiURQV1eH1NRUKIrCBRZjDI7jwHEcKYpPYNs2brzxRnz44Yc8NlFE13Xs2bMHl1xySTttoUTS/khLlqTTMGbMGOi6DtM0+YRIPPPMMwDAq02fybNFbObi6tWr8cYbb7jEUVJSErKzs2GaJrxeL/bs2YPq6mooigJd18EY49XCb7vtNu5GJKElviRty7Fjx6DrOiZPnsxFlaqqCIfDCIfDsG0blZWVXVZgxV6T6enpWL9+PXRdd1mOPR4PfD4fQqEQevToIa9nSZdGiixJp8FxHFiWxcWVYRhcAL377rtwHIeLnTOZKMXffPnllxg7diyCwSCfQHRdR0NDA1555RX+PYpFobpYQKMFIBKJ8PpLqqryEhSS9iMpKQlr1qxBdXU1ALiaQANAdnY2UlJSumy5BnJtW5aFefPmoaqqKu4+oiSBFStWtNNWSiQdCymyJJ0GXddRXl7O3RZi6n1FRQXefPNNRKPR75xuH4lE0Lt3b1c2YVJSEqLRKGbPng0ACAaDqKmp4a5E27Z5ZXDHcZCSkuIKhu/Wrdt32ibJd0dVVWRlZYExxsVVKBSC1+uFaZp49dVXXXF/XRFN07BmzRrMmDEDmqZBVVXuBmeMwbZtPPHEE/j5z3/ezlsqkXQMpMiSdBoYY0hOTkZqaiqAkxYjTdOgaRpuu+227xT3RIHPqqpi8ODBAMCtYtFoFIMHD+aWK8Mw8Oyzz+LCCy/ksT2qqsK2bRiGgRdeeEG2Felg5OfnIxwOw+v1QlVVV701yiak0gNdlfLyctxxxx0AGh82qFQDWYgHDx6Mhx9+mJcukUi6OjLwXdLpKC0txfXXXw+gsao6WZxs20ZKSgqqqqr4e2Lvw9OBYnUURUH37t251Yz+PXDgAC688EKYponKykqkpaW5MtMUReGWNNEC0JUn7vaCLJ2RSATbtm1DIBCI+47jOPD7/di8eXM7bGH7Ytu266GkoaEB5513XlxxXbLOnn/++fjiiy/4b+RDhEQiLVmSTgQN6kOHDoXf748LJlcUBTU1NcjKyuJCpyUCC2icKKj46OjRo+MC7B944AGYpgnbthEIBDB16lTX78SsR4pbkZNP+6BpGqLRKKLRKPLz8xN+rmkaHnnkkS4Zh0XlLKgsybXXXssL6JJ72+fz8fuOBJZlWTLQXSI5gRRZkk4DiRVN03D33XfzoHSKmzIMA4qioLi4mAscqvDd0jYfiqLgySefdDWjVlUVK1aswKFDh/hkM2nSJIRCIS7mqBo8Ywx33HEH9u3bd7Z2X9JCqGzGu+++i5qamrjPHcdBamoqRo8e3WXb5lDPzylTpqCuro5bchsaGgA0xh46joMlS5bwa142PJdITqLNmjVrVntvhERyNolEIhg4cCB2796N+vp63mKHxA1jDMXFxQCA//iP/+BWppbi8/mgKArWrVvnqp30j3/8AxMnToTP50OvXr3w2WefcRdlLN988w1+/etfd9lJvD2JRCLweDwYPHhwQkuVoijYvXs3t3Z1tfZH5BYvKCjAs88+C4/Hg0gkAsMwuKtbURTMnj0bd999N/9btByLSIutpCsiY7IknYZEMSCpqak8noYG+djvOY6DaDTqsja1RPSIIo0xBtM0MX36dDz88MM85ktVVT5JAY3WNtu2oes69u3bhx49epzZTktaBAkrEgNz587FjBkzXBZP+uxPf/oT/vCHP4AxllBkdXbRwBjDG2+8gbFjx7p6cnq9Xm4BnjhxIl5++eUmm7R39mMkkZwKKbIknYZEl7KiKPD5fIhEItyileh7s2fPxrRp0+A4DnRdRygUgqZp0HUdkUgEqqryXoXi+hRFwb59+9C7d28e1E5Ci1wq4XAYW7du5VXExfX7fD6MGjUKS5cubYUjIhEhwWtZFo+PU1UVuq7D4/FwixUJ4lAo5EqM6AqB3FSyAmhsTUVZgiSygJMPCKqqIhgMSvegRNIM0kch6fRs2LCBB+8C7tgt4vHHH4fH48E111yDefPmYfXq1aivr0dZWRlqamqgKEqTT+s9evTA1KlTeZ0gRVEQDocxZcoUAI1p/ykpKUhLS+PCzDRNGIaBYDCIZcuWoaKiorUPQ5fH4/HwmCFVVZGZmcnPaygU4u5k27axfv16MMa4yHrehIQAACAASURBVO4Kz6JkpSJuuOEGLrLIwkf/BxpFmK7rCAaDbb+xEsk5grRkSToNTVkaHMdBUVERxo0bx98nsSP2OaS4LUpJp9gTyhSsrKx0rYteJNZofYqicNfgli1bMGjQINi2jZqaGmRmZiIcDrssZDRpyVux9SHL1MqVK5GTkxPXONwwDNx2221YvHgxTNPkGarhcDiu9lNns2SRW1TXdQQCAdTX1/O6YVSChKxY69atw/Dhw2FZFn9okEgk8UhLlqTTQFaJWKsTVfI+cuQIkpOTuagiUePxeLhgIncftRChJ/iqqiqsXbuWt+0RBRH9ljIWqbVIUlIScnNzuRBLTk7GI488wtcpij0ACcsISM4eoutv/PjxcQILaLTO/Nd//ReSkpJc4tnr9TZ5fXUWKBYxPz8fVVVV/CGArMCqqsI0TaxcuRJDhw51WWTlA4JEkhgpsiRdhosvvhi1tbWYOHEigJPp6afbwHbWrFn8SR5wFxYFgKysLPj9fl5lPhwOY/PmzSgsLATQKKzy8/O5xSw2kHrp0qWorKw84wbWkuYhgTVx4kSX+1j8PC8vDyNGjOiydbGKiopc8YF0rVJyR1ZWFkaPHi3jsCSS00SKLEmXgjGGxYsXo6ysDIMHD+YVv0+HTz/9FAsWLODZgol4/vnnAYBbwUzTRHZ2No9b+f73v4/Zs2dzK4HoYrRtGy+99NJZ2EtJIhhjqKmpwZIlSxJ+HolEsHjxYoRCoS5ZUqOyshL5+fmufRfd2cOGDcPixYu75LGRSM4UGZMl6VLE1u8pKirC1q1bUVJSgi1btiT8PqGqKjRNQygUissSdBwHkUgEXq8X48aNw8qVK/kE5fF4MH78eCxatIhbUwYPHozt27eDMcZFnqIoMAwDK1aswG9+85uE29EZ3VRtyeTJk7Fs2TJegkCE4owikUiXjDHSNA1erzcuE5cxhpSUFGzatIlnYeq63iWyLSWS74oUWRLJCcrKyvCPf/wD+/fvR0VFBaqqqngVawqGN00TV199Naqqqly/pUlJURQEg0FcdNFF8Pl8+Oqrr+DxeODxeLBp0yYMGjQIALB//3706dOHl4sATloNMjMzsX79+jbf/86IWIG8tLQUw4cPd5XaoASH22+/Pa6MRlcRDcFgEN27d49zoYr7n8i9GktXOV4SSUuQIksiEaC0dABISUnB1q1b4+JzFEVBaWkphg0bFvd7iscqLS3FiBEjYJomt5oMGTIEGzdu5GnyU6dOxUsvvcRrNlGxR13XsWDBAvy///f/YNs2r90laTkUzE1JDWJMnWEY/Hxv374dP/jBD1y/7QqiwbZtZGRkNFtCZMuWLejfv/8p3YRd4XhJJC1FOtclkhOI/Q0VRcGiRYsAgGeWEbquIzMzE0DjJPXtt98CAK+rpKoqMjIykJaWxq1ghmGguroaL7zwAl/XokWL+KQv1mJSVRUPPvggwuGwq6m0pOWQeJ00aRKPeyOo2OasWbNw2WWXteNWth/PPvssKisrEwokVVVRUFCAQYMGnVHbKYlEIkWWRMIRJ5pwOIz09HTk5ua6sv2obpJt2ygoKIBlWejevbur7hbQOEGVlJTA4/HAcRxeLuC+++7D4cOHuXAqKCiAaZr8b1VVEQ6HYVkWMjMzuUiTnBmO46C+vh6rVq1yidVu3boBAAYMGIDJkyd3yWy5lStX4qGHHmqyzlV2djbuu+8+bmGVSDobbeHIkyJLIjmBKLJo0lm8eLHrcxJYqqrioYce4pXCqWEuwRjD5Zdfjscff9yVRaiqKh5++GH+vfvuuw8pKSn8N2Idpi1btmD16tWttr9dAbLGNDQ0uAbUhoYGGIaBhx9+GN/73ve6jLWQxFIoFEJWVhav+ybGBSYlJcHv9+OVV17h125XOT6SrkWiB4jmhBclKS1btgz5+fncy6FpGoYPH441a9YAgKsGn4zJkkiaIRwO46mnnsKMGTPiPnMcBzk5OXjttdcQDAZdLUmAk6LNMAxEIhHeR7GhoQGHDx9Gjx49EAqFUFNTgxtvvJFPdARjDKmpqXjvvfe45UVy+oTDYbz55psYP348IpEIL5opluwIhUI83i3WZdbZYowovk/TtITWURJS1DC9pcKqsx0vSeclNjPctm1uzaY4TbEDyKpVq1BSUoLly5fz65ziZ8XscMYYhgwZgoqKipPFjKXIkkiahgKnU1NTUV1d7fqMnvAPHz6M7t27x01KVC1+9erVfKLXdZ3f1NReR1EUpKWlYfPmza7f0/KeeOIJPPTQQ627o52UIUOG4OOPP0YwGOSDo2ma3HqjKApvDRNbHLYzigbLsnDttdeivLw8YQkGj8eDHTt24IorrmixK6UzHi9J5yW2LA6N9UBjJvKf/vQnrFixAqZpwrZtl3WKHlRo7KDlURb60KFDUVZWBkC6CyWSZqGbjoLggZM3k6ZpiEQiuPHGG12/IXGlqipUVcVtt92GlJQU3qqHgtnnz5/Pb9BE2V1UFX7WrFmtuIedl4KCAtTV1fFCsJRhGA6HMWfOHH7sdV2PE1idkUgkgjvvvLPJTELDMLB69WpcccUVbbxlEknbQwWjq6ur8fTTTyMnJwdpaWlQVRXXXXcdVq1aBQBxNfXIYhWNRl3jPABuEdu0aRPWrFnTKMyYRCI5LfLy8hgApigKM02TGYbBVFVlmqaxJ598kn8vGo0m/D193zRNBoB5vV52+PBhxhhjx48fZ2+99RYDwAAwwzD4/03TZDfffHOzy5acxHEctnfvXqaqquulKArTdZ2lpaW19ya2CXSt2LbNGGOssLCQX1OqqjIATNM0fq09/fTTjLHG40f/tuQlkbQVjuOwaDTKotEov74TfceyLP53MBhklmWxzZs3syeffJL5/X4+ltN9QeO7oiisW7du/B4R7xtN05iu6wwAS0pKcv1WfI0bN44xxph0F0okp8mOHTvQt29flxVLvH1OdSstW7YMEydOdPWDmzp1Kp5//nn+VDR06FDU1NTE/dY0TXz22We4/PLLz/p+dRYikQg8Hg/PzIx17+q6jnA4jNdeew3Z2dmd3r3FhIzXL774Apdccgn/jGqHeTweRCIRBAIBVFZW8mrvXq9Xugsl5wTsRFcCShgSY6oA4MMPP8SGDRt4yAXVy6Pxm8r2kDuQxWSKU5kdirESA+Up9CBRaza/34/S0lLpLpRITpc+ffpg5syZ3D9PgZJJSUnQdR1TpkzhN1yiBsOjRo1C//79+c3LGMOLL76IiooKGIYBx3Ewa9YsKIrC623RQBEOh3HVVVfxgaArNjA+FSRc33nnnTiBBTQew4EDByInJ6cdtq79UBQFffr04X8nJSXx+KtIJILU1FRs3LiRZ87GJnBIJB0NdqJbgxiaQUKnoaEBTz31FDIyMqBpGq677jo8/PDD/HtUUoedCPuwLMtVpofGXXqYJoFFYy69n5GRgSVLlmDZsmUJHzB43UVpyZJIWkbsDaXrOs/cKi0txdChQ5vMzFq9ejVGjx4Nr9fLb95+/fpxURCJRHDXXXfhr3/9K89KBE7GgS1YsAB33313l+ytd7qkp6dj06ZNCRMRNmzYgIyMjC5ldUlLS0NtbS1/AheLsiqKgv3796Nnz56u34idD06XrnRMJR2DXbt2YcuWLdi1axf++te/ci8AWarEBuex3R7IkkXWqNhSDuLvkpOT8ZOf/AR+vx8//elPMXjwYJimycWY+H0iNTUVFRUVUmRJJKcLiaKamhoEAgFuCQDA/5+eno4PP/wwYaX2UCgEwzAwYcIEFBYW8kBsx3GwfPlyjBs3DgBw8OBB9OnTx/WkZhgGQqEQVFXF7t270atXrzbf/45GOByGaZqwLAsejwe2beOpp57C9OnTAZwMQiXrH5Xb6MhQBirQuH+qqvK/RZcF4G52Tr9jjOH48eN4++238cknn6CkpAQVFRW88TMtLxqNgjGGjRs3IjU1Na5xukTSVpzq2qO6hABQXl6Od999F59//jnq6up403KxjIJYOicUCvFr33Ec/rBKgkoUYWKNwpSUFEyYMAE/+MEPMGLECFx66aWubaL7bdKkSXj11Vd5kWpqgWbbNlasWIGbb75ZBr5LJKdLKBRiwWCQMcbYlClTmK7rPEhS13UeFLlq1aqEv6cgzCNHjvAAS1VVmWEYTFEU/r1wOMzmzZvn+g6EgMrc3NzW39lzCArwDoVCTNM01zGjf3VdZ4yxDh+gHY1GmWVZzLZtZtt23PZalsVCoZDrvfLycjZv3jzm9/tdiRPiMfB6vfx6okD3uXPntuWuSSQuYpMmKFBdTO6xbZvNnTuXpaen83FWUZSEgeaxiS70PgWp0zhL9wGNE6qqskAgwB5//HF25MgR5jgOD6aPvf/o72g0ysrKyvjvDcNghmEw0zSZ1+tlw4YNYw0NDSwUCjEpsiSSM8C27bib+Hvf+x7PGkyEmOkyd+5c5vP5XINDIBDgN/Hx48ddy6Z/6XXgwIE22c+OTDgcdg3IU6ZMYV6vl4sIr9fLB9vKykr+PRLKHQlxYI99TxRWtbW1bObMmSwzM5MpisIznXRdZ6ZpMk3TmGmafDKJFeh0HU2dOrXJ9Uok7UlhYSELBAIuQSQKKTHbTxwXxSxiyhqkz0XhRcubMmUKKy8vZ4wlfvgKhUL8YUccZyzLYo7jsKSkJD6G+3w+/iCjqip74403GGON84R0F0okZ4Bt21iwYAFmzJjB3VJkto5EIi7XFBPM4eTiCofD+NnPfoaKigqEw2FeCG/jxo0YNmwYAKCmpgZDhw7lbh52IotG0zSkpaWhtLS03fa/IyAWD6yurkZGRgZ0XcexY8d4zBsFdp8rVfMty8KRI0dw4MABHDx4EJWVlfjb3/6GyspKnh1J+03BvoqiwOv18npgALiLmQJ8qQiu4zgYNGgQampqoCiKy+XaFfs3StqPgwcPYtu2bSgtLcW2bduwbNkyfm1TTBUhxr2K6LoOXdfR0NAQ53JUVZW7Gq+++mrk5OTgxz/+MUaPHs3XQ8sTux2oqsp7xlJVd7HgKAA888wzuPfee7n7ncb4cDiM1NRUfPjhhzxuVoosieQ74Pf7UV1dzQcBgjGGLVu2oG/fvjxTEHAHR9bU1CA1NdU1QQ4bNgwbNmzgKcV33303li5d6gqApxu+qKgIo0ePbqtd7XDQsaCirbExcIqiwHEcbNq0CWlpaWd9/WK8B8VNicKPED+n80h/19XV4eOPP0ZdXR22bduG7du3o66uzhVj0lQShWEYCAaDrrgzEbEqNf3t9/uxadMmLq5EZEyWpCWQEBEDv5trxbR3715s2rQJb7/9NjZt2oS6ujrX57HXn8fj4aVtdF3nbceolY2Y8UeCyjAMDB48GP369cPYsWNx0UUXYcCAAbjwwgvPyj5HIhHs2bMHffv2dW0vlXxwHAe7d+9G7969T5aBaCWLn0TSJVi7di0vGCqaqgGwjIwMxlij/z4cDjPGTrpnyEUzYcKEuIJ3xcXFjLFGs/T69eu5n5+WLa6DltNVXT6hUIjNnj27yZiMCRMmcLN/a0FuYFqH6FpwHIe7J3fs2MHWrFnDxo0bx7xeLz+ndO41TePFQTVN464R+n9TMSdi3Bli3Cjie7m5udz9GI1GZTFRyXdGvH7EcAj6//Lly9nEiRNd17J4TYvjWaLrO5G7WyykS67xcePGcddfom08m0yYMIFvR+z2FhQUsHA47BpvpCVLIjlD6Mnq/PPP520WWEwhuxUrViArK4ubrcm6AjQ+fR05cgS9evVCJBLhbkRd112WiSeeeAJz585N2N4hNzcXixYt4lktXYlIJIKjR4+id+/ePHNIRFEURKPRVlu/eE5ZTIYUYwwFBQWor69HUVERVFV1ufNi6++YpsmvJ7E+WnPDM9VWo2uFal9Rc2fHcTBmzBiMGTMGt99+O99GssAlOl4SyZli2zaqqqrw4osv4rXXXuONximbNfb+ONX1J2b9GYbhGv9yc3Pxq1/9CmPHjuVFiBPdh2cTxhgOHz6Mnj17wufzxY3HQ4YMQXl5uSvDEZDuQonkO2PbNm8iCsB1s6empvJmvI7j8MlVTBeeNWsWHnvsMZfbZ8KECVi6dCmPlYm7cU/UZ7FtG+Xl5QgEAu2y7+1Nfn4+Xn75ZQCIc1XMmzcP99xzT6uJz3A4jKNHj+Lzzz/H+++/j61bt+L111/nRQhF16AY40FiyHEc+Hw+HDt2DKZpcmGUqGZPIsS4lUGDBiEQCOAXv/gFrr/+el7ig1w4NMyTAKOUcxEpsiQtYf/+/aioqMBbb72F8vJybNu2jdeeEssqxJZJoHhC27Zd12AikaWqKgYOHIihQ4fi17/+NTIyMnDZZZe5KrwD7irt4nJiY66+C+SOJIEYu8wNGzYgPT2df5fcqFJkSSRniDiBPfvss7jnnnuQlJSEYDDoaiL9yCOP4KGHHuLBx9FolD95hUIhmKaJpKSkuM+qqqowYMAAAI1FTMkaAZxsi8IYw5AhQ1BVVeV6ouuskMVKVVWsW7cOP/vZzxAOh+H1erklCGgswEn1ypqqMyUuK9ExowlD0zQcOnQIH3zwAXbu3Im6ujrs3LkTDQ0NqKqq4iKYBJI4ocRuu1hPJxayZALxExM7Ebz+4x//GEOHDsVPfvITXH311ejXrx8GDBgQt64zGdY783UjaRrbtrmliWIbSazQQwEArF+/Hh988AE++eQT1NbWora2li+DrrfYfwHExaOKlv5E5OXloV+/frj66quRnp6Onj178rGNft+W0P367LPP4t57742LgVQUBZMnT8Zzzz0Hn8/H9422U4osieQMoSKYNIikpaWhsrKSB2oyxnj2Fw0wTU3se/fuxZVXXgnHcbhgEE3klmVhxIgRfPlAoyWDLBOFhYUYNWpUp50oEz09+v1+1NbWcquRx+Phx+vf//43unXr5ioKGxuATgG0omWH1rF161bMnj0bn3zyCbZs2RI3qMZm98VOHLGuERGyQtL6I5EIvF6vq3caYwyDBg3CpEmTcMMNN+CHP/whd0vTNURWTjErUJzkWnotdNZrR3J60BhF11BFRQX+9a9/oaSkBLW1tbz1DF3rsYVxxX8Jut+og4CqqrzILn13+PDhuOeee7iVSuwRKD5MNvUw1FpQNqOu69i0aRNuvPFGhMNhnnGoaRp/sNu9ezeuuOKKOIEFQAa+SyTfFQpyXLZsGQ/Q9Pl8TFEU3qXd6/WyUCjUZHE7xhh77LHHXIGdOBFISQSDQR4sahgGXzbVSiLEwOvOysaNG/l+U00cnAiUHTt2LE80YIzxYG/HcVg4HOafhUIhZlkW27x5M3vyySdZSkoKDzyn86DrOv+bXlTwFAkKHCYKUE+UsEAv+jwQCLCZM2eyDz74gAWDQVeBRuJ0Anhjg9lb8pJ0bRzHYY8++ihPxKBrVby3xCSL2CD22GtdHJtoDFQUhV199dVs4cKFCQvr0n3a0NDA34tGo+0+puXm5jZZt2vWrFmsoaGhyftIWrIkkjNEtIaQm4765pmmiWg0yl1UHo8Hb7zxBn75y1+6liGm0luWBZ/Pxy1hFAS/f/9+XHDBBdA0DfPmzcOMGTMAnGyITDE/BQUFePDBB/ln4pNmZ4OeFOn4A41uicGDB6OqqspV9ykSicC2bXzzzTfYu3cv3nrrLaxduxZbtmwBAFdsCP1LT9CJXBy0boo7Od14DwpKHzp0KG655Rb89Kc/RUZGBizL4sunbWbNWKJYEzEh33Uol5asrkVZWRk2bNiA4uJibNiwgV9PYtkP8f4iyF12KksW/T8QCGDUqFG46aabeA1AMX6K/u2oY9aqVauQl5eHY8eOAQAf26mECo0fTVnapMiSSM4SjuPgo48+gt/v5++Jwc/9+/fH5s2bATQdiFlcXIwxY8ZwF6NpmpgwYQL++te/oqGhAUlJSQgEAqiqqopzUyknmv3G9tnqLHzzzTf43ve+h0gkwsVIbOzSggULMG7cOGzcuBGfffYZPvnkE1RUVOCTTz5BNBpFNBqNi5k6XXFxqqEydjmDBw/Gb37zG/Tv3x/XXXcdLrnkEtd5b0pIUe2rM5lwxG2UoqlzI9apIoESW4eN+p1WVVXh4MGDqK2txZo1a/g4JJIo+0+Mp6JMWHq4oOuTvmsYBgYOHIjU1FRcccUV+OUvf8kTckT3YKL1dWSSk5OxdetWPiYnJSUhGo3CsiwcPnwYPXr0aLaYrxRZEslZJBKJIC8vD8uWLYNhGNyvr6oqPB4P5syZg//5n/8B0PQgEwgEUF1dDaBxAOvWrRv++c9/8qfAlStXYvz48XHB0x6PBykpKSgtLe2QT4RnAzqWFIclikxN03hT2NMZ1lqacdRSkTVkyBAeV+c4Dvr37w9N05CVlYVLL70UqampcZMYxeLFZpOeyTaeK5OY5MwhKzoJIprs9+3bhyVLlmDFihU8xlBVVVdySOz1Efu3pmn8/qKEHDEG0XEcZGRkICsrC9dddx169eqF7t278+BvurZFi1Vz6+toWJaFO++8E6+99hq37omWPdFz0BxSZEkkZwnHcVxBofQSBybbtnHo0CFccsklTS6nsrLSVaFc0zSYponjx4/zJ1ZRiIkoioKXX34Z2dnZZyVtuSNiWRav8yQO3mTGp+OfqA0HcOrJpSlaKrJEawAlKei6DsMwcOzYMWiahvT0dPzud7/DHXfcEReUL5G0hOLiYsyZMwe1tbW8NAhB94MYSH4694F4/ZJr/IknnsDkyZP5GEb3BT0oAI1hEIZh8Gue1n2q9XUk9u3bh6uuuspVw5AelikU5HTonKOwRNIOkJCyLAtFRUX8JqTBhf6eNm1akxM2YwwDBw5Ebm4uf89xHDQ0NKCgoIAPli+++GLc72iZ//u//9spBZboFh07diwAtzWKMn/ETM5T0ZoDPS2bXCwUO0eTn23b2Lx5M6ZOnQrDMJCamoqKigoejyeRNEdJSQlyc3N5HOeYMWOwdetWeDweHD9+nGfWkkWdINF0qmuf7p8xY8agrKyMl5iZNm0aLrnkEtf9KGZQi+9RlvW5aFkXexxSDBY9LK1YseK0xxlpyZJIWgHHcRAIBFBTUwPAHTsEAOXl5c3206OClsDJQFSv14tPP/0UvXr1QjAY5KZsKvkgWnXmzZuHadOmddhg0tOFBjmy7hw7doxPKl6vFwB4CYRYYXI6Q5tYzBAAT82mgqA0qCYlJSEcDnNrZKLGsbEBwgT1N6SJTiwXkWh7R4wYgfvvvx+33nprq1awlrQtx44dQ7du3fh1FXtviuea/h8KhfDVV1/h888/x3vvvYf6+nosXbqU/4bKiSS6nqjgZ6xLna5DsWk4O1EyZODAgUhLS8MVV1yBrKys1j4kHQ4abxYsWIBp06bFfU6xtVVVVXGfNXWfSpElkbQSGzZswIgRI+KK8VFNJBrsxMlXpK6uDkOGDOFZboZhYPLkyfjzn//Mv0NCLJFrjEz25zINDQ3weDy8hQxh2zYmTpyIlStXclEUu/+nO7SJda/EhrSO43ABRyJKrH8mxmdQ65DY9dM2+Hw+V1sdWm/s98UJMxAI4Omnn8b1119/yua7knMHsYhxbLA5udyKioqwZs0afPTRR6ivr+fjBT2skXUqkbgSl0eWLAqAp/UDjXX9kpOTcc0112DQoEH40Y9+hO7du5/zY8Z3wXEcHD16FJdddlmTLbk2btyIQCDAi6MSTT4MNVEWQiKRnAXy8/N5bZWkpCRmGAZvlrpw4UL+PWoaHVtnZdSoUa7aLElJSay4uJg3YC0qKnItHydqNwFggUCAL0esG3WuQXXIHMdhc+bMYT6fj9fHomNJx6CpelSn86KGs1T7SmyuPGjQIJafn8/Gjx/PhgwZwgCwlJQU/jnV2BJf9JlY9yx2205nm+fMmdPOZ0ByNohGo66G7uK9XldXx8aPH89UVWVer5ePE3T9mKbJ67NR3bbTvc7FBuTjxo1j1dXVcdsmNq1njLmaPXc15s+f3+S9OXHiRP69060zJy1ZEkkrsmvXLvzgBz8AAJ41Bpysj7Vt2zZceeWVcU+1ZOKvra2F3+93BdT7/X7eDzEUCuHaa69FZWWlq2kpBeGvX78ew4cPb/sdP4ts3LgRf/jDH7B582ZuPRLLV1BgLYt5qj/V0EbWJ6pbNXDgQKSkpODKK6/kwa5EOBzm/QbFKvK0jkRPsY7j4ODBg9A0De+//z7efvttbN26FVu2bHGVkqDfi3EtYpo8We1effXVMz+Ikg6Dbduoq6vD008/jeXLl7tKkpD1xOPxwLZtnjlIdavIkhUbfpAIVVUxbNgw3HPPPTyGEQB3hce24BLdl10x+cJxHOzfvx9XXnklDxMQYScsjYqiuNr8ENJdKJG0E/Pnz4/z79MgSTWwTNNMOOmGQiE899xzePTRR3l2i6IoWLlyJUaOHAnDMPDhhx/iuuuu48skIULZPaebBdPWBINBLgxVVeUB3wcPHkR1dTXefvttLFmyJKGbjUQptTUSG9OKGU2MMZx33nno168fQqEQAoEAkpOTkZqaihtuuKFF20uDK00+NOgC7l6Sp4qBs20bkUgECxYswI4dO7B161beLolEI51LMc5LFFrN1eWRtC7NxTkm+mzjxo04fPgwiouLUVdXh61bt/J7kqbfRNMwXQ/0mZh9Kv5N76WkpCAtLQ0jR47E0KFDcfnllze7HzLWrxHRfev3+1FfX8+PMWUVKoqCd955BzfddJOrPpiIFFkSSTtAkzLF+YgDJP2/tLQU6enpcU+mZC2hBsixwbL0pBUOh/H73/8eixcv5sulGCDDMDBt2jQ89thjbbXLpwVNHmKcUVFREUpKSrB9+3Zs3boVAJqs68NOFD+kaukU5GuaJiKRCBzHQU5ODkaOHIk+ffrgRz/6Ec4//3ye4ScGrZ8uJN4A98BM20bCT7RK0n6Kda8o0JjO4xdffIGXbUyzKwAAIABJREFUXnoJM2fOBGMsThRTsL2iKCgoKMADDzzQou2WtC6x8XLr16/H+vXrUVVVhZ07d6KyspJbQMXuAkDz1la6RkWxTYUw2YlA9ezsbNxwww3o3bs3LrroIgCnX6JEiqxGyKswZ84cTJ8+HUC8xTAnJwcvv/wy/yw2YQaQMVkSSbsSDAZZ9+7deZ8vipsCwEaMGOGK1RDjI8jXv3LlSh5zhRNxGsnJya4ed7HxSbQuTdPYoUOH2mfHm+H48eOMMcYWLlzI+55B6JWmKArzer2uvmhIEHNCsStpaWmspKSEHT582BVTEgqFXPEmxJn09aNzQ/E11FeNvke91+h9ir2JPa+MNV4TIpZl8Ri7pKQkV0842kefz8f27NlzTsfYnavE9s+jc3D06FE2f/58lp6e7oqjomtYvE4T9bJs6iXGBOq6zlJTU1lJSQnbvXs3vybpmmoqhkr2qmweugcPHDjAkpKS4o47ncP333+fMcbi7uXTOZ5SZEkkrYQ4KNu2zUaPHs1M0+Q3Mg24qqqy4uJi/j1xMqaJ+vjx4+zaa6/lky8NAOLviouLXQOEGCj7+9//vu0PwCnIz8/nk5AYHB4rnpp6KYrCJk+ezCoqKphlWQkTBxhrFC80CdE5OX78+Bk3UF67di2rqqpilZWVrLy8nJWXl/P/l5aWMsbiJ7doNMrC4XDcRC0uW2yWS8HPdD6pWTXteyLRKGk7CgoK2JAhQ7ggEu+1pq7j0xVX9EpNTWXz5s1jO3bs4OtNdK2I79P/YwWAFFlNY1kWGz9+PNN1nXm9Xn7eDMNgpmmyxx9/3PV927ZZKBSSge8SSUfjyJEj6NWrF3cHxbq/yJUQa4pmJ9paUOA8FcULBoNISUlBdXU1L9dAleC7d++OUCjkWuaGDRuQnp4OoHUaSLMYd5m4LwBw6NAhvPfee3jmmWdQW1vL602R+wxodIc0NDQAOBkPQXWlyN0yatQo3H///bzNkAi5VuhYkZtFDFoXsSwLjuPg22+/xa5du7Bz507U1dVh586d2LZtG+rq6hAKhfhvWzJcOifajvTr1w+33HIL+vTpg8suuwy9evVyfS8YDMI0Te5+tCwLkUgE1157LWpqavi+i/XCxowZg2XLlvHjLgZPS5qGCW5qqmAe29hXLNWxf/9+HDhwAP/85z+xYsUK1NTUwOfzoaGh4ZTuNtM0efydGHMp1q4i9/OAAQMAAPn5+cjMzMSQIUO+c8mO2PtPkphVq1YhJycnrs4ehRZQWAZdJxT8HouMyZJIOgDz58/HrFmzEta1ysrK4hOnONCTANN1HXPnzsWcOXN4s+hgMMjjdCzLwpYtWzB8+HBXLBhwMn6LBF6iGlpne0CmQf7QoUO477778Omnn6K0tBSAO1A8FrGNB/09ZcoU/OxnP0NqaiquuuqqhCKRxFrspEmfqaqKcDiMY8eOYd26dVizZg2qq6uRlJSEmpoaNDQ0uLaJRJ64XS2BBmPGGEzT5IG1gwcPRn5+PjIyMuKOlyi2jx49ip49e/L9IWEANE4AYu0jScsQ46jo/5ZlobKyEnv37sW7776LqqoqVFRUAACP/wOQ8AEiEZQhSHWtxN+np6ejf//++M///E/07dsXfr/flbBxLhcQPtdIS0vDli1b4ooJK4qCDz74AMOHD4+LH02EjMmSSNoZitfp3r27y5VAdZV0XWebN29mjLlrQ4nm6GAwyPr3789/6/V6ma7r7MCBA3w92dnZruUbhsFN33PmzGGO47BwOHzW3QfkpiDXXFVVFUtNTXW5/ZqLrUJMDEteXh7bsGGD6/iJ64rdZjLhi8ePfrNw4UI2bNiwuHUgxo1D54PqEFF8GG17S16J9oncxQBYfn6+a59i3Z3hcJgVFBTwbYp1n65cuTLhsZGchK4Tip+je5AIhUJszZo1LCcnh/l8PlcMFJ07igs0TZN5vV5+nZzK3Seee3I7lZWVxZ1zxk7Gd5E7WbqD24a5c+c2WWcvLy/P9d0zdb9KkSWRtDErV65MGLfh9XpZeno6cxzHJRhib+QVK1bw+A9N05hhGCwvL4/Hb+3Zs4d/JsY8kWggWitGY9euXWz48OFxYsYwDJaUlNRsrJWmaaykpIQxdnLCOd1tEwXWv//9b3b33Xfz9YrFHZsSd1TkVHw/VhC3VGTpus7PA50zOgYUA7J3717GWLxQoolWjPOh3+m6zqZOndriY9TVsSyLvfnmmyw3N5d5vV5mmiYX1OI1KP5fnIRJMInFQJt6iQ8JiYSViG3brKGhgQtCSesTDAZ58eFE5zM2oUCKLImkgyNmhCUnJ3OLCU2eNLCTyEgUzErLCAQCcRPDrl27XBl79JnX63VlNk6ePNm13JaILFq/OBHQtpWXl7P09HRXIHDsSxQfYkBwWloaq6ysZIw1bZWJTSQQt2Hv3r3svffeY1lZWQmzuug9quZOE2W3bt0SWpxiXyR0Yifc2N+IIutUk7CYabp582ZuyRKDmh3HYcXFxfzYxS7/8OHDceejs9NUZiVZZ8PhMLdc7dy5k5WUlPAki+ZeJKhFKxadexK3dB3EZnympqay/Px8VlJSwq9fGWje8RDPQ3p6etx9Tud+7dq1Z22dMiZLImljqHAmVRTXNI03gQbg6qFHMMbwzTff4Pzzz+f9tS6++GL+OdVzEW9nTdN4gU9qIk3fXbduHY81IE4VY+I47krTFMeyZs0azJkzhzfDpuB82h/a/lgyMzNx0003YcyYMRgwYACPOwuHw7wgZ6Lf0nZWVlbi73//O9auXYvt27fjq6++4gHGYrV0VVUxZMgQ9O3bF4Zh8H99Ph++/fZb6LqOq6++2tUYmjGG+vp6XHjhhfjmm2/w6aef8krdtm1jy5Yt/DhQjI54LpraZxH6nGJ01q5dix49esQVGrUsC927d4+rQO04DoqKijB69OguG+AsXov79u1DdXU16urqeI2qsrKyFp8Pum4Mw+A158RA96FDh6J///7o168ffvKTn2D48OE8do5oi5hHScuheLd33nkHv/rVr/j7dG4URUFKSgo2b9589lZ61uSaRCJpETNnzoyzitD/n3rqqVP+vrCwkOm6zs4//3z+FEZxBNFolK1bt87l+sCJp3Jd11lGRgb7+uuvGWOJ45sSYds2CwaD3OIyb948lzuF4r6asmRRfJPf72dlZWUsFApx6xQ9/ZNFJjZFnfbJsiz23HPPuaxTtA2BQIDl5eWxgoICVlpayvbs2cN27doVt5zjx48zy7K4e7WhoSHh/orHhOrpkKXk3//+NystLWWTJ0+OczGK5/JUMTsQnqCXLFkSt17C7/cndEcqisIyMjJOee46A3RcREtnSUkJGzduHPP7/S6LI73E6/9U54Ncu3Q+xOsrJyeHvfXWW+zQoUPNWg3J2izWTpOWrI4BWdwPHTrE4zMR44Lv3r07KysrO6vnS4osiaSNEWOtBg0aFDc5kBsxESR0GGucbMQJBCdcgxQEHw6HXQ2qY5sqr1mzhm/H6caChMNhtnbtWi6iNE1j3bp1Y7quu4LEE01q2dnZrmU1FYMUW0uKscYGujQQ0qDo9/tdwd/kIopFXA99LhYKjS0KSsckdtuo3pX4OS378OHDLCMjo8VCS1EU9r3vfY8BYMOGDYsrospYo8DLy8trMrDe6/WynJycuH3ojBw5coTl5OTEHWdRUNF1Htuk+3RFr67rbMiQIWzFihWu2mYk8hlrOgYutpCwFFkdC9u22ZNPPul6sBXHrgEDBpz18yVFlkTSTjiOw1atWsVFlhikTkHRovBIFGy5YcMG5vP5XJNEbm4u+/bbb7mVhiYb0bpE/yeoQrlI7N9r165lpmny7Yud9GMDhimYfMqUKQnjrMTli5MZ7XNFRQWbM2cOt4799re/ZcXFxVx8dMRJLBwOs0AgECecm4pPE1+BQIAx5s4wo2MhWg3pFSsO1qxZ06GOxelC4pWEL3HgwAFWUVHBZs2aldCS15RVMPa9RAkPsb9JS0tjCxcu5J0REol1ybnP3r17XdeOGGMHtE6RXymyJJJ2gp6M/X6/y1VBIoUy7SjQN5GoCIVCLmsVTR5lZWWMsUYryGOPPcaFijhJ6brOLSCi64wmGAogfuONN1hGRoYrUJ8GptjlAY3ZV+np6aygoCBhkLJocYq1PlVUVLAVK1awhQsXssmTJ7OCggK2c+fOhMevI4osYu7cuS7rCh3/5kSWciKjScySpAwnsh429VIUhQ0bNowxltjV2hGIncBIWNGrvLycLV68mOXn57P09HTXtUbB580lFoju8FghJVq5kpOTWW5uLisuLmYHDx50ua2JjnY9Sc4OQ4YMSZjYAjQmHCVySX9XpMiSSNqZXbt28VRieqISn7737NnDGGtaVOzatctV2wkAu+666/jnwWCQJScnuzLaxAmIBJkYF9XQ0MCKi4tZamoqn7Ri412acl+tWrWKL4smfLFdUKzFIhgMsr1797Ly8nK2efNmtnnzZm5REHv/iW7WRG1DOgK0HdFolJWUlLiO86lE1vDhwxljid2ohYWFzYosKuUxf/78Dl0zSxTVlZWV7JlnnnG5WWPdN+K1dToiS4wRpN8NGzaMLVy4kJWXl7MvvviCOY7Ds3AZcwsqas/UlbI1uwpLlixxjV2apvHrLCUlhTHGmu0DeaZIkSWRtBPi03N2djavbUWTDU0kjz32WJN1WYLBILMsi1tOxEld/F1hYSE7//zzXZM7DTY0wFChxsOHD7OUlBSXcBLjrahoY+ykR4VUxRgnCjAX3UHiv2JxSMdx4ga45sRTRxNZiSbm3/72ty7LSqzAEv8/fvx4vv8NDQ3s66+/5jF4eXl5pxRZdE46Kp999hmbP38+CwQCvBkvTXZUHkEs7RE7IcY2zG4qpioQCLDZs2dzN2RTsXoi4XDYVZ5EiqzOR2wihPj/2traVmu6LkWWRNJBEEWW6JrTdZ0XrEwEZTRRNWrRzSKSmZnJl00TGRXqfOeddxhjjWIv1i0oBgTHTnrk0oy1NiVC/E5zDWw7G7HiINb6R8eTEgMsy2INDQ0usTpu3DiXWJs/fz63LMY2Bc/OzubiuzURhYjoYiZCoRCbPXs2z+QSj0NTAinWKirWqBIfIkigUSzjnDlz2ObNm5llWezbb789o/0RE0CkyDr3Ec9hdnZ23DVH4+X48eNbdTtknSyJpIPwf//3f7j55ptdzZCpKfHw4cOxbt06WJbF+5r9f/bOPL6K8t7/n5k5c5aY4O21iIqIooIGAtlIAH+1e29fvb0VQTEQSCSpS+29vW1ttRZFiJKAoFbtXbwVFUWUJGwut+qrvVpFSMhC2BQroAIxEShUQ07OnDMzz++P8H3yzJw5Ycue5/16nVdyzpmZM8uzfJ/v6q5v9tlnn+GSSy7hebZCoRDGjx+P9957D0B7geoLLrjAUWyYCAaDvDixeqKuoO2qrQi018yLxWLIzs7GPffcg6lTp0JV1bh6a4mGFZageLRIos/7G3RPiouL8fTTT8fVPhPzjmmahtdeew3f+973+PXT/pZl4Zvf/Cbeffddfu9mz54N27axatUqAB11Fik/2aZNm5Cdnc0LEHc1hmEgEAjwGpmNjY3YuHEjPvnkE7z//vt48cUXoSgKr8fHThQ5Z0JtSEXITST+pXvDGEMwGIRlWfD5fGhra+O1H8eNG4dvfOMbyM7Odmwv9pvTxd1mB0o7HKxQvrmqqipMmTIl7ntqL9Quu+15d6sIJ5FITov8/HyHGQmCb0ltbS1jjPG8Tl5pBhYuXOjQPmmaxlauXMm1Gvfdd5/je9IUiA7UgLdjaCAQYOnp6dyHi1b+7tITov9VZ6/BoslasmRJQi0WraqvuuoqdvjwYYdPl6gZFKNPdV1nhYWFrL6+nptuRX8+TdNYUlIS//2ujJSjYIhPP/2UrV69mhUXF7OcnBwWDAZZMBjk7VWMYk3Unrx81EQNFU5E/eXn57N169bxigCmaTqCQcgU3dbW5pmO41QZ6O1wMGJZFsvKyvJsbwDYSy+9xBjr3kAHKWRJJH2EaDTK6urqHAJWIBBwJPskaLJzO4QbhuFwVFdVleXk5DhyPGVnZ3vWZKPfJb8Yt8C1fv161tLSwoUqchJmzOmgLoWsdugZbdy4kYVCoYSBAn6/n+Xn5zv2FYWtmpqaOOEkMzOTWZbFTcD0SkpK4v8/+uijcUlez4aKigpWWFgYZ6IUBXpVVR1FsOnzUxGy6LO8vDxeZogQTYBinjiiKyIqB2o7HMysWbPGYYoW2xv5onY3UsiSSPoI5AROExkJQuKEduuttzLGOlbw7pB/xtqzYLsnwoULF/LV//PPP8+CwSDXgogDEAl29HlKSgorKSlxOKiLiJNSZ4LTmbwGChs2bEgoVJCw9fbbbyfcv7i42CGYAGCTJ09mkUiEHTp0yKExooSttC1FaXrdT4qwo3ZD7UNMqVBYWMg1nZ3lpqIX/baYx0uMFHQX605JSWEFBQXsvffeGzTtQdI9iO2YFpTutikuLnsKKWRJJH0EioJqamrig4Ko9aBEoA0NDYyxeJMSEY1GWVZWlkNTRTmYiKysLK51ECPTaPIMhUJs7ty5pxXd19WvgYBpmqy0tNSzzBDd987K4liWxbWLoVCIa6puueUWrsn53e9+x011FPhAz3HhwoWMsc7z/oj3uq6ujmVnZ8cJSqKQJQpbXoKW2F5F4VDTNF5IeeXKlezAgQMOrehgaA+S7kNMF8MYY7fccgtPB0Ltj9r0gw8+2GPnJYUsiaSPICboLC8vd0yW4iBRUFDAV2teQlY4HGabN2925Bvy+/2soKCAH3/jxo18wkxKSnL41OTn57ODBw+ySCRyUu2VFLI6x7ZtVlBQECdgkYZHUdqz7ifym1q0aJEjEpTaA9WopAlFNMuRNotyZx04cMDz+G5TM1UfEDWcpEkVzZxeudZoWzGDtt/vZ7Nnz2aLFi1i1dXVrLGxkTEWb9oTz2GgtwdJ90KJZSsqKuJM6KRl7SkzISGFLImkj+A2+6WlpcX57pA2q66uLqGQRcyaNcsR5q/rOncepu9Ff5mioqJOz6unhKuBNKmGw2FPUyEJKKWlpYwxbyHr73//OxesREd5AGzFihUOf6t33nnHobkUTcVTpkzp9Bwty2Lbt2+PK6bsbnti2g4vIcvv97OioiJeT5JypIkFuL3M27Ztc4F+oLcHSfdjmiZvr+42DIBVVFT06PnIFA4SSR+GwooprYKILaRYoHDlRPtrmgafzwfTNGGaJgCAMcbTClRWVmLatGk85F7SdWia5nhWqqryVBitra1QFAW6rvN0DvRMysvLkZeXx1NkiMeLRqNxIed5eXmoqKhAIBBANBp1/GZlZSWmT5/O30ciEQSDQdi2jfr6euTk5MQdT0wlQb/LTqT2oDQg2dnZ+OUvf4kbbrgBAHiKBq9wePdnpzv1yJQKks6gFCalpaW49957kZKSgpaWFt7XAGDy5MnYtGmTZ9vrrvalnnwTiUTSWyxZsgSapnkKUMuWLeP/e+UFsm0blZWVCAQCANoFMZ/Ph/vvvx+2bcM0TZSXl8Pv9+Omm25y5MiSdA2LFi3iAhQ9B7r369evRyAQQCAQ4IIUCViWZeHVV1+NexaqqvKXm9/+9rfw+/0wDIMLQaqqQtM0LgQB7e0gGAwCAKqqqjBx4kT4fL6449m2zT8PBAJIS0tDUVERFi9ejP379yMSiWDTpk244YYbYFkWF+pUVYWiKFIokvQogUAAn3/+Oe69917ouo6WlhYAzsXoxo0bAbQLZD1Gj+rNJBLJaUFV40OhkKe5qbm5mTHmbW6y7fYcVgUFBVx1Tj42FHXGGGOZmZkMAHvkkUe6rbTEYKStrc3hCE4mvOTkZDZ79mxm27bDlCaaxerq6lhKSorDbEfmvEcffTRh7UYxxYLf72fnnnsu39+dJqKxsZFNnjzZYR4UX36/n91///2soqKCt5dE7SyROa8zc99gNB9Luo+2tjb24x//mPuvkl8i9Yfy8nJH++2p9iWFLImkj0Idv6yszLMUia7rLCsrq9MBwrZtVl1d7QhjDgQC7I477uADzltvvcW/Fyd9ydlRVlYWV/KGopvciLXzotEoF37EiD4SlAmvSaK1tTXO+VxMMltTU8MLgIvCGKVV8KpFSb9FPlTkC2aaJotEIieNXJRClqQnqK+vZwB4AI845qWnpzu27ckC89JcKJH0URRFQSwWwy9/+UvPkh+xWAzbt29HRUUFotEoADjKlpCaPCcnB7feeiv8fj9isRgYY3jmmWdw+PBhAMC1116LvLw8AEBSUlJPXd6AJhwO45VXXnGY4cgkaNs2fw70rHRdh8/ng2VZOHr0KOrq6rhJkExvlmXh9ttvT/ibtm0jFAph9erVAACfz4doNIpQKMS3+f3vfw9FUfAP//APvOxNLBZDLBaDbdv81djYiIyMDL6foij8fMhnT9M0BAKBTn346NwT+Widzksi6YysrCwoigLDMKAoCgKBAC/L9Oqrrzq2FU3a3d2+pJAlkfRhdF2HZVm8/qAb0zSxdOlST58tGkgA4Mknn+SfW5aFtrY2DB8+nDu///73v4eu6wgEAlizZk33XMwARxSa/vjHP6Kmpob7uQFALBZDZWUl940T9yM0TcMll1zChWZxm0AggIULF4Ix5qg7KW6jKAqmTp2KzMxM7uNlGAYYY9B1HStWrEBOTk7c8QlFUbB69Wqcf/75Z30/JJLuROwDs2fPjvuegj9mz56Nr3zlKz15ak66TUcmkUjOGlJjRyKRuDpvZBby+/3s5Zdf5iYdMemoWOOtoqLCkZEbAFu8eDHfdtmyZVzFLvpsSU4dSqqZkZERl5CTsvUz1m5q8zJXFBUV8efjNt/dcsstjmfbmbmjubnZkVAUiM9l5ZUctaSkpGdulETSBdi2zRoaGniqE7c7BQC2d+/eLq3febpIIUsi6aOQwPS73/2OJyYVhSyaOGnSdAtZ7gmZMcYKCgoc+ZYURWFNTU38e0pE+fDDD/f8BfdzSKBdvXq1I5Gnruts1qxZfDvRv0kUkqj8DjnsupOAbtiwwVE6pDMhq62tjWVlZTnK97gd6N2TUmFhId+/K2oBSiTdCfkCZmZmelZUAMDuu+++Xj5LmSdLIukzxGIxh38L+diwE6aecDgMRVG4eYnyKvn9fkSjURQVFWH58uWexwI6cmmJ/geapiEtLQ1bt24F0GGWsm0bTU1NGDp0aHdf9oCD8l5ZlsXNseFw2NOkSzDGMG7cOHzwwQc8jYZoUhw3bhzq6uo6/V0xV1pxcTGeffZZR84q91BP7wOBAG666SasWLHijK5XIukJDMPgOeB8Ph8URcGqVaswd+7cOPM5jZPshGm9N3P/SZ8siaSPQBNzLBZDfn4+TzoZi8XQ1tYGRVEcE7Vt2wgEArj66qsBAE8//TSOHDkCwzA8BxVKKllWVubIzbRjxw68/PLLsCwLiqIgLy8PlmXhZz/7GWzblnmzToOFCxcCaPeVo+Sdn3zyyUkH+ZKSEoeABbQLQdFoFNFoFOXl5Sf9bWobJSUlePbZZwF0nmCRvktLS5MClqTPQ3nmKAecaZqYPXs2NE3jed9SUlIAtPcd0RexV+lhzZlEIumE8vJyXrwZgplHLHkSCASY3+9nOTk57MEHH2SmabJ169YxRVHYNddc0+nxyaSVkZHBgsEg/52cnBy+zV//+lf+W7W1tb3qz9Cf2L59u8MUC4BVV1d3muLANE1WXl7uKFdDLzpOUVFRp8cgotEoW7p0KTeduH26vGonZmRkdFqaSSLpK1C9VoJqgsJVbxMAe/DBBx3uEr2JFLIkkj5CTk4OF6zIJ0ccOOjl9/vZ4sWLWTgc5pOjYRgsKyuLDzBeiIMO+Q1RTplQKMQWLVrEcx8tXryYJSUlMU3TTmmCl7TXmiQhWNd1tnr1au7blGjA//zzz7lzvJgElITf7OzsU/aPogLPbgE9kZCVmZnJDh48yBhLXKBaIukriH1o69atfHyk9kxj2ZVXXulIqtzbCwjFtm1uC5C5SCSSnmf16tUoKCjguZMI0a/H7/dzE9T+/fsxbNiwuOPEYjEkJydD0zTs2bMHF154Ie/T5McglmPJzs5GXV0d9+kCOtIQ2LaNSZMmYevWrSgsLMRTTz0FwzC4Wt6yLM9SPoMJKo/j9/tx880348UXX4SqqohEIli9ejVmzJjhuR8T/KQURYGmaY7ahIFAgOf6OXjwIC666CLP44jPoLGxERdffLHje6/xXNd1mKYpzcCSfo3X2KMoCpKSkrB8+XJ8//vf56bD3kb6ZEkkPYQ7N9GRI0eQnZ2NvLw8mKbpmPQo2Sj5ExiGgQcffBCGYXgKWED7BPrAAw+gra0Ny5cvdwhMmqbFTbq1tbWO8wqFQpg0aRKAdoHt5z//OWzbxtNPP42GhgYuYAHeg9xggwo919XV4cUXX4RpmjAMAwsWLMD111+fcL9YLAbLslBUVMQFafF+xmIxJCUl4aGHHuIClletNXL2NQwDI0aMOOn5shM+Xpqm9WztNomkC4hEIgCAhx56yFGPkNA0DWPGjMGNN97YZwQsAIAsWyCR9By2bTPTNFlZWRkLBoM8TB8nTIGiLw35GRQXF7PGxkbGWEdaBy8THn1H5qfPP/+ctbW1dXo+CxcudPy+ruvshRde4H46aWlpTFVVR44ndy6uwQ7db03T2IIFCxJuJ+Y8W7p0aZz/lvjKzs4+pd9ubm7mpXPcx/DywVJVlVVXV0vzoKTfYZomO3ToEK//6TaH05hH2/YVpJAlkfQQpmmy+vp6lpmZ6XBsJkd2rwK9mzZtYqZpOvyvGPPOY0QDy4oVKxgAlpWV1en5GIbBwuEwS0tLcwgKkyZNcmxH/g6vvPLKoB4nvATLnJwcfn8otxglGk3EunXr4vztKAiBPm9qamKMtT/nRMeDqx+qAAAgAElEQVRqbGxkEyZMYKFQyJH0NJGQpSgKe+ONN7rgTkgkvUNBQQHPGegeLx988EEWjUZ5Drm+gnR8l0i6CXFStiyLLVu2jE+igUCABYNBHgnm1kQ88sgjZ1zA1LZtNnbsWAaAlZeXM8ZYXOFn27a5lmvz5s38HKhY8IIFC7jz6Pr16/l5EYPRGd40TcczFbOze2VKF4snf/nllywcDrNDhw7FJQUlgYiiC3fu3Jnw9wnDMNi1117LNaFeGa/F9qTrOlu3bh0/Rk8WyJVIzhSxbR47dsyRRNm9qOir7VkKWRJJNyFOyJMnT3ZoL7w0DzR4NDc3n/EkSBqud955hymKwvx+v+d24vGi0SgrKCjgaQRwIoKRIs9s22bp6el8tdiXVPE9ifhMxKzupaWlCfeh+xyNRrmpQzQLuyeMV199NeGx6Nnats2Kiop4pn+ciCR0C1miZmzp0qWO5yaFLEl/gTRTNG6K5kF6NTc399n2LIUsiaSbMAyDbdiwIW5AELULpL0AwObOncu1Ry0tLac9aIhmqpaWFnbrrbcyTdNYfn5+3La0Hf3dv38/F7B0XWd+v5/l5+dzjVd5eTnTdZ0Fg8Guuj39DhKajx49yoWj0tLShP5ppMWKRqOsubk5rsQNpeqg+z5nzhwu/Hgd07IsFolEWFlZmaPdJDINkhl67ty5ccdyt62+NClJJAT1g7KyMkd6EnqFQiFWWFiYsBZoX0AKWRJJNyHWjqNVGGmwRLX3rFmzWENDA2OMxeV3OdtBg/wXNm3alHAbEgaWLFnC83PRJF5bW8sHOsrDNWnSpEFpLrRtm0WjUf48X3nllbhtvIQj27bZhAkTHBqsIUOGcPOsqqosKyuLH78zysrKWHJyMgsGg3xfsS25zYU//vGPedFqClgQBey+OClJJIRlWezQoUMsEAg42rX4f3NzM2Os77ZnKWRJJGeJ2Kkty2KVlZUJo1/cvjhLlizhE6CXduFsB42amhqmaRrLyMg46SRumiYLhULcv4fMUfTdkSNHuKbr5ZdfZpFIhAuFA7GgcDQaddwv0zRZWloaS0pKYuXl5Z7Px+03xRhj6enpcSZh+j8pKYkBYAcOHOj0PCzLYuvWrWOhUMjTXCJOPFSUOj09nTHW+8kYJZKzgZI00+JPHEPLyso8i633pTYvhSyJ5AwhoYWEDcuyWGFhIfdp8hKyQqEQn2T37dvHhRPyO+hKIYv2mTt3LtM0jdXV1fHvRI2ZG/fknZeXxxhrn+znzZvHFEWJSzHQ2fH6M6Jmas6cOSwpKYmtX7+eR/3RyzRNh4BF9z43N5dPEG4hKyUlhQWDwTiHehES8mpqanhG60Qv0c9L0zTHNQxWPzpJ/+all17i7Z4EK+o/mqbxdi3NhRLJAIQm13A4zI4dO8bS0tJYMBj09L0RNQ8lJSWeGo/u0GSZpsnq6ur4oNSZMET5t2bMmMEFRdqP8s8wxvi1LV68OO5+9MVB7mywLIsZhsGeeOIJpmkaW7NmDWMsXigWIcGINFhUnsjLJ49SNXgJQfQbTU1NjjbkdSzxmOnp6XzSIeFN5jWT9Eeys7O5ZtatBSZXBlro9tXxRwpZEslZYBgGe+SRR+KiubyErMzMTFZXV+eZILS7zIXErFmzmKZprLCwMC6dgwgJCO6JvLi4mGvdqqurHU7w5PPTVwe5M4WugSIJSRNoGAa/T+4AAvo7bdo0brpLJBRt2LDhpOfQ3NzMVFXlUVWiMOV1zNzcXIdmTCaOlfRXSktLHZp/sc1TME9X+7B2B1LIkkhOAzIRUnLQsWPH8kSSXuYb8m+iRJW9CWnZKDVDImzbZm+99RY/dxIYa2truXBRWFjIIxAZGxh5syiSkrEOzc/mzZtZVlYW27FjxykP3sXFxXGO6GK7SElJSZj2QRTALcty7OdV7Nmda4sqA0gk/Q0ya7e2tjLLsuICOTRN46bD/rRwUBiTVUIlklOFuYr7Au01s+wTBXfFYstAe7HfvXv34vzzz+d1CHuLVatWYfbs2Rg7dix27NjR6baMMeTk5GDHjh0wDIMXMaYi1c3NzRg1ahQsy8L//d//4Zprrumhq+hZgsEgvvzyS/j9/riCyoqi4Pjx4wiFQrz24OTJk9HQ0IBIJBJXK5L2X7p0KX75y186inUTtm0jGo1CVVVMmTIFdXV1/DzctS+B9vZF+9TU1CA9PZ0/K1lfUtKfoFqcuq57tnfGGDRNw5o1a3Ddddf1ximeEbJAtERyGiiKgg0bNjgmMMYYnzCj0Sj8fj90XceUKVPQ2tqK4cOHwzTN3jplzqxZs5CTk4M9e/ZgzZo1nW6rKAr++7//m5+3ZVkIBAJccLjgggswatQomKaJ73znO91+7j1JNBrFwYMHkZWVhdbWVvj9/rht6D6EQiGoqoq2tjaMHz8eVVVVngIWAKSkpGDZsmX41a9+5SlgAR1Fp++44w7U19c7zsmNbduwbRuGYeDFF19EZmYmb5dSwJL0N3Rdh67rWLx4cdyCBmhv06mpqfjhD3/oWSC6z9JbKjSJpL/R1NTEbrnlFod/DOUrgsv5uKyszJGfqK+kODhw4ADz+/1sypQpp7T9nDlzmN/vZ8nJyaysrIwx1mFWe/jhh3ni0r7kA3GmkAni0KFDvEyO+7q8fD7C4TCbM2cOL/gt+mKJ5g5KXJoo2Sjx+OOP8/ZFvm8pKSmegRSKorAXX3yRMdbun0LtrD+ZUyQSxtr7VmNjo8PJ3W0urKqq6u3TPG2kkCXp84gTmpiPiKL73BOKOImRY2QinyH3sRPlPTp8+DDLzs7mqRlwIh0DAEdx5czMTHbs2LE+ndJg8eLFTNd1tnDhQsZY+z1qbW1NuD3gLDZNfkOzZs3i92IglGmhNlVdXX1a21MUIQlWFA1FwlYgEGCLFi1y7OuO/KP/lyxZ4pm9XfS/osSMANi6dev4MaVgJelvuNss+TPihA8i9SdVVVlhYWEvneXZIX2yJH0aJvhAuT8T/U6oGTPGYFkWbNtGIBAA0G5WMU0Tuq4jFotB0zTut2JZFvx+PyzLijPh2LYNTdNQX1+PnJwcaJqGaDQKTdP4OZApqa2tDfn5+VixYkWfN9VYlgWfz4ekpCS0trbCMAx+r0QYY7BtG5999hneeecdTJ8+3WEyzM7ORn19PTIyMlBVVQWfz+fY38tk1pdhjKG6uhoTJ070fIbUjsjvzufzQdM07j+iKApUVeVmPJ/PB0VRcNNNN+GZZ55JeEzGGGKxGB577DH85je/4e3QPTRTm1MUBbZtY/Hixbj77rsRjUah63q/u9+SwY1lWQDafbGCwSAOHDiAK664gn+m6zofo3Vdd5jMqW/0hzYvhSxJn4UmFZqEdF3ngg99R5MUTWDRaBStra0Ih8OoqqqCbdt4/fXXeYeORCKYPHky8vLyMGzYsLjfc1NWVoZ58+bxDq8oChfW6LcVRcEzzzyDgoICfr59vfNXVFRgxowZyM3NxebNmxOeL903TdMQi8Wgqiqi0Sh+/OMfY9WqVRgyZAj27NmDoUOHejqG9ze8BHiC/O0AoLGxEVdeeSXa2tq40EXtk/xFdF3HTTfdhOeee+6kbWLz5s245ppreJumNi7eU7/fz9tdUVER/uu//osLV4kEZYmkLxOJRKDrOjRNQ1ZWFnbt2gXDMPg4CrT7KW7evBk5OTkAEBds0ufpGYWZRHLmGIbBmpub2c6dO9maNWvYhg0b2JIlS9jChQvZjTfeyHJyclhubq4jVxX5SZF93yuvkBhG75Ux+Pbbb3eUl4GgwiZzTXZ2NmtqanKovS3L8syF1ZcwDINlZGQwXdfZ+vXrT9m819zczAoKCvj1r169mjHG+nQywNNFrO8nYts2MwyD1dTUML/f70ifQO1ONO8tWrSIt6vOzNUHDx5kycnJjvZLtSO96hF6FXzuy+ZpieRkVFRUxBU9pzGbCkAz1pEAuj+NL4pt23yp1B9XnpLuwbbthBFQtKK3bZubL8SVv/g54G3yI7Odqqo4ePAgGhoa8MUXX+DTTz/Fjh078OmnnyIajcKyLDQ0NMDv93caocc8tFAna8+2baO4uBhPPfUUN43RNWRlZaGhoSHueKTZIS3Fs88+y7U8fd1c5n4OBw8exIgRIzB58mRs2rSJf24YBhhjCAaDANpXm4FAABUVFZg9ezYPtd66dSvS09M9Ta1A37v+M4X6QiQSwWuvvYYbbrghbhtq77QCv++++3D//ffHbUMwQRPr9/uhaRpPjwGAm7xpP9Ke3nbbbXj88cd5uhCJZCAQCAT4uEIwxqDrOnbv3o1Ro0Zxza44t/QHpJAliaMzAQuAQyBpa2uDz+fj/iei+c6yLBw9ehQff/wx3n33XZimifLycgDABx98AMYYDMMAAPh8Pt7JRL8Tt9qYvqfPvISrUyUQCCASiaCpqQnDhg2DoijYv38/Ro4c6fg9932xbRsVFRW4/vrr41I5iPSH/lRQUICKigoUFBTgySef9Hz29fX1yMrKAgB85StfwaWXXhqXXiBRHqmBAmMMjz76KBYuXIgvv/yStwMRavMvvPACZs2aFXc/otEoAoEAnyzIH5B8ukQBiwmmQuoPOTk5+Mtf/iKFK8mAgTGG8ePHY+fOnXHjhc/nw4IFC3DPPffwhV5/E7AAKWRJBEQnQybkfgK8fVVisRjq6upw8OBBvPnmmwCA2tpa7Nq1izspJicno7W1FbquwzRN+Hw+RKNRhEIhtLW1AegQmsSkngD4RBYMBmHbdtzkc7bQ7xYXF+PJJ5/E+vXrMX36dO4j4M5NRJPq/v37MWLECH5P2traEAqF+p2QwU74ugUCAfj9fhQUFOCWW25BTk4O6urq8Oc//xl33303315VVbz00kuYPn06VFXl7UVRFC5ki/egr1//qWIYBh577DHcfffd3P9KVVXPtrh+/Xr84Ac/4H1IRFEURCIRBINBxGIxTJ48GVu3bo0LxHDvR++bm5vj/Aglkv6Kbdt4+eWXcf311wOIHy9oMU/bqqraL8cUKWRJOMeOHcPevXuhaRr27dsHRVGwb98+1NXV4eOPP0Y4HMbu3bu5IEaaJ9u2+XsSUEQtlRjVRxMTaZGAjnbnVgWTOZEcIbsav9/Pj71582Z87WtfQywW4+YbOn8iMzMTf/zjH/HVr34VQEcEDNHfhCygXbtSV1eHKVOmIBgMIhKJOLQ0qqoiIyMDM2bMwF133cX3I+GKBHHSOor0h+vvDBLsi4uLsWrVKv58aaHgpra2FhkZGfz+ed0PwzCg6zpuvfVWPPvss1BVlfcjEtwIEmQB4IsvvsCQIUP4ZHP8+HEkJyd316VLJF2O212BMYYJEyZgx44dcW0faA/OmT59uue+/QkpZPURaIXr1ZjcJhwxykmcDBOZ+SKRCI4ePYrDhw/j008/xc6dO/HJJ5+gtbUVu3fv5uHmognoTHB3Egq7TUpKQltbG/8+EAjwUi1ek4xbG0L+QWRSMU3TEXlIKRhoQsrOzoZt20hPT8fo0aNx5ZVXYvjw4Xj00UdRUVHhaZpM5NNFmrX8/HysXLnyrO5PX6ahoQFLly7FqlWrAADp6elIS0vD9OnT8YMf/ACqqnYazSOatgYCkUgER44cwY033sjL5FCEqei7R22OUlmI0La0H9B+f26++WY8//zznr/r9/uhKApisRi/p4cOHeKCvUTSX3FH7C5btgy//vWvedQs0F4VoaWlBenp6Wc9H/UVpJDVRyDhQhSSDMPgDVD0wxDDtWOxGI4ePYpDhw7htdde4yYdVVWxfft2LnyJToWkdhUHfq+VxJlcQ6L3bkGGfFNEjYCYH4i2JTOKuM3YsWMxceJEXH755RgzZgwuu+wyXHXVVUhKSuId2e2I39TUhEsuuYTnzyJBjX5PbPv0v8/ng2maKC0txZ133tl/QoZPg0QrRPHzgSZAdQa1m+rqakyaNImbB5OTkxEOh+P8sCilRWdtQ8z5s3TpUtx///2ORQFBv0V/g8Eg9uzZg+HDh8tahJJ+j6gcADrGEy83A9M0O/UL7k/4BsPA2ZcRzS7iCtbn83Etz5tvvgnGGHbs2IH3338fFRUV3IxGjTM5ORnHjx8H0KHVEs10oVAI0WjUkceHopYoiq+rGzUl64xGo45J2+fzcbMJQTmGxowZg9zcXFx55ZW4+uqrkZ2djeHDhwPoSAZJ5y36iNF10f+i35iu65g6dSr3GyIhlZyPxfMVMU0TmzZtQnZ29oDp8F6IhVnpudC9IJNZbxe37ik0TcOGDRswdepUhEIhrh2m/FQiEyZMQENDA88f5m4/5KtH9+7VV1/FvHnzEtZdE5PbKoqC559/nrd9iaS/I44hkydP5goE0SoBtBeyH0jjre/km0jOlJPZkcnXaf/+/WhtbcVHH32E2tpa7Nmzh0vzFOJN/wMdQhTQYe46fvy4o9ECHQkkaaKk7VVVjYuO8gqhPVt8Ph9Gjx7NNUKqquKmm24CAKSmpoIxhqlTp8btl2hi1zTN4QdEn5GASOY98Xufz4dbbrkFW7du5X4y5IsFtN9Ln88Xp1UAgDVr1vAEeANVk0ACK12/O6Flf3U2TURnfTIWi2HZsmX47W9/y53UqS+ReZvu06xZs/DCCy/wduF1TBKYGGNYu3YtbrjhBr6YEH0axd+nNlpWVoYbbrgBjDEewTsQ259k8ECL4g0bNqCqqsozSjw9PR3Tpk3rzdPscmTG925EDPknJ1ZN07BkyRKsW7cONTU1ju0TOU4nMsNRhB5pi4B481ooFEIkEkEoFEIsFnNogtyO3QQdgyIC3X81TcPVV18NVVW5sDRjxgy0tLQgFAph+PDhGD58OIYMGYJgMJiwZEsiznRSZ4zx86T/f//73+NXv/qVp78aabzoftH3mqahqqoKmZmZZ3Qe/ZX+6Lh/OpD5na5LDAs/duwYvv/972PLli0AEOfnR/3Y7/djwYIF+MUvfsHziJ3sN3ft2oUpU6bECVW0CCIhl/KslZSU4K677hpw918yuHEHNpHygOYiTdOwceNGTJo0qZfPtGuRQlYPQQ0sPT0d27Zt447c7m1ETiZkEaKQBcAxaIufuwUw0l555ftJS0vD6NGjuQN0eno6Lr74YgBw1Epza9TI2ZdMc1734WSczeQiRnVVV1c7SpV4RXuRMEkO7unp6airqzvj35f0TTpLLUGRpWKiWUqlQKk5KN1IVVUVJk6ceErmDFpUJdIGin2HtKkPPPAAT5shNVeSgcZtt92G5cuXA4Cjv5mmiZtvvhnLly/ni5GBkg9OClndCE3clHRw0qRJqKmpcZj9RE5XyKLBmfyufD5fXF4Ryk0lRvBdddVVyMrKwvjx43HZZZchMzMTl112GYAOp3oqgGsYBkKhkCOqis6bNAHupIluTreJne0KnnzVkpKSHIVFvTRZotkmKysLW7ZsQSQSQVJS0lmdg6TvImaOLikpwYIFC7jpQvT1o35LpntK93Gq/iKib6BX3xA1xgCQn5+P5cuX8/xlA2WSkUgAYNeuXcjIyOCVO7yKPrvT4gwEpE9WN0IRewcPHkReXh5qamq4arQrfKDEwTg1NRVA++qgoKAAlmXh8ssvxxVXXIH09HSHucyyLBiGwQUJcdIhAYvK5pCARQkTyckXAM+rRMlCDcPgJpTekt0pq3ZhYSG/P0Si9BgAMGPGDLz44otQVXXAdXKJE2oXP/nJT/DMM884zO5kTicBiIphP/HEE6edbZrMzYmid0U/v/z8fPzhD3/g/VS2QclAo7S0FLZtIzk5GS0tLdwiEovF8NJLLwHoyKk4kNq/1GR1EW4HPhqQDx06hO9973vYtm0bADi0RGJ9MhFK2pmamork5GSMGjUKgUAAl19+OXw+H0aOHAld13HFFVdg6NChjizQYljsYPXpKC0txbx58zy/UxQFoVAI4XAYmqbB7/dj5syZXIUtGVi4AxZisRjef/99FBUVYevWrY5tyawsmt+XLVuGn/3sZ6c16BuGgdtuuy1hLiyChP7U1FTs2LGjXydclEjciK4pGzZswIwZMxzf01yZkZGBmpqaAdv2pZDVxZDQZJomWltbcd555/GoPzJDkJlP0zSMGzcO06ZNQ2pqKi699FIMHToUPp8PQ4cOTejH4ZVRWizKPFAb68mwLAv79+/HqFGjOt2O0jwEg0HMnz8fd99996C9Z4MF0taWlJSgtLSU90eCzIXicFhTU4Ps7GwAJ6/nKW5TWFiI55577qTbU1Jer8hWiaS/Iy5wKKJdhEqXHTx4EOeff/6A0l6JSHNhF0J5nBhj2LVrF3Jycnh5mWAwyKP5qCZTZmYmqqqq+H6UWiAQCHChScwaDXT4FbnrCg60UPszwTRNjBkzhguabi0h5QpLSkpCS0sLZs6cibvvvhvHjx/n9fskAwsyfSuKgkmTJmHnzp2eZnoSrlRVRVpaGmpqaniiUb/ff0p+WKqqYsmSJXjuuee46bEzpIAlGciQyf3222/3nJui0SgWLlyI4cOH4/jx4wNWyBo4Gb/6AKqqwu/3Y8OGDfja177mUP9TBmdqSLNmzUJVVRXC4TDfD2hf3boznNP+RFtbW1wSzcEuYAHA17/+dR5sQOHwIm1tbbBtGy0tLdzJmPzQpIA1MNE0Da+++ir8fj927tzpKEruRtd1TJs2DfX19VzTfDoRfmvXrsX999/vqKbQGfv373cUwZVIBhK2baO2thbPPPNMwvlp9uzZADCg63BKIauLWbZsGQoKCngJDprsKblhLBbDokWL8NxzzwGAZxSbGMFHOa1EISAUCsnwbjirtN9///3YsmUL1wDGYjGkpKQA6Mg0TJGQc+bMwfPPP8/NQ5RXSzJwiEQisG0bt912G094S1GnNOAHg0HeP30+H9auXYuKigrHcU7Wzyh6eM2aNZgxYwZPuiv6aNKLFgC2bWPTpk0477zzTitaUSLp64jjKAWXUBoU+o4id9etWzc4KhowyVkRjUYZY4yFw2FWVFTEVFVluq4zAEzXdaZpGv8/FAqxV199lVmW1ctnPbCoq6tjAJiiKI4XAAaAPwO/38+Ki4sZY4x9+eWXzLZtx0vSvxGf4erVq5nf72eqqvL+524j9Hl6ejo7fPgwY4wx0zRP+/c2bdrE/H4/0zSNv1RVZaqqOn6PzqW+vp6PGxLJQEGc1yzLYkuWLGGqqjrGX+oHGRkZLBKJ9OLZ9hzS8b0LsG0bRUVFWLlyJSzL4r4/ZDIg2/SaNWtw3XXXObRUkjNH9LchZ3YRyhtGuYgmTpyI9957j3/vbvryefRv2Akt1cyZM1FRUeEIMgHAE4yK3HjjjXj22WcRDAYdBdpPxdGdahN6maYZc0YbA+3JFWtqajB27Fhp4pcMeMgvkfoVY4z7N7a0tAwaa4x0fD9L2tra8JOf/AQrVqyArus8DxZjjJv9YrEYXnjhBUybNi1hMVnJ6eP3+5Gdnc1TXrgRCx+PHTsWq1atcuQEkwwsqqur8fWvf52XfqJnTQO9+5mXl5fjuuuu4xneT0fAAtrN9l5RU4lYsWIF0tLS+G/INigZaFDfKSgo4HMdO2EiT0pKQiQSQWlp6eBq+z2tOuvvWJbFzUuWZbGf/vSnTNd1bn7w+/3cLEHvGxoaevu0BxSGYTDDMNiiRYu4yYfU0OILgMNEI+n/2LbNotEoNzVEo1H2+eefs7lz58aZi8lESP2R3s+YMYM1Nzef0e9Ho1FmmiazbZtde+21/PjU1sSXruu8/S1durQrb4NE0mfZunWro1+Ir4yMDNbW1tbbp9ijSHPhaSCucPfv348f/vCHeP/993l2dNu2eYkbMlHt2bMHl1xySS+f+cBj7dq1mD59OoCOHEdeZXMAYNOmTZg8eXKPn6OkaxFNv2QqrqiowBNPPIEtW7Z41gKltkGsX78eP/jBD6Cq6mmbK8RyWNnZ2bzGpVdNTACOSGKKZJVIBjJUiioQCPBIXpE1a9bg+uuvH1R9QZoLTwNqGEeOHMHVV1+NtrY2Hl1EAzz5BlEWWypFY5omQqFQb57+gIAxhqamJhQWFvLCoowxz4LbAFBZWSkFrAECmeYoK/vMmTOxdu1aXgrHC3bCD8Q0TYTD4bh8c6cDpWHJz88/pSLijDFcccUVePrpp2X0qmTAE4vFkJ+fD13XPQWsoqIiTJ06FbFYDD6fb9BE1Q6Oq+xC9u/fj5EjRyIcDjtqnGmaxvPjpKeno76+nu+j6zoCgUAvnvXAQVEU3H333TAMwyFgeU1ic+fO5douLwFM0j/ZsmULAoEAXnrpJUSjUa7hcrcB6nMLFy7E0aNH+XuvOoKnQjAYxCOPPIJVq1Yl3EYU9tLT07Fr1y4Asv1JBj41NTVYu3atIwWRSElJCc8JOVgELEAKWSdFHByrqqpw6aWXcrOBbdsO02BKSgoyMjJQV1fHvyMGU6PqKug+04QYi8VQWlqKlStXcqd2RVFgGAafbP1+PzRNQ0ZGBpYvX+7IhSXp3zQ2NqKgoADXXHMNNwWKr2Aw6CiPM27cOKxevRq/+c1vcO655wLAaUf2UrsC2h3l77nnHs++7DZLTpgwAdXV1fy93+/nWm83dL4SSX/Fsiw8/vjjsCwL4XA4rj0vXrwY559/fi+dXS/TU85f/Z3KykruvBcKhZimaTz3FX2en5/PGGt3jjcMo5fPeOBA+VdefPFFBoAFAgHPvFgUbKBpGquqqpJ5sPo5hmHwfFKLFy9miqKwQCDAgxzcz56CTgCwsrKyLvl9ajcbNmzgubDE3xEDLuh9VlYWY4zx4BjTNE+aF0u2T0l/hAJRKFch9QExR92ECRMGdW5I6fh+EhhjKCsrw7333otAIABFUeLszZqmYf78+bj33nt56gbJ2cNOaCtisRiampowcuRIrpFyF/gFwAtxl5WV4ec//3mc9mowOVsOFOrr6zF58mREo1Hugwd0PEtx+GKMITMzE2vXrhLxUOEAACAASURBVMXIkSN5nqyz1SLX1tYiNzcXQHvutUAggJaWlrhcV+yExjQ1NRU33XQTLMvClVdeiezsbF60nNo0acfEOpsyd5akvxGNRqFpGg/+EjW6ZJbfu3cvLrvssl4+095DOr6fhMcffxwlJSVgjCESiTgEqGAwiEgkgvnz52P+/Pn881PNsyPpHDFKKy8vD0B7x6VC2+LkBLQXiM7IyMBdd90l68ENAAoKCvDSSy/xAum2bXO/qmg0GmeSePDBBzFv3jz+vehce/z48TOqj3b48GHk5uby9hSNRj39q+hcGGPYtm0bGhoaAIDnxKN8eQCQlZUF27aRmpqKiRMnIicnB4qicEGur0ICokRC+Hw+LF26lOelo8jfIUOG4Msvv8SiRYsGtYAFAFKTJRCLxRzaj9LSUpSUlMC2be5kTUIWOfeVlpbijjvucDi2y8Goa6Dn8cADD/DCu25EYcrv9yMSicQJX4R8Jn0Psa/Q4mT16tXIy8tzJO1lQg1AoF3wpvaRmZmJ9evX44ILLog7tsjJnj/9PqViCQQCPGrV5/M5Cj8zIcFiOBwG0N7+RAHMvdDy+v3Oht+cnByMGzcOl156KQDgqquuwuWXX46UlBT87W9/w8UXXwzbtnHxxRfHnT8JdZRoVVwcWpbl6DeJHJUTnZ/sRxKgvW0cOXIEw4YN4++p/SUlJcE0TTQ2NuIf//EfB7WFR2qyBMT8O4WFhVi9ejUfcIGOwcg0TViWhdraWmRmZgJwaq/kINQ1aJqGt956i2sJve4rdWpFUbBmzRq+jWVZnuVOJH0PErTWr1+PBx54AB9++CGSkpJ45QS3GQLoyOa/cuVK3HDDDfz92SAKJl9++SXOP/986LoOVVW5cOXWkIbDYQQCARiGwfs/ma29rvN0qKqqQnV1tWPRQMegYufp6ek8N9/48eNhGAbS09NhGAa+//3vw7Is5OTkAAAXtkiABJx9yn1tsjKFpDMURcEPf/hDh3lQjLJfsGABhgwZMuiDOqQmS8AwDOi6juzsbGzfvp03GPoOAA8/fe+995CWliaj1roZyjtGuY5EyIwUi8XwjW98A2+99RaADtPQ6WoyJD0LYwyxWAxHjhzB9ddfj5qaGqiqCp/Px82B4jMjYScUCiEvLw9PP/00/44WR+7ji5zq87dtGw0NDXj55Zexb98++Hw+fPDBB9i6dasjsph+gxZY1FY1TUtYyud08Pl8iMViXAvAGIPP54NlWVzoI1OkZVkIBoMwDCNOKAsGg47F4qxZswAAY8eORVpaGiZMmABN03DhhRcmvFdSOy9x8+ijj2LevHlxPsqkXf7LX/4iUxdBClkOGGO45pprUFVVFWeWIJKSkrB9+3YMGzaM+3jQtnIQ6lpowjVNkxd7Fpsr+egwxrBy5UpMnTqVC73SzNH3YYyhsLDQkXeK0qFQBQURerZ79uzB0KFDEQwGT3p8kVN5/qJG2i1YkEBF2x06dAhHjx7Fyy+/DE3TUFlZCdu2sXXr1oT1NE8HEtjEdi9qC8g0KSZopb5CGjnxPR2DzDaWZSEpKQmWZXHhTGTu3LkYOXIkxo8fj5EjRyIjI+OsrkfSv3H3h6ysLGzduhXnnHMOjh8/DgC8737yyScYNmyYI1BpsCokBrWQJfow/O1vf+O2ZUJUzdOAdujQIZx77rnQdV1qSroYKiiqaRrmzJnTadJHoH2y0HUdo0ePxpYtWwZtJ+7LiOY+0V/o5ZdfxtSpUz23p4UNCQ0k2Fx33XVYu3Yt19D0tM+du7+frP8rioJwOIy9e/fio48+gq7rqKioAAB88MEHXGM2fvx47N69G5FIBAAcWiuK3hLza5EZjz4LBAJcUyVqtsT7RNow0rKJpnTSup0uubm5Dp+xyy+/HKNGjcJFF13EF0jnnXcej5pkJ/KE0djpJcCSUCn6iInvvfzMKIO4HH+7F/GeP/TQQ7jnnnv4d+QvGQgEMGfOHDz55JPSJ/YEg1rIIqqqqjB58uS4RkCqedu2MXv2bCxfvpwnFXT7iACDtxF1FTSYrl27Fnl5eZ6JG0Xo+WzcuBGTJk3qobOUnA3l5eV44IEHsHPnTk+TlJeANXfuXNxxxx3IzMyMc9AW+2BPC1mnAp0T+U0RqqryhZuiKDh27Bg+/vhjAMDnn38Oxhg++ugjWJaFDz74AKqqor6+HrZt46OPPuJjEAV60PnRglB0QhY1XXRvSTA5UwFLvB80Foplrug3MzIyoKoqJkyYgFgshjFjxsCyLIwZMwZJSUkYOnQoLr30UgwdOpTfH1EAMwyDXxNp8EiIFLf3uueSroXa0qFDhzBs2LC4vkjtKRqNJkzYOxgZ1EKWbduorKzETTfdBCBxodebb74Zy5cv54MXTQS0WnNvLzkzDMPA4cOHMWLECL5a7WwStW0bmZmZqKur8/TJkfQ+NBlWV1fjtttuw44dOwCAa1RE6JmTtgMA/vKXv/Dak+5IRMDZJvqakJVI4wZ03Je2tjZHTVP6nP6KWhz67LPPPoPf70c4HEZSUhI+/fRTvP3224hGo9i5cyd8Ph9eeOEFh9aKhCqgI2jgTMsLEXRcOhbQ8VzoWdJ7sTKGaZrczE9mYbpP48aNg6IoSE1Nxfjx43HVVVfh0ksvxVVXXcX9e8R7RMeW9AyxWAyhUAiWZXkueCoqKngpMyn8tjOohaz6+npkZWXx9+5GoOs6brzxRqxcuRLAyZ1rB2sjOlO8JqBEq1PAW8jasWMHxo4d6/m9pG8gRtuJCxQv8xt9T7nnyOzl8/m4hoRMRj09iJ+JkOWVEJWEBHE86cwXLNG50H1wRwjSvSUHeNL8NDQ0wDRNbNy4EaZpOsw9Z4KosXJft67rXIhUVRW6rvMITK/txQSt4ueMtRf4Fp39/X4/xo0bB1VVkZeXB8YYbrrpJowYMeKsrkfSOYwxPPzww/j1r3/t6XM4c+ZMrFy5ki8cpJDVzqATsmj1VFlZifz8/LjvxdVRXl4eF7AkXQvZ8Mls4vf7UVBQgMrKSh6t4u6UycnJaGlpcZiUKOpT0rdobm7GvHnz8PzzzzvqTIqI5iblRO3B6dOn49lnn/UUwgbrIN1VnOx+WpaFw4cP49NPP8WhQ4ewa9cuvP/++7BtG++//z62bt3q2FdRFAQCAUQiEU8BlJyg6bdJ6PT7/fD5fDy/mFf2fq/zO908Y5mZmUhNTQVjDDNmzEBrayu++c1vQlEUfPWrX8WxY8dw3nnn8e2p0LiXz5gXboEW6PAZI/OwqOHrjxn9ReH/s88+w/DhwwEgzrRrWRZ27dqFMWPG8EWF7L/tDCohi+z7Dz/8MO66666EanygI3s0DRIyg3v3UlpaigcffJAX5PXyeROjoyzLQkVFBa677jpHVm1J73Lw4EGsWrUK99xzD/cRIodud38T80qNHj0aTz75JHJycrgALQfpnocWP17JIxljME0TsVgMpmli79692LNnD5KSkrBjxw589NFHDoH6ww8/hGEYPPu9GNUocqpC1ukiJoclTRn5+pFgIPqMMcYwevRo2LaN0aNHw+fz4aKLLkIoFMIVV1yBUCjETbQiJFCRCY1ykSUal/pLOgxRC0u+katXr3YsbOnaCgsL8Yc//CGhgAUM3v47qIQsACguLuaray9bvqqqKC8v55FPYvi0tP13D3V1dZg8ebIjOsqdrgHoWBnTanPfvn24+OKLB3V4cF/BsiwUFRWhsrKSO7/Syp2i5Lw0E5qm4d1338WECRN4SgbRf8i9vaT78Ir4E9+7+xkJFe59SEN9+PBhJCcno7m5GcnJyThw4ABisRjefPNN3H///XGpb7payPIaP2iMcQcvuc2Y7ojOtLQ0nHPOOVyIvOqqq5CamorU1FQoioKxY8fiiiuu4PfFy4m/vyFex5YtWzBlyhRHeSig4z4ZhsHLWCUSKfrrfThbBpWQlZqair179/LVjVtoCgQCeOutt5CdnQ2gQ0p3l6WQnDlu52VVVZGbm4stW7YA6HDG7axZ6rqOsWPHOswXkp7Htm0YhoEnn3yS14ukiZe0kT6fj+c4c9f8W7duHa677rq4kH0Zvdu3EdNyAB31RMmZ3f38aDv6a1kWrrnmGlRXV/P9aduu9HEldwJRYKLs/EBH7Vlqp6R9EoUtEiJFDR9tI5oFRYFM13WMGzcOtm0jLS0N48aNw3e/+11ccMEFGDJkyBnV0Owt6HmMHTsWH374IdfSAe05IyORCD755BPuD9fZuD1Y+++ArDvitSLLzMzE7t27AXQ87EAgwP0CAoEAGhsbce655yZ0xpZ0LaqqoqCggAtY7u8oBFwUpsgEMGPGjJ481UGJmLeM3ovJBf/3f/8XeXl53MRL0P+Uu6itrY1rqRhjmDt3LpYvX87fJ6rxN1gH5b6MmN2eiEajjszeYk4rclqniEKgfTz9j//4D14Ymxzj29rauLZ61KhRSEpKwgcffMCF80AgwFNEkKaToicp3UcwGOSCTzQadfiFiXUmAXAzNplGY7FYnPO9KEySAEHbkNnRXSfVNE1uIt2+fTsAeAYZMMZw5ZVXYtKkSbj66qsxevRoXHbZZUhLS4u7x+L5iPdYfCbicem8OvMxExez9L07QANoXwzt3r0bKSkp+PLLL/kYHA6HUVRUhBEjRnhGG0raGXCaLHdjOnLkCL773e9i+/btCX180tPT8dprr+HCCy+Mc2CUdA1uR3dN07B27VqHsERRaDRARKNRrqIXV5iqqmLjxo08tF/SPYhaCeoXn332GVasWIG1a9di27ZtDh8cr6FEzHeVn5+Phx9+GMOGDXNMTFKY6h8cO3YMf/7zn3HZZZc5Mu5T4Iqqqmhra8OIESPiilVTOgdxTC0uLsbTTz/tqKpB7WXVqlU8tQ75gtXW1kLXdTQ2NmL37t1oaGhAKBRCQ0MDF8DC4TD27NmDQCCAlpYWAIgTQETcUY1iW080X4jbdiWkeRPzjqWmpkJVVaSmpsLv92Ps2LEYOXIkAPD7fNFFFyEQCOCCCy7w9BlLhFvTSJ+J19/U1IQRI0YgEAjwgCTxee3duxeXXXZZwv4vMlj7+YASskQ1dSwWw9GjR/Ev//IvqK+v94xEY4whKysLa9euxSWXXMI/p5WTzLvU9ZDwKqbPSElJQWtrq0OIWrRoEe6++26+oqOoJEVpLydy4MABHuki6RluvvlmrFq1ik+YYu4jr4LI9P3cuXOxePFinH/++XzFK6YvGKyDb3+jtrYW/+///b+4lAv0LEkoT01NhaZpqKurA+CsrCHmQCNNF+XUonZA6QEMw4Bpmp6LXbeWFWhfULe1tXGrBGPtCV0//fRTGIaBgwcPYsuWLdi2bRsA8PQQNF+cStoMka5utzQOin1KXFySWVO8j6TJu+qqqxAKhXg/HDNmDHfqp2dGhcK9zj3RtY0fPx47duzg1QLoXvn9fixYsAB33XWXw+m/MwZrPx9QQhYRjUZx7NgxXHjhhdwZTyzPQWRmZqK2tjaubAN1PknXQ07N1GFFvwbRR+u9995DbW0tcnNzYdu2Q9WfkZGB+vr6Xr6SwcHx48fxn//5n7jvvvscJV7ItNBZVv60tDTU1dVxs6F7le21kpb0bSjNSiQS4cKPqMmKxWK8TRQXF+Opp57i25DZSjTP1dXVYcqUKTwIwufz8dxalAQaSOxkLzqxAx2LOLdA5zazUd4tRVFw+PBhNDU14e2338YHH3yAqqoqfPDBB92uyRKd7ukcyU8sFAqhra0tzrdNVVWHZhCIr69L+5BgRBnY3eebm5uLSy+9FOPGjcPIkSPxne98B+effz7/vcrKSsycOdMhIAPgGrX6+nqHafJk92Ow9vN+L2S5HakjkQi2b9+OKVOmeG4LtDfKK6+8Ert27erRc5V0RKE999xzcckXaQA+cOAALr74YjzyyCO48847AXQ4rCYlJeHGG2/E8uXLpa9cFyAOkjRJxmIxBAIBPP7447jzzjs9E0UCcGgkAHDzUSQSQW1trSPRr6T/I9Z4dZuVEuWAampqwrnnnutwihf9fxhjmDRpEmpqauKcznVd535TXomguzr6MNHxbNvG0aNHsXfvXvzpT3/CwYMHUVtbC8uysHPnzjgtrtvc6I5ipGO6IXcJ93kFg0EuVLkDS+j4Xsc7lTxjp4P4Gy+99BI35wKnlqh3sApZ/drxXdRAUaN78803cf311zuKOhO0Cp89ezZfYUl6lsceewzPPfccf+8erN977z1cfPHFAMDV+pqmcVOvYRg8YkhydoiCFQlMzc3NeP755zF//nyuaaRVsVjnTlGUuLp3Y8aMwYIFC3Dddded0qAr6V+oqoqhQ4di5syZJy3eDrT35+uuuw5vv/02gPgyQzRpP/bYY/j2t7/NfX6IaDSKpKQkbgLs6jZ1KuZBEgbPPfdc5ObmIjs72zH2iH3n8OHDaGxsxF//+lc0NjYiHA5jx44d2L9/Pw8A2blzp8McKmqYxLqPQMf9oeLfABymud7oY8FgEDNmzHAIWJLO6feaLJGSkhIsXLiQm568pPulS5fi5z//OffxkfQcYsZgoCN0W1EUDBkyBE899RR+9KMfcR+NW2+9FU8//TQA8Geq6zpKSkrwq1/9SgpaZ4mYlbqhoQGLFy/GunXruHlB1DqIiEOGqqpIT0/HvHnzMG3aNADtmizSakkGDmLWcq9oNnc7Oeecc9Da2oqHHnoI//Zv/+YoIeTe/pZbbuGmQYKSf77yyiv453/+57jz6W7NiJiqQixKLUYZ0rhECxGCBCHTNHkfs20bjY2N0DQNR48ehWma+Oijj7B//35Eo1Hs3r0b77//PgzDwIcffujwFRO1VW5htac0WYqi8HqyonB5qiLEYNVk9Xshi1bjBQUFKC8vd0j97of60ksvYerUqVK46iXI70IcvOgZzZ49GytWrADQMWhnZ2dz51mRhQsXYv78+T167gORaDSKN954A9OnT3cIXGQupM8CgQCOHz8et39GRgbefPNNDBkyhC9aRO2yFIIHFtRnY7EY1q1bh5kzZwJILGTRxD9u3DjU1NRA0zTHxKwoCs+vtXv3bqSmpsb9pq7rUFUVX3zxRZwDfE9M2pTWIRAIOPIlhsNh6LrO/aFONRJd1ATTtdPvUP+LRCJcc6coCj777DPU19cjFothzZo18Pl8+Otf/8rzjPWUkKVpGi/YLhY2l0LWSWD9ENu2+f/hcJjl5+czVVWZoiiOl67rDABTFIVVVVUx27YdL0nPEI1GWVZWFgMQ91IUhWVnZ3vuR89P0zTH39LSUvn8OkG8N9Fo1PGdZVmMMcbmz5/PVFU9pZeiKPx5+f1+pigKq6+vl/1okEHP2rZtZlkWbw9iu3C/gsEgA8AeeeSRhMei19y5c1lSUhLTNI33ddq/pKTE8du9QXfPH+7jn+xFWJbFDh8+zD755BNWVlbGysrKWFFREcvKymKBQICPswCYqqosEAjwsdXv9/N+Tt/T/7QfHYOewZme82Cl32mymJBAjSJQSAPiJSkzxlBfX4+MjAyZQbqXeOihh3D33Xd7fpeUlITXX3+dhxmLz+jmm2/Gc889Fxc9k5+fLwt3J4AJZgRx5W3bNrZt24bf/e533CfuZCHXlAWb/LLGjRuHe+65B9OmTXPsK/vR4OTQoUO46KKLeNTZydICUHRqZ8WDSWNExxT7/tGjR/GVr3yl13IYdvf8cSZTsRhV6ZXA1B0wsGHDBqiqig8//BC2bWPt2rX8XpumiR07dsDn8/F5NhaLITMzE7/5zW9www03OM71dK9/0I4TPS/XnTm0iqHVeWZmpkNb5X75/X62fft2xhhjpmlKybqHsSyLVVVVsUAg4FgdQdCKlJaWMtM0GWMdqyLLsphlWay4uJivZHVdZ6qqMk3TWF5eXq+tZvsyonZA1GC98sorbPLkySwUCvF7CGHVmuhF2xQVFbGamhp+PMMwWCQSkf1okBOJRFhhYWGnYzC1o2AwyDIyMphpmqy1tZWPxyK2bbO6uro4zbWu6ywYDLLZs2c7tu1p+pomy7ZtZpqmYyw8lfOKRCKMsfY5kcYJOtann37KDh48yLZv384aGhrYgQMHHMelv17zqdRkedPnNVnMo0QOOSLSSlvM3SPiLgLtvtRBK1n3IOSD5dXM5s6dyx3bvXwKlixZgt/+9reOVAGKomDChAm81I67fUja79MXX3yBX/ziF6ioqOBRTHSPqe+YptnpcXJzc1FZWYnzzjvPUTZFRN7/wUskEkFTUxNGjRoFIPF4Sm2EMYbXX38d//RP/5Rwu1gshtzcXDQ0NPCxmzQtmqahqakJQ4cO7YarOTndPX+c7lRM/nHkM0aQX6R438VzjUajvCwRaaTJP0wcI9zHo3M0TROmaZ52cMtgHSf6vJDlbjCff/45r5VEDUIs0ClmpZW1lHoHUud/61vfwttvv+0YPCjfla7rcRn43dTX12PKlCk8kayYdXj//v04//zzE+bnGcjQQEfCJ5kFDcPgDsmJHJFFkyzVIAPA68dpmoYrr7zSkexVXNhIJG4eeugh3HPPPScVEmhR3Nl20WgUR44cwahRo2CaJg+ooPQGwWDQUX9Q0rPIRdXp06dHTfGBKoqC2tpaXHDBBY5CnhRZ4ff7oWkaJkyYcNIVuqR7UVUVJSUlcQKWqqpcsPrss89OepysrCxHpn7Lsnh6gY0bN/IcM318ndDliNfMGMPWrVtRVFSEc845BwUFBfxzt3ZQURSHfwZpCqhc0fz58/H3v/+dF7el36As0xKJm1gshn//93/nmpGTbasoCubMmZNwG03TcNFFF2HWrFlcQxONRnmbN00TZWVlJ12gSboHKWCdPn1ek0VakZdffhkzZ85EOBzmak0xGaKmabj++ut5kjxZ3Ll3MAwDr7/+OqZNm+ZpAgSA0tLSU1r5KoqCiRMnYvv27TwxIWUkz8rKwltvvYWUlBSHg/dgoba2Fg8//DD27NmDuro6LgRRbh4Rd/JHCg/XNA2zZ8/Gt771LUyfPt3RZ6j8kRxUJafC+vXrMX369E77NLU727axb98+nnSYiEQiXFvd2NiISy65JC7lCy0S9u3bh4suuqhbr0ki6RK6w9HrbHCnZzAMgy1atIiFQiGm67rDARonnCI1TWMLFizoxbOWEM3Nzczv9/Pn437Nnj2bWZZ1So6TjDG2efNmFgwGHekc6P833niDMRafpmCgUl1dzYqKilh6ejpLSUnh95Tuh67rTFEUlpSU5OnYTtv7/X62ePFitn//fsZYhyOsRHK6UNsJh8MsPT3d0/mdXjjhHK/rOpszZ85Jj7148WKmaRrfl9JF6LrOiouLu/vSJJIuoc9pstgJlTCF+paWlmLevHlQFMWx0mYnTImxWAwvvviiTPPfQ1B4ta7rnlqOa6+9Fu+++y53tCYfLADcn4Ke26loGw3DiHOwFMO6qa0AHf57tm0jHA4jOTn5bC+3y2Cu7NGJthFTJqiqis8//xx33nknXnjhhbj9vLou7UeJX0kjRT6MDz/8MP71X/8Vfr9fBoJIzhqxDYl+gKfSlrZs2YLx48dz30CvJNE07pO50D6RXZ2d8MskbZiY2FMi6Uv0SUcLyvJLApY4oUejUW4yoszDUsDqGdgJE5PP5/P0iSgrK0NNTQ2ADn8fwzD44EsCFnDq5lxFUbBw4cK4Gl8krFDpDRp8gXZT1znnnOMoSNvbawnlRK0/MUrHq7CsoigoLy9HUVERFEXBRRddhBdeeOGk5lBxgmOM8WhbVVWRkZGBF154AYwx/OIXv4Df7/d8fu771Zfun6TvwxjDkiVL4hbEifja177WafWNSCSCTZs28Wg2WihQe7z//vsBOKPfJJK+Rp/TZNFKvrCwkCeipEg0WpkD7ZEqzz//vBSwehBaSdKEv23bNmzfvh1//vOfsW3bNmzbtg2KosDn8/GoNV3XYds2KisrMXXqVABAS0sLUlJSTvp79omq87quIzc3FzU1NXyyF7VZqqpi3bp1+NGPfuR5zkRf0dSQFpYxhqamJnzyySd45513UFlZifr6eh5FZRgG10x5TSTuriu+z8nJwdSpUzF9+nSMHj3aUcZEFJZPh75y/yR9B3f/OnDgAC655BJef7Sz6UVRFJSUlGDevHmd/kZxcTGeeeaZuN8LBALYtGkTMjMzz/IqJJLuo88JWQC4s7O7OKaYgfrNN9/EN77xDT55DEbn595gzZo1WLt2LT7++GNs3rwZABwalGAwCNu2eUQQ0F6X8LnnnosrKnoqkzYJF7W1tfj2t7+NlpYWx760EjZNE0VFRfif//kfR+SpSG8LCZZl4ejRo3jnnXfwpz/9CVVVVWhoaOCaW3c+KzHFQnJyclzourvrZmZmYvr06SguLsaQIUMQDAYRi8VgWVbCnDan0/17+/5J+h5eixjRAtFZpDdt/9lnn2HYsGFx35MJcP/+/Rg5ciTfxy1ohcNhqcmS9F26xrXrzGhpaYnLBDtlyhRHrTSccHamz0KhEItEItJZ9wyge20YBnc+F6H35JRuGAarqqpixcXFPODAXdNOfJEDNgBe72rSpEmOY5/NuZeWljqySLvPgdrK7bffHre/mNnY69rdiFmUTzW7PG3nznBcXl7OsrKyOnUKputyO6pTAAEFE4jXTt8XFxezffv2ed6zs820bBiGZ2ZuicQNtX/TNFl2dnbcWOBu76FQiAFgubm5rLW1tdPjzp0719EfxLnh4Ycf7qlLlEhOm14VssTJa8+ePWzKlCmepVdoQsnMzGSHDh3qxTMeONi2zdra2hhjzui8xsZGtn79epaRkcEncxKw3IKAVxkjGlBpcG1oaDhrAYuIRqNszpw5ngKWKGTR91lZWaykpIQ1Nzef0f1hrF3IoL9u4UL8jjHGtm7dypYuXcqKior4pOIusHwyQUt8aZrGJyK658nJySwYDLL09HRWWlp60mvoCoFIFFAZ8e0bFAAAIABJREFUO3WhUzI4MU2TrV692hH9GggEEhaPVlWVlZeX8/3F0i30t7GxkUfP0rygCMWLW1paeuVaJZKT0SfMhXV1dfjpT3+K6upq/ploJgSA9PR0vPHGGzjvvPNk9ukzhHmUKGpoaMCePXvw+uuvY9WqVXybSCQS5/fkdTw3YrmWjRs3YuLEiV2as8wwDDzxxBNYuPD/s3fu8VGU9/7/zMzO7G4IWm9FRUXbagVJQrK5EQW1p+0prSIg94RELrbHc2pfrW294gWUEBS1r9OXra1UkYsYIFxbj6/W02OVxIRcNhAu1dIilwhB7K8KJLuzM/P8/gjfh2d2J+GWe57367Uvwu7O7Mzuc/k+3+/3+Xzn4cSJE67XxPYSCAQQiUQAnKoIMHLkSAwZMgSpqakYMmQIbrjhBtfxV155JSKRCE6cOOEKzR0+fBhAayKuoijYv38/GhoasGvXLuzYsYMn94uq9BTmo+sSQ6pniq7rvKhuamoqhg0bhoyMDEydOhWXXXYZ/33a+n7pszoqzLdv3z4etpFITkd6ejp27drF23C8bp7YF0aNGoW3334bSUlJiEQiCAQCsG3bJThcXFyMefPm8d3Jov7bjBkzsHTpUjkvSHoc3W5klZWVIT8/n+8eAU7F3Q3DgN/vx/e+9z2sWrWqzW2+/Yl4Q+lsaWpqwpIlS7B//37U1NRg586dAMANI8ptYx6K4YDb2IpvOoqiYOjQocjPz8esWbNw0UUXtSn1cD40Njbiuuuu8xTdvPvuu7FmzRqecC+WW6LrJ6PHa4cdGfAk6kntkM5Du/bIABLzpuLPA5yfoZOWlobJkydj9OjRuOqqq3DVVVfx6xMT4alGp2jMne9nA625Mlu2bMHevXuxfv162LaN6upqmf8oaRNxfDJNExdccAFftMW3Q3ov9aX/+Z//wbe+9S20tLRgwIABrvdTvmIgEOA5uJTzRX1w27ZtSElJ6dL7lUhOS1e6zcQwg2VZbO3atSwQCHAXMIlOBgIBnoc1c+ZMz4rt/RXLsrgbPf47MU2Tmabp+p6bm5vZhg0bWH5+/mmFAnEynKVpGg+7Ua4VPcRwHACWlJTEsrOzWVlZWZdVYTdNk40cOTIhZBgIBFh1dTXLzc3l4UoKJ1B44Wxyos72Qd+h3+/noVP6zsS8QvpeSVQ3/tj169ef0/cS/z23lXMX/3+xvSxatIh/f6LIqaZprKSkpM22J5F4MX/+fFfI/HThcaKt9nXo0CGevqDrukv4ODs7u6tuSyI5Y7otJ6u0tJQbWGIyo2EYXLF65syZjLH+o+jdHqKxYlkWzwNi7NQkaZoma2lpYZ9//jkrKSnh32l8XlV7RgYZJmKOk5jQTsbwY489xg4dOuR5fZ1pZJmmyaLRKJs+fXrC/WiaxrKzs1k0GmVpaWlMVVVXTl9XGFnUlsWEdfH7E9s3PaZMmcLq6ur4b9kROU9tfd/UfhzHYUePHmXz5s1jGRkZrsmK2gpdHxnYjY2NjLHz38Qg6V/k5ORwtfbT9T/aKNPeeEE5j2T8i22V+pFso5KeQreECxctWoSHH37YJSh5/PhxAOAu4KeffhoPP/wwD4vI8ERi+Me2bXz22WfYu3cvDh48iM2bN+P111/nWlUU7hOFOtsLHTHGeHiPQmGqquJrX/saRowYgXHjxmH8+PE8TBWJROD3+2FZ1hlpLp1v2JAxhmg0Cl3X8fbbb2Ps2LGukCVd/+eff45AIIDi4mLMnz+f30u8+GdnXB8TNLDE8yqKgrS0NKSkpOBrX/sabrvtNuTl5fF2TSG48xFWdBwHsVgMqqq6pDI+/fRT7N+/Hx9//DF+//vfo6GhAfX19UhOTobjODhx4gS/blVVeWhUDEtOnjyZ69bReTs6DCzpe8QLRrfXZqjtlZeXt5vLSVpclNYAwJXa0A1TmkTSJl1uZP3gBz/Ab3/72zZzWTRNw6pVqzBp0iQ5kMdBCaQNDQ3485//jN27d6OqqgoffvghnxiZkEsllrRRVfW0gw+9HgqFMGHCBNxwww0YOXIkBg8ezBOsyWARjQHGGFpaWhAMBts9//n+lqL+lXKybIyXMTN//nw8+uijAFrzt95//32UlJRg+/btXXJ9mZmZcBwHd999N1RVxTXXXIOhQ4ciLS0NpmnypPy2tKvOx9CKxWKoqanBO++8g/3796O6uhoNDQ28pI+4OaAto8owDFiWxa/TcRxUV1cjLS1NGlmSs4YxhszMTNTV1bXbZkgHMTc3F1u2bGl3Yf3000/jqaeeAnCq39Hi4rHHHsPcuXNl+5T0DDojZ0ZEDE/MmjWLJScnu1y9FEqh8FRFRUWfzfcgLZj4cBBpUtHf8ViWxd58802WlpbG83bE8B99f2JhYAAuF72maczv9/NjNE3jeUoA2NSpU1lFRQWLRqOeGmSd2UbOlPjwY3Z2tit3SGxXXkQiERYOh1l+fj7LyMhwaU55bTEXc6joIb6Wnp7OZs6cyZYvX862b99+RiHT+P5G/YP+9oJCiPGvkwTHBx98wGbPnn3acGj8vbR3b+L7U1JSOuonlPRTampqeEiaQnxiuJ/yEykHlLSv2htzxPGL2i+lRvz973/vqluTSNqlU40sMVdozpw5Ls2f+IFdVVVWUVHBGDslltlXESdYUcCyubmZMdb6vR0+fJjNmjXLlWwuJqPHDyxiXhv9LWpWxYv45ebmsoULF7pyF1paWlzXRNfVWQnsZ0v8dZSVlSUYCvR9ffjhh57HM8YSNgdEo1F2+PBhdvDgQddj3759rKmpiTU3N5/VfZ+NkeXVzuk3ICNK5MSJE2zjxo1sxowZ/Ldvz1A6HyOLFkE1NTV9uj9KugZaJFK7Ol37jEQirtxTEcdx2MKFCxPGQlp8FhQU8PfSuCqRdAddEi6kMjm2bfPQBGn8kIZRfX09UlNTEYvF+qxMgxiyYULuTmNjIw4fPow//vGP2LhxI6qrq+H3+2GaJhzHcelV0fdF5/FyiYv5PVRDLDMzE1/96lfx05/+FOnp6fw4+g3iw1NijkP8Z3SXGz6+qdL2bQA8dEh1LouLi/HII48kHE9aVkQsFoPjOPD7/Z6fdzb3erZdiQl1CWOxWMI1lJeXw+fzYcuWLVixYgX27NnD86fE8jsU9mOnKeTs9Rrdn9e9Ur7kZ5991mf7pKRrURSF53HGjzHKSWkG0shauHAhfvKTn7QpG8MYw8CBA3lKBOlqUR9fv3497rzzTin9I+lWOtXI2rp1K+677z40NDS4xOMAcP2h4cOH4w9/+AMuv/xyAP2jorrjONi5cyfeeust7Nq1C6tWrYJlWTzp3HEcWJblErjUdR2MMW6EeiVxi5pQKSkpyM/Px5VXXolRo0bhsssu4+cRESdXMs5M03QlsvdUI0tRFIRCIdTX18Pn87ny0tLT01FTU+N6fywW43kfPp/P1c682p2X4UHXIBo0bRm7p4OOiUaj+H//7//hL3/5Cz7++GPs2LEDe/fuRXl5Od/0QQa5bdsJ+mWKorSZ4+h17fGf39a9GoaBAwcO4OKLL5YbTyTnjWma+P3vf4+7776bLyIJMVdQ5PDhw7jwwgs9F0GKoqCxsRE33HCDSzyYNPKGDRt22jxMiaSz6VAjizwsqqqioqICo0aNcr1OExmtWEKhEKqrq3tdgiLdByWDUyFTQpx8qVDyJ598gqVLl+Ktt97C1q1bPRWQ4xGTksVk6Wg06hLJpAnyySefxK233orRo0ef87211xx64u908OBBfOUrX+HioeJ32tTUhMsuu6xdVfTzgb6r+N8xGo0iKSmpzWMsy8K2bdvwv//7v1i3bh22bt0Kv9+PWCzWrrfpfCGDXRT9jf8cMkIVRXEZqv1h8SPpfBhjuPnmm1FTU8PHLvE1EfJK0bwiQv83TRP33XcfXn31Vd62dV3ni8V169bhrrvukhs1JN1Gp3iympqacPnll3sOyrQiTk9PR2Vlpas0Qk8fxMl7Ee++Vk6qh9NETvdUVVWFV155Ba+//jr3EpHhRKHD9qDVHRlTNNgwxuD3+3HjjTfiwQcfxNSpUzvsu+tNRhb9HuTpIeg7euONNzB+/HgYhtHp106/KRm/4vMAUF9fj5deeglLly71lEvwCtt15DWLhqCXgS96Tem6a2pqEAqFZLhF0mEwxlBWVoZJkyYl7Hhua+z55S9/iR/+8IcJO4npGEVR8KUvfQnHjh3jz4klqSzLkm1Y0m10uJG1e/dupKSk8Pi4CK2S09PT8f7777tW+71hpUGGEYXtyHvlOA4OHTqEQ4cO4b333kNpaSn3VpFeFYX3dF2Hqqq83t3poMECaJVWmDhxIm677TZkZWW5Jsv+aGQR+fn5WLNmTcLKOD8/H6+++ip8Pl+XXLtt2zh69CgYY1i2bBm2b9+O1atXIxaLIRAI8Jyw+JBfvNHTGdcqhhxJS4v+TyQlJcG2bbS0tCAlJYWHWsjAl5OUpCNwHAe33HILqqqq2jWyKBeVFgDxRpa4MF+wYAHmzZvH+5fosZ0xYwbXD5RIupoONbKeffZZPPTQQzzZOh52ssjnD3/4QyQnJwNwGy7nmtvS1UQiEfzrX//C+++/j/3792PdunWoqKjg1y4mIdO9iV8z5V6dThwzFAph7NixSElJwciRIzFo0CD+Gk2UNFl2FL3JyKIwbW1tLXJycjzDr16hho7i6NGj+Oijj1BZWYm//vWvqK2txc6dO3mdtXgDmLxXlFfn8/kQjUbhOI4rp6yzSE1NRXp6Or7+9a/j4Ycf9tzsQDlgy5cv5wKSnRVulfQ/2ElB4W3btiEvL8+V4+hFMBiEaZrIz8/H0qVLAcAlfixGQlJTU7F7925+PjqnruvYs2cPrrnmmk69N4nEkzPdhng6nnnmmYQyI7SlFie37ZaUlLi2z4vb2btri/iJEye4ZITXNYj6RDU1Nez5559nI0aMSNg6j5PSFOIjKSmJbzEWtZzE70V8LjMzky1atIjV19e7StZI2sa2bXbo0CFePid+SziV2SBoS7ht267t4aZpumQaxL+pXNHf//53tnr1ajZr1iw2YsSI0+pSne5xujI9omQHaZ5RO6Pn25Jm0HWdZWRksOLiYhYOh9mhQ4eYZVnMtm22du1aT8kGsb6jSHdLd0j6HpZlsRkzZiRIzbT3oLJOpOMX3ybFdh1/7MiRIxljp2RqJJKuokOMrKKiIs9JQ2zka9as4QWMGetZ+kvixEvQ32vWrHFNqPGFfr2MK/H+6b1ijS0ysgzDYHPmzGFVVVWu+oxyEDgzxN9r1qxZnkbWyJEjXbpkJ06c4P+Pr/8Yb3g1NTWxJ554gt10000MaK3ZSIKK52tgncmDBGPj+1K8EC0ZY2lpaay0tJSL3hKkN0T3TcfFfx7QWvCbFkNEdy6CJH0bqu3ptWiNf2RnZ/OFglc9W8dxXG07/viysrJuuENJf+e8w4VTp07FmjVrPBPXKRS4bt06jBs3jsfKifiP7upwFCVGksZSLBZDOBzGkiVLsGzZMvh8Pr41WEwIpms93fWyky5r2l5vGAaGDRuGadOmYcKECXxXHL1XDJtKzo6ysjJMnjzZM2+DnhN12UgSQ1EURCIRHDt2DHv27MGSJUuwbds2LgvBGEuQRmhLt6ejofagqioMw+ClixzHwfDhw5GVlYVvfvObuPPOOxPypSjER/3Stm1YloVwOIzbb78dkUgkoZ1RCEa8X7o/2SYlnUFpaSnfuOMV7hfbnd/vx5YtWxAKhfhz8ePl3r17MXz4cPh8Phw/ftx1zoyMDNTW1nbSnUgk3pyXkUX1qGgiiMfn86G8vByhUIi/hzqFaZoJeR5dPZB/9tlneP/997Fr1y5s3LgR9fX1fBs91cGKRqMIBoNoaWkBAG6UWZZ12vMrioJJkyZh2LBh+Na3vsWT1YFTmk10zzQp0r/t1baTnIKMiAMHDuDaa69NSKRVFAVr1qzBhAkT+HPbt2/Hvn37sHPnTuzbtw91dXXYuXMnIpEIP14sjhwvfQB0TVulaxk2bBgyMzMxduxYDB48GKFQyGUkEqRvJvZFylsjA5Nep3ww8XjGGJ577jn85Cc/4e1UGlmSzoKdrHk6evToNo0fsd1R3iJpCMZDG0pmz56N5cuX83ZPhpamaXjzzTcxceJEudtQ0mW0a2SJhkC8pyozMxPhcNj1fnHVkJmZiV//+tfIzMxM8GB1FKLiNXU68bNohyMJfQLAmjVrsG7dOnz00UcJ1x/fcb1WVmR8WZbF5QMsy4Lf70ckEkF2djYmTJiAvLw8XHfddbjwwgsxcODADr93SSIjRoxAQ0MD12EjT5CmaXj88cexceNGJCUloby83HWcuJU83hMmcjrPq2EY3KhxHIfvdCKPEgCu30PeU9pZSO12xIgRGDp0KO68805cf/31GDRoEC6//PIEY+dMN4nQpKTrOjZs2ICJEyfye1EUBcFg0CXkGL8ruL3vQyI5H8jQqaysRF5eHoAz639Tp07FqlWrPM9J7ZqOFfsZbTSiBb6MGki6hPZiiV65QdFotM1cJHreMIx26051BnStVIyasdY8G8uy2Lx581yxeTGhuL1E5PYSi+l5VVXZggUL2OHDh7vsXiXelJWV8d9W13XX5gJ6Xiwqe7rf2itn6Uxejy96TvlV4nWoqsoMw2ApKSlswYIF7MMPP+R5T161IykX5Wzy9aj90zHi58dfCwD23HPP8c8UP7sn5E1K+i6mabLCwkJXv4rvl9SXaANI/IYWxphr3F+1apXrXGL/mz17tuv9EklnclbhwsOHD/NtsPG6JQQ9z06uEsgDxjph1cA8QhmO42DFihX405/+hJUrV/JriA+LeJWmiX9P/P2R9EIoFMJ//dd/IT8/H5FIBH6/v81764z7lrSN6Onx+v28NKLi/40/F3G61/1+P2zbdn2GGGJUVRUFBQUYM2YMpk6dCuBUfyHva3z1APFzz6UdUfg5HA4jJyfHFWoRw6EAcOzYMSQnJyfkB8o2LOls9u/fj7S0NPzrX//i5b/icyHF2q+5ubn405/+5NJajI+2ZGRk8GgF9S8Kkx85cgSXXnqpbNeSTsfTyIo3kABg8+bNGD9+vMuAimfatGlYtmwZAHdycHz+UfznnA/79+9HQ0MD9u3bh5dffhl//etfXa/ThCeGFhljCAaDiEQirvd6XcuNN96I3NxcDB06FKNHj0ZWVpbrvWK9P+BUzhbgDmee7nMkHcOiRYvwyCOP8NIaLS0tMAyDl9yJr5kmcr5GFontqqqKtLQ0pKam4qtf/SrS09MxZswYbnSJoQoKzyknqwZQHklH6FKJ/TcUCrk0vHw+Hw+b2LaNqVOnYvny5TJUKOlyaAydMWMGVqxYAV3X4ff7XWFsQkzheOuttzBmzJiE80SjURiGgVWrViE/Px/AqQUW0BrWz8jIcGkbSiSdhcvIEnciiTlUa9asQVFREa92Lr6fJrB77rkHS5YscZ88zjPUnreHPEIk1kglaMTJCGg1mt566y2UlZVhz549qK6u5vlQtMqhJGWfz8dX7pRMTq/5/X7eGUlVmOL2RUVFuOOOO3D99dfj0ksvxWWXXQYAMlGymyEjRGyfXobJuXpOycPJTu409ULM9zAMA5FIBGlpaUhJScHQoUPx7//+77jiiitw5ZVXnseddgz0HVRVVWHkyJGu5+hvIhwOY8SIEe2eRyLpTGjMBtx5kkRbye6E1w73nJwc1NbWeuYFl5aWYvz48T2+nJuklxMfP4wXB33++efb1ILCyRj6vffe6zr2bPI3xM9qS4tny5Yt7Je//GVCzgs9lJO6U/H6QXTd4nvF5+h9mZmZ7JlnnmFNTU2u66I8GPqXcmJkLL/7iEajPNePtHLKyspYbm4uCwQCCb/v2T7oeMMwWCAQcLUfancZGRls3rx5rLKykjGW2Gd6CiS8mJ+fz3Rd98xBBMBGjRol27Sk24lEIqy6upr3tdPlzGqaxhYtWtTuOW3b5uOCpmmuR0pKCn+PbP+SzsJlZMWLcj733HN84vH7/Z5G1osvvsiPPxsjq62kenqtrKyMhUIhV6IufSZ1Gvpb13VPkVDRCPP7/fw9mqax/Px8tn379javJV79W3bC7seyLJeRVVJSwkVdKSFW0zTXb32uhpb4yM3NZc888wz79NNP+bWQuGe8YUUDdldu+mgP27YZAJacnNymkVVRUcEsy+ruS5X0c6jP5OTkePbfthb5LS0tnudraWlhpmmy+fPnexpZiqLw+Uu2f0lnkZCTRcmFM2fOxPLly6EoCk8WjHerrlq1CuPHj0csFkNSUtJZi4uKGkfbtm3D2rVr8Y9//AMVFRW8mC7lU1FMnYQ9SUZB13UYhoHjx497foaqqrjpppuQlZWFlJQU3H333Rg8eDAv0kwFm4FToSdRpFTSfbB2wlQ/+tGP8Mtf/pILdbKTIT4qhGya5lmHuEaOHAnbtjF8+HB84xvfwDe/+U1ccsklPMRM28Hpujojx7AjsW0b9957L5YtW+ZZw5H6q2VZsq1LegQkCH3LLbecVouQnQzv33TTTairq/N8T3NzM5KSkvi4IELpLidOnOBzjETS0XAjS9QOueeee7B8+XIEAgFEIhGeHCsmHZaWlmLcuHF8FwjlxYgJ7jSwi8KOpmnin//8JyorK7Fu3Trs3LkTO3fu5OelSYyK5oq6Q2KejJfRFYvF4Pf7kZ6ejtTUVIwZMwZf//rXceONN/aoyU9yZohGNuXq6bqO/Px8lJaWutqHZVmuXLt48VBqJ0lJSWhubkYwGMTUqVMxZMgQpKSk4Nprr0V6errr83tbmxH7GOUa+v1+bkwNHDgQx44dcyUBV1ZWIisrS+alSHoUs2bNwmuvvebqx/H9UdxA8tprr2H69Ol8owtBC6N33nkHY8aMAWMMgUDAlVR/77334re//W3X3Jik36HYts3EiSwlJQUfffQRbNvmjVt8HQCOHDmCgQMH8kZ+JgN0eXk5fv3rX+ONN97gu5vElQp1BlECgiYHcVJQVdWlmk7XNmrUKPzoRz/CqFGjcNFFF/HE+d42UUq8ofYwYMAA7lWi3aHxBhUArtJPCbSMMRQWFuKOO+7A3Xff7dlmz9YT2xOhSYcWSytXrkyQW6Hva8SIEairq3OJ9Uok3QUtomzbxtGjR3H11Vfzcd+rj9PCCUgsmSNu4qIdvdnZ2aipqeFzBm2IUhQFe/bswVVXXcWPZYKsikRyXlDc8MSJEywQCLhi4V6FO8XCnGIOlfi8aZrMsixWXFzsEj0UE9bFJGOKkccnrVO+Fb0vvlju5MmT2cGDB13X4lU4VNI7oU0H9NsqiuLKx6PcK7E90WPo0KFs0aJFvH20df74XLveLLwp9kfGmCthX1VVnrtIz4XDYX6s7DeSngDlRpmmyebNm8cLSIt9O34OofcUFxcn5ElGo1F+zurqatd8QnOJYRgsNzeXH9eTciolvR/Ftm0WiURw3333YeXKldxLQJo/FCJMS0tDOBzmddxEz5Zpmvj888/x3nvvYf369Vi9ejWAU5pUYl0+OpZkF9pDFI9MS0vDsGHDMGnSJHz7299GMBh0vZdycNjJOL2kb8AYw/79+zF16lRUVlYCOCWjQNIeiqIgLS0NjzzyCEaPHo1Bgwa5vFC0AhbLLVEpJPFz4unNnqyFCxfi6aef5uET0TOt6zpuuukmhMNhHm5lPSyfTNL/iJdZiEQiSEpK4pqNIl4yJFQiyqsuIZ07MzMTO3fuhGmafC5TVRWqquLgwYO48MILpVdX0qEojDFWVVWFm2++2XOi0TQN6enpqKqq4o2XMYa6ujq8/fbb+Nvf/oaamhr87W9/A2PMlbsVr5MVD7lqAfDCzHTciBEjkJqaiilTpmDIkCH4+te/DgDthgDjP0NOGr0TUaDz4MGDmDx5Mj744AMAp35TcvkzxhAKhVBTU9Odl9wjEA0lyoWkv9nJUDyxfv163HXXXWcc7pdIuoNwOIyRI0cmaDRSm44nPz8fL7/8MpKTk13PU99oamrCkCFD+PloY5eiKJg7dy4ef/zxzrsZSf+EsVapBnhoYeFkSI6xVjduWVkZKygoYElJSa6wXXvb38UHbbP3+/2u5ylcWFhYyJYtW8aOHj3Kt8jTZ58Jss5a78a2bdbc3Mz/Hw6Hmd/v5+EAkt/ASUkCACwvL0+69wUsy2KLFy/mIULxQeH33NxcHlaR/UTS05kyZUqboULxQW0+HA63q1mXmZnpOg+F0rOzs7vwriT9BV8sFkNDQ4OnAVZQUICxY8dylW0ArhIyojdBxMuDxBjjx5EchGEYeOqpp/DQQw8lvJ/cufSZkr6PqqoIBAIAgKNHjyI9Pd21O5Wd9JQqioLjx49j6tSpWLVqFQCpxg+cComsWbPGVaOQoIoHX/va12RNQkmPJxqNwufz4YUXXkBpaWnC6/Ftl8aGzMxMT/kHSlupqqriIXTgVASkpqYGNTU1CIVC0sMr6TBU27bbzGNasWIFJk+eDNM0+U4Nse6bGBYUH17QazNnzkRpaSls20ZLSwsefPBBlzSD4ziwbRuGYfCdhPHxeEnfRVEUhMNhXH311Xz3KrVRXde5HlthYSFWrFjhGTLoryiKgvr6elRXV7cZ+jcMA7/5zW8QjUalgSXp0ZB0z6BBg1BYWMifb6vdkuGkaRqKi4s9C8QD4LvoRSjN5Y9//COf7ySSjkANBAIYOnQoN56oYSYnJyckGLfV8JgguRAMBsEYg9/vR0ZGBu69916sW7cOH3/8MRzHwauvvorJkyfzY2kbLb8gQaJBzL85E87E2JP0HLwKNa9btw6ZmZkwTdNVj5DaRHNzM2bMmIHXX3/dU2CwP0FaP7QIUVUVc+bM4f8X+yU9nn76aSQlJbnyISWSngj1f03TsGDBAgDgi2/yeItQhMS2bTz++OP49NNPeV+IxWKuxfyTTz7pylkk9u3b59q6YU2TAAAgAElEQVQQI5GcLyoATJ8+HYZhuDxTX3zxheuN5EkAwFXWlZNFlWmyU1UVEydORGVlJfbu3YsPPvgAv/rVrzBu3Dhcc801XXxrkp4ObaIAWg2FdevWYdKkSXw3ka7rLgPCtm0888wzWLZsmfRgAUhKSgJwapLYunUrwuFwu4uS+++/n+/YlUh6MmIbveqqq/Dcc8/BNE0wxjx3plM/oDFj5cqVAFrD5OL8Zds2n4/iFxo1NTUJelwSyfmgOI7DFEXB888/j8ceewzRaBRJSUmIRqMJYTryVFEDV1UVOTk5+MEPfoD8/HzubaCOQCsCyqeR4qCStli8eDEeeughKIrCFdzJ00VChOvXr8edd97Jn+vvkKAi5VcFg0FeKioWiyX0teLiYjz88MOybJSkV0ALKVGugULeoleqPY4dO4ZAIOAy2BzHwRdffIFLLrnE9V7qE1SiTfYPSUegRKNRRoPyvffei+XLl3OvgZdB5PP58NRTT+H2229Heno6d9seP36cb5tlJ7eLi41UJtlKvNqA4zh44YUXMHfuXK7LJpbGoXI6K1euxKRJk6DrOg8LSD2bVhzHwc6dO5Gdnc1zS2iCEj1+J06cgM/ng6ZpsCxLbhaQ9GhELzct+D/99FN85StfgWVZZ+TNbmxsxOWXX87PR4v9I0eO4Iorrkh4v1hxRM5Xko4goUB0TU0NSkpKsGfPHr6rcPjw4fi3f/s3fOc738GFF14oB2fJWRO/SYISVF944QU8+eSTaG5u5po1VKdSURQYhoGysjJ897vflYNeO2RlZbnKigDuEjvPP/88HnjggW66Oonk3BCNHRozZsyYgZUrV552PPD5fFi1ahUmTJjAjxUFTzMzMxEOh6FpmksoW260knQkvvgnQqEQ1qxZw/8vChlSDShAeqYkZwfVEIxEIggGg3AcB/n5+Vi9ejX/P3mwKOfPNE2sWLECY8aMkW3NA+qDtPU8/jui8LzjOBg5cmQ3XaVEcu6IbZqMowULFmDdunWnrRhimiavDELHimFDWvDR2OMl+yCRnC8J2a/U6MQ4OCW4U7K7NLAk54KiKHzQmzNnDkpLS11K5JTsTlIh+/fvx8SJE13lnSSnII/fK6+80ubrjuOgoKBAGlmSXg8FXa655pozUmbXNA0nTpzgie80bzmOA9M0+YLOtm2eg0zvk+ONpKNICBcS4vZ54FRVc2lgSc4VyheaM2cO1q5di1gslpBbQR6s9957D6FQCH6/XyagtoFt2zh8+DCuvvpqzzIjtPmksrISI0aM6KarlEg6lmg0iqNHj552x7qu6/j4449x8cUX8/xO6idffPEFLrroIu5AEEOS0qMl6Uja3Mcdn1TspSkikZwJogzDf/7nf2LZsmWIRCKu3aak22SaJqqqqpCXl4ekpCRpYLWD4zhYvnw5X/h46cTddNNNCcKLEklvxu/3Y/DgwVi6dCk0TQNjjG/oAE7tuo1Goxg0aBCPwCiKwnM9SXCUPFtUQJ0eZ7p7USI5HW16siSSjsBxHESjUQSDQWRkZGD79u18dxu9LoagDxw4gMGDB3fzVfcOTNPEBRdcwIvdemlfVVdXIyMjo6svTSLpEnJycng+YnyYr6ioCEuXLuX/Fxd7jY2NGDJkiOtcuq4jEom40mUkkvNFKhJKOg2xCkAoFMLOnTtd+VeigZWeng7HcTB48GCZg3WG/Pd//zc3sLwmhdTUVG5gtbS0dOm1SSSdjW3bqKqq4p6o+DHj/vvvb/PYDz74wPP57OxsaWBJOhRpZEk6DcYYjh49ilAohLq6Oti2jUAgwHMgqDZheno66urqAJzKBZSK5KdHLKzupRlWVlYGxhhisZiUXZH0OTRNg2maKCwsTBDXnT59OoYOHcoXesCpHc4A8NZbbyWUnIrFYhg/fjyvlyqRdAQyXCjpcCj0d+TIEXz3u99FOByGz9eqFiLqX9m2jYyMDGzatAlf+tKXpCFwGkjjhzGGX/ziF/jpT3/KVbBJtJUmkqysLFRVVXX3JUsknU4sFsMFF1zA8zwZY2hqasJll13W5kYtr1xPx3FQV1eH1NRUvtNZIjlfpLtA0qHYtg3GGGpra3H11VejoaGBb5k2TdO1hXrYsGGoqKjApZdeKsODZwB9d47j4KGHHnJNIBR6JWP2TLa4SyR9AV3X8cwzz/D+sX79elx88cUAvMPolLsV78ny+/244ooreDWJ+NclknNBGlmSDoMm/bq6OuTl5cE0TZ7gTt4Wx3GQnJyM6dOno7a2FqqqQlVVXp5J0jaWZUFVVTz33HOuJF5avft8PpimidTUVHz729/u5quVSDoX0fC5//77oes6ioqKcNddd7W5K9m2bSxcuNDT+Lr++utx8cUXy5wsSYeSoPgukZwrZGDdfPPNvLizqOQeCARgmibGjRuH3/zmN918tb0P0hBbvXq1awcUGVy07Xz69OlyopD0ecSFhmEYeO+995CTk9PuMYqi4Omnn+YLPpHU1FRunEWjUZm+IOkQpJEl6RAYY9i2bRsyMzMBgBtWfr/fVbewoKAAr7/+uquGmOTMiMViqK2tRTgc5garVxhj9uzZMp9E0ueJHz9OZ2AxxlBdXe0qxyP2k2nTpnXsBUokkOFCSQcQi8Wwfv16ZGdn84GPPFnRaJR7WObOnctLwEgD6+yxbRv3338/FEXxrNumKApKSkpwySWXdMPVSSQ9G0VR8NJLL/H/67oOXdcRi8UQi8UwZswYvqvZ7/d312VK+hhyd6HknGGMwbIsPPvss3j88cehqqqr2j2hKApKS0sxadKkhHJNkrODknJJsVpkwIAB+Pzzz2WoUCLxoLGxEVdddRWA1jGJxisAKCwsxOuvv55wjDg9yn4lORekJ0tyxsTb44qiYPPmzZg7dy4CgQBs2+aDV1JSEoBWo4AMrJaWFjDGPL0wktOTnp4OIPF3IMaOHQvLsuROTYnEg2XLlgE4ZSxpmgbDMKCqKhYtWsS974T0P0g6AunJkpwx8cKWzz77LObOncvVlpOTk3H8+HGugWXbNoqLi/HjH/8YwWCwm6++90HfoWEYaGxsTCiIKyrqM8akqrtE0gZHjx7FoEGD+P9FWYZAICD7jqTTkInvkjOGREQBYN68eViwYAGAUxpNZGCRDs3GjRsxduxYqZ58joiyF+PGjUt4nbR9LMvCvHnzuuEKJZKeTUtLC4LBILZs2ZLwGpX0+stf/iLTGCSdhvRkSc6KWCyG++67D7/73e8StkGTgRWLxVBVVYXs7GyYpskFMmWpnHNj69atyMvL8wzXUg7cwYMHcfnll3fTFUokPQ+xv1BxehHHcZCdnS0rI0g6FTnrSc6K2bNn49VXXwUAl1ZTMBiEbdsuAwtoNbxIRFNydtAk8eKLL3q+7jgONE1DYWGhNLAkkjhobCouLsauXbs83/PrX/+a736WSDoD6cmSnBYqQfH9738fK1asQCwWg8/n43UIGWM8jFheXo7MzEyukUXHSyPr7GGM4ZNPPsGQIUNgGAai0WjCexzHQTgcxogRI7rhCiWSnsuxY8cwcOBAqKrKS06Zpgld16EoCrKysjzDiBJJRyJzsiTtQgZVVlYWGhoaeG1C27a54aTrOoYOHYo//vGPSE5Ohm3bLp0ZaWCdG4wxrFixApqmoaWlJeF7dBwHmZmZSE1N7aYrlEh6LgMHDkReXh58Ph8UReGeLRrDJkyYgEgkgkAg4FoUSiQdifRkSdrEtm0cPHgQEyZMQDgcBnAqhDVw4EAuxXDDDTdg8+bNuO666/h7pKbM+ROLxeD3+3mCe3xYw3EcVFZWIisrC7Zty8RdiURg48aNGDduHILBICKRCBhjXMNvxIgRCIfDrtI8EklnID1ZkjbRNA3jxo3Dzp07efK6bdsYMGAAotEodF1HSkoKKisr+TGyXE7H8eKLL4IxBlVVEY1GPSeC7Oxsrk0mkUhOMX/+fGiaxoV7yQNvGAZefvllAHB5uCSSzkAaWRKO6IGiVZ/4GtBqeDU3N0PXdQwZMgTl5eUwTZPnZEkD6/yh7/ORRx7hxhNNEgC44fV///d/coKQSOIwTROzZs3i3ndC13UwxjBjxgxeY1X2H0lnI5e/Ehe2bePw4cPcc0WIZSg0TUN6ejoaGhq4arLk/KHQhWEYWLx4ccLrhmHw3yElJQW33XZbV1+iRNJjoUVIQ0MDVq5cmfA6KbovWbJELgYlXYY0siQcRVGwa9cuDB48OMHIAlqNAF3XMWnSJLz77rtSZLSDEWupPf74422+jzGGp556qqsuSyLpFZBX6uabb27zPevXr++qy5FIAEgjSyJQU1ODtLQ0aJoGy7ISXidNphUrVsDn80kPVgdDumNr1qzhibriwzRNOI6DUCjkqQAvkfRnGGMYMWJEmxtv8vPz8b3vfc9TCkUi6SxUcRCX9E9s28bRo0eRk5PDVcSBU3lAuq7D5/OhoKAAr7zyitS96iRUVYWqqiguLvZ8XVEUJCcn46GHHuriK5NIeh6k30d/l5SU8BQGGrdIw48xhoULFwJoDbvHF4OWSDoLOVP2c2KxGDZv3owvf/nLCa/RABaLxVBYWIjXXnuN5wRJo7zjiUQiWLduHXbu3AkACZ4sx3Fw/PhxTJgwQYZqJf0e27a5x72mpgaPPfaYq1C6aZpQFAWO42DNmjW4+uqr+bEy4V3SVUgjqx8Ti8Xwhz/8AUVFRW3mYAHAggULsGTJEj7ZNzc3w7IsaWh1MIFAABs2bGizzIemaSgoKICqqjJxV9LvIW/VkSNHkJeXh0AgkDAmMcYwZcoUTJgwwbVg8fl8cvySdAmK4zi8pUnrvn9RXFyMxx57jLvT470jPp8PpaWlrvwfKgDt8/lkyLCDOXjwIK6++mrouu4qWUSIifESSX/EK98qPT0d27ZtSzCaRG0sx3Fg2zYURYGmaVIfS9JlqNTYZIPr+5BnCgBKSkowd+5cKIqCWCwGy7KgaRocx+GPefPmYezYsa5zKIoCwzCkgdUBiJMCYwwPP/ywS9ldURSXivuiRYsAuH9HiaS/QAsMMXE9KysL27Zt4+OSpmncy6tpGvbs2cMNK8MweN1CiaSrkGV1+iELFizAk08+mTBZM8YQCAQQiUSwfv16jBs3DrZtc3FMGaLqHGjyGDBgAM8hIW+hoij8+29ububFbmOxmCyjI+k3UJI7lcUBgGeffRZz587lu3J1XecJ7YqiYPXq1Zg4cSLvT2JtQln6S9JVSMX3foRt25g5cyaWL18OwDs8HIlE8MEHHyA3NxdA6+AWDAZhmqY0sjqB5uZmBINBhEIhRKNR7iWkScA0Tei6jmeffZbvmgIgDSxJv4I857S4WLt2LR599FFomga/349oNArTNBEMBtHS0oLZs2dj4sSJfIESv6CUBpakq5CerH5Efn4+3njjDQDw3CHo8/lQWVmJjIwM12sk6yCNrM7hk08+weDBgwHAlYdFfyuKgo8//hjXXHMNPyYSiSAQCHTL9Uok3UFLSwsMw8C2bduQm5uLWCyG5ORkHD9+HElJSWhubgbQWrD+ww8/dB0rxy9JdyE9WX0Y2uLsOA6+8Y1voKqqylWbEAAPSdm2jS+++IIPROJkT7XyJB1PNBrFo48+CsBtVAGnvvc5c+a4tp8DkAaWpM9DhhHp8gWDQQCtRdHp/8ePH+ehdKDVw7t79+6Ec0kDS9JdyJmzD6OqKnw+H2655RbU1tYmvE5J1qZp4h//+Ac0TXMZU9Kl3rk4joPPPvsMK1as4M+J37mmafD5fJg5c6ZMdpf0O8gwItmFTz75hOv0kfFFr6uqCl3XceDAAbkglPQoZGvswxw8eBC33HILwuGw50rOtm2kpaXBcRxcddVV0HWdD1607VnSeaiqit/97ndtyjI4joP09HTk5ubKlbik30Hjj23b2L9/P77zne8gEAggFoshEokgGo1yuRPHcfDGG2/gsssu6+arlkjcyJysPkxmZiZqa2vb9EiFQiGUlZXhmmuucYWpbNtO2I0DSM9WRxBfksjv90NVVUQikYTvlzGG8vJyZGVlSQFSSb+ExqWRI0eirq6Oj0uRSMS107CkpMRVbkruvpX0FKSR1Ys5fvw4kpOTE5I6SYohXjmcFJJJ6NJLwoGe9zKopJF1/oh5Jhs2bMDdd98NABg4cCCOHTuWIEBKuwsBJGxUkL+HpK8RbxzZto2srCxs374dtm1zCRMS5g0EApg2bRpeeeUV3j9kuFDSk5CtsReTnJwMAK5E6X379iEQCLRZADUWi2HkyJFtlm6R+jGdi6qq3Js1ceJE/l2TgWUYBgKBADRNQ0NDA3w+Hw/fSiR9GS/vUygUwrZt27jhRHpZiqIgEAhg+vTp+NWvfgXLsrjxJZH0JGSL7MVQ3hRN3LW1tbj22mtd3o94Zs+ejYqKChl66gYod8S2bZSVlfFwrKqqMAwDiqIgGo0iGo0iKysLw4cPh2macuKQ9AtozHIcB9FoFCkpKVzNnQpBA6c8utOmTcNLL73EPfRycSjpichwYR/Atm3s2LEDWVlZfDDy8kjl5+fj1VdfRSwWQyAQSJi8T9cU5CB2fpA3KhaLIRgMwjAMxGIx17+RSAR+vx/V1dVISUnhx3r9NvL3kPRFotEo5syZgxUrVvDwuZh/paoqbrjhBuzatQuWZcncK0mPRupk9ULEHCzTNFFXV4e8vDxXDUrKraKE6SlTpnCl97YGJTlpdy6WZcHv92P9+vVQVZWHOCh0SwVsMzIykJKSkiAIK9dDkr4EqbHHhwnz8vJQX1/PhUbJwCKJmWHDhqGuro57sCSSnoyMQ/RCxFDfmjVrcNtttyXsBARajSnGGKZMmYKlS5d25SVKPFBVFceOHcOCBQs85TFisRgYY3j88ccTXpMGlqSvQQYWJbEDQHp6OrZt2wbHcXD8+HEAcCW0a5qGcDjMj5NIejqylfYi4pOfN2/ejKKiIjiOg0gk4nlMcXExli9fLgekHoCu63j33Xexbds2z9cpcTc1NdXTCCNPpeixlEh6K2QoaZqGTz/9FKFQCNu3b+c7CMlz5TgONE3DsGHD0NzczItBSyS9ATnz9iJED9aiRYswduxYrmnlNejMmzcPP//5zwFIT0hPYePGjW3+FiS9sXr1amlESfo8NGZ98sknmDx5Murr6+E4Dg+j08YeTdMwfPhwhMNhmKYpd9tKehUy8b2XwBjjSZ4lJSV49NFHEyZrwzBg2zZs28abb76JKVOmdNPVSghxA8LRo0cxePBg/hvFG1LBYBDNzc1QVZXXZJO7QCV9gfiNOKIor9/vh2martdFHb+UlBRs37494TgpNyPpDcjE9x5ONBqF3+/nLvLCwkKewB4PGV2NjY248soru/IyJR6IE4LjOHjwwQcBtBbl9lqJk+q74zj4zne+g7/85S8A5GQi6f2I7ZcK13/xxRcYMmSIp6afmNReX1/Pn1dVlXvu4wuqSyQ9ERku7OFQQntLSwvf1qxpGgzDSHivZVnYsmWLrN/VQxDz4FRVxWuvvQbLsriifrwnUtM0PmlUVlaitLQUwCkBRomkt0PlcN5++218+ctf5rmklIclQqkQM2fOxMaNG7F3714ArYsU6g9y162kpyPDhb2AlpYW3HfffXjjjTfaLdxcXl6OvLy8Lr46SXuQN4s8kH6/H9FoFECiZAbpAdExtm3j888/xwUXXNAdly6RdAovvPACHnnkEdi2DcYYHMeBruv8/yKMMRiGAcuykJSUhBtvvBFDhw7Ft771LXz729/GoEGD+PukR0vSE5FGVg+DvBZiLk5GRgZ27twJwzBcujHiKu7w4cN8wJH0LI4cOYJBgwbxnVLAqZ2C06ZNQ2pqKp544gnEYjH+u5N21pQpU/Dmm2/KgreSPkFBQQFWrlzJvbaEWBoMAPf20kMMuxOMMfh8PkyYMAE//elPkZmZyV+jEKTP5+PHki6XRNKVSCOrh0IDQk5ODmpra105POJkDbQOPKZpemplSboPWqUXFRVhzZo1fOAXJ5T6+noMGzaMD/6qqsLn87nyVCoqKjBy5MiuvwGJ5DygMYo27Fx44YV8YwcVqY/3PtFuQuo7p5MsIVFfmsYyMzPx8MMPY8KECQmGmyjQLJF0FdLI6qGYpon09HTs2rWLPycOPpqmISsrCx988IFrEJH0PPx+v+eOwlAohOrqajiOg61bt+LWW291hVCA1t+U3ieR9DZs28ahQ4dw1113IRwOc4NJbN9AqyFEIT8vD5e4oxBAQsqErut8cUKGVG5uLsaPH4/8/Hx8+ctfhmVZ0pMl6XKkSd+DIG/V4cOHceutt2LXrl1QVZUPMPG6MWVlZXxSlgZWz4MxhpKSEti2zRN7xd/p5ZdfBtA6gWRnZ2PixIkIBoNwHIdPBowxhMNhrF27tlvuQSI5VyKRCHbs2IE77riD7xAkAyg+0Z12Tzc0NOAXv/gFZs2aBeCUUUVGGBHvjSLDzefzIRAIwLZtVFRU4IknnsAVV1wBXdfxH//xH9ixY0dn37ZE4kJ6sroRsQah6MYOBAI8OToQCPB8HNqJk5GRgZqamoTzSUOr+xF/xwMHDuCaa66Bqqq8xBFjjBeIbm5udh1r2zYMw0iYUAgqHi2R9ESOHz+OpKQkmKaJQCCAxYsX48EHH3SVxSHEsYoxhhEjRmDLli3w+Xyu3MO9e/di9erVKC0tRX19PXw+n0uMVNd1Hn7UNI3nMooFpeMJBAJ46qmn8LOf/Yy/lzGGlpYW+P1+aJrGpXMkkvNFerK6ETG5XVVVHDlyBAMGDOAGlq7r3P1NA1UoFEJtbS0sy+qWa5a0DXkVyRh+//33AbQaXuIKXtd1HDhwIOF4TdOwYMEC+HyJ8nWKouDWW2/t3BuQSM4Dv98PVVURCASQkZGBJ554wmU0xSet0wafkSNHora21pWkTq9fd911eOihh1BXVwfbtrFq1SqEQiEAp7xXNEaSgaUoimdYUNd1aJqGSCSChx9+GAMGDEAoFOLHBoNBPiZLA0vSUUgjq4dQUVGBQYMGoaWlBcAp0T1K/nQcx+XBksmbPQ9aSdOk8txzz8EwDF4INxqNIhaL4frrr8cll1zieY4HHngAaWlp/P9iiDEcDmPjxo18MpFIehK6ruPgwYPIyMjA9u3b0dLS4toxGz9mMcYwbdo0/PnPf+bHk4QJcMqIonHQcRzcfffdqKqqAmMM5eXlmDZtmisn1TAM6LrOx1ER27Z536S+unv3bvh8PmRnZ2PHjh38s2WAR9JRyHBhN0LejYqKCtx88828WCpN1GIi54wZM7B06VJYlsUHq/gcHxku7DmsXbsWkyZNcq3iKXzx+9//Ht/97nc9fy/HcVBXV4fs7OyE1xhjyMvLw5YtWwDI31vSs9iwYQMmTpzIDZV42YX49rpo0SI88MADLhV3oFW+hPSxCDG1gioj0IYSTdOwd+9e1NXVYePGjdi+fTt27NiREC40DIPv2qUSZHRu2rGdmZmJadOmYfTo0S5JCInknGGSLsNxHMYYY5Zl8ec2btzIFEVhqqoyAEzTNKZpGgPAdF1nANjChQuZ4ziuh23bCc9Juh/6bTVNY6qquh5+v5+NGDGCmaZ52vNMmTKFtwMATFEU5vf7WSAQYAsWLOjs25BIEohEIrztRqNR12szZ85kiqK4HjR+0dhG7RcAq6mpYbZtux6MMRYOhxljjJmmySKRCD8/vU5/t7S0uP7vOA6LRCLMtm1mmiarqalh69evZ9///vf5WKrrOu+LYr9SFIX/X3zk5+ezgwcPMsbcY3b89Ugk7SE9WV0MO5lroKoqNm3ahAkTJvAVlaZp8Pl8iEajfGW1ePFiPPDAA2dUPkJ6Nrof27axY8cOZGRkJLzmOA4WLVqEn//853yXqBfk4dQ0jT8oz4vagey2kp6AbdvIzs5GXV1dmxUMbNvmRaB1XUdzczPXzhJRVRVlZWW45557kJKSgu9973soKCjAkCFDXOckjS3xeMYYTNN0bTIRr2fBggWYP3++S3/O7/dzD3NbVTSAVu2teAmV+PNLJG3SPbZd/4VWZxs2bOArqAsvvJB7sXByFZWUlMQ9WLSKivdcSU9Wz8Tv93PvpPgAwH+nEydOJBznOI7r+fXr17tW2eQFAMCKioq67H4kEkL06Bw4cMDVNuM9WcFgkI9phmGwnJwcxlirl4q88fGeLNu2WUVFhcvTBMGzVFpa6roGy7ISPMP0f/oMxlrHXcdxWF1dHcvOzmaGYTC/35/gLY5/iH05Pz+fHTlyhH+OHHMlZ4I0srqBhQsXutzo4mCiqipLSkpiL7zwgqsTe4UHpZHVs3Ach5WVlbl+U9HIKiws5BNEfPhBPAdhmiZLT0/nk1R8O9m9e3eX3JdEQti2zf75z3+yRYsWucKAXkaKuHB88sknE0Js8YaWaCw1NTWx7Oxs1zipKApLSkri4b85c+awRYsWsdraWnb48GEeQmxpaeGGXDz03IEDB9j3v/99lpmZyVRVZYZh8JAiPagfkxFpGAbTNI0988wz7MCBA22OuTRWSySMSSOrU/GK2xcXF7NgMMgMw3B1bFVVuadi7dq1MubfC4lEImzWrFnM7/fz35RyU1RVPevzmabJqqurmaIoPMdLnMwMw+iEu5BI2qampoZlZmZ6en1UVWW6rrNgMMj8fj9v/2VlZa4cKuJMFonz5s1zGTyGYfD+EG8U5eTksClTprDVq1e7ztFeDuSBAwdYWVkZy8zMdBlVwWCQ91uvRZOmaWzx4sX83OJ4bVmWHL8lHGlkdTKUIGrbNps5cybTNI2v/OJXSwDYgQMHuvmKJedKeXk5N5TJCKJVcGFh4VmfjyamqVOncq8AeQgURWEDBw5kM2fOTEgSlkg6AsdxuBFhWRZbsGCBy9Dx8lyJxlBmZiY/l5fRcaae+LKysoSwnq7rCZtLKLRH78vLy2OLFi3i5xb7CT3nOA4fo7LMN/oAACAASURBVA8dOsS9Z+KDxmzyZImbk1JSUtjHH3/Mz9GWh1rSf5FGVhdRVFSU4F4XjSxVVVl5eTkf2GRn7X2IO6zEgRkAO3bs2FmfT9zBRW1E9GaRp6C2trYjb0MiYYwxvlvPsiyWl5fHkpKS+Jil63qCkUVGiGEYbP78+a5zebX/MzGyotEosyyL7dixw3MHYPyDvGnUN8TweklJCf9cOndzczPvZ9FolOdEpqWlnfazRMNv0aJF/JqlF0siIo2sTsa2bVZYWMgnW3FwoglTVVX27rvvMsYYT3SXMf3eB01A9FvTv/PmzTun81EbsG2brV271uXNErfIT506tSNvQyJhjLV6fubNm8c9V5TcTmOWlydLVVW2adMmV4iuvfzDs8kp/fTTT1l6enqCHEO8LAONs/ESEvTIzs5mGzZsYAcPHmSmabpyqEQDqb6+nuXn55/W2KIxPSkpiVVVVbV5r5L+iTSyOhBa+YlkZGRwz5W48hEf5eXlLBqNykT2XoyXTlAwGGQAWGNjY4d8RigU4vkilBdCXq1NmzYxxuRgLjlzxDwpMY/IsiwWDod5e4s3UkRPDhkymqaxoqIi1tjY2KmenEgkwqZPn87D8KKHN/7hFdKM97xlZmayN9980/UZ4iYjxhirra1lhYWFvK+Rt078XsS/n3rqKcaYuy9K71b/RRpZHQi51omMjAzeAcU4vhgyZMydHyCNrN6JV/hE13XuZeqo31M0rMT8E0VRGGOnvAZnIngqkYjjFYl8FhcXcyNGNObbeyxevJgxlihS2hk4jsNefPFFV5+jhcfZGFlikrthGK6QH2PuEKfjOKy+vp5lZGQk7JwUdyDS35SPJncaSqSR1QlYlsVCoRDfYUMuZXH1o2may7iif6WR1XsgQ6aoqMgzGZi8lPHb08+H4uJi16qZvGUAWGFhoRzUJWcNGVrNzc0sIyPDldpAf3s96LWamhrGmHuR2RltkLxtZPxUVlbyBHgvj1Z7Bpa48KUFL43LxcXF/DO9jEYyQsmrJS504r1+55KLKelbSCOrEwiFQi6B0fhdhDk5OWz//v0J25qlkdX7iEajbeoE5eTkeIolng+WZbGUlJSEreWUg9LY2CjbjuSMEENYL730UkKOkZgz6mVkDRs2jDU2NvI2TuejEjcdDRlwYnmff/zjH1xL7nRGVlseYC/jUVEUNn/+fNbU1MR1t0Sam5vZqFGjXIYW7fglAy45OZmNHj2a7d+/v8O/C0nvQRpZHQCtsA4fPszzGGiwiu/I2dnZ3X25kg6kuLjYFSYAwAUTRb2ejtgtats2i0ajbNOmTQkGFk2Ew4YNO+/PkfR9yCBau3atK2/U65GcnOzaVahpGlu7dm2bosid5U2N/xxRcHTq1Kl8d6NoKMUbWKRN6JW4Hr9QAsBGjRrFQ6FerF+/nstHkKEnjvuGYbDc3FzW0tIic7T6KdLIOg/Egs9VVVXcayW6kGlFReEcMshkJ+v97N+/33MVTAN5c3Mzf29HTDqidyAnJ4dPKvFhiueee+68P0vSNxG9TcOHD09YIIjGu2hskCESCoXY/v37uYHTlRUoTnduCqWL1RHicyQBsIKCApfni3JkvcKKF154IVMUhY0YMYI1NTXxPi2O301NTeyCCy5wjfvizkZVVdnIkSP5caI2l6TvI42s80DMESCVb8MwWHJyMktOTnZ14qKiIq7BItYjlPReSktL+cAqro51XWeVlZUuIdqOmHTEgb25udkzD4TUtjtqR6Ok77F+/XqWlJTEkpKSEur3tfdYuXKlqx13p5EV/xn0d319vaehKGrXaZrG9u/fz6qqqhJCh17HiN9BvCadZVl8LC8sLOQ5kuLimgy/xYsXywV2P0SF5JxRFAU1NTW49NJLEY1GoSgKGGM4fvw4Tpw4AcdxwBhDYWEhXnnlFVfVeE3TuvHKJR3Bs88+C6D1t4zFYq7XcnJyYBgGHMeBoihQFOW8P09VT3XXYDCIkpISJCcnw3EcGIYBALAsC6ZpYunSpef9eZK+RTgcRigUwvjx49HS0oJYLAbLsuD3+9s8xjAMZGRkwLZtTJ8+HZFIBIyxLrzqtqHxFgAcxwEApKWl4eOPP27zvdFoFLZt49prr8WhQ4dg2zbKy8sxatSohGMYY7BtG7quQ9d1+P1+hEIhlJWV8fdomgZN09Dc3IzXXnsNkyZNgqZpfOxXFAWO4yAWi2Hu3LnYvn07VFWFbdud9K1IehzdaOD1OmgFQkmQmzdvdu1KEXfikIehsLAwQcFdJib3TsRQy65du9rcEr5y5couu6bc3Nw2wx2HDh1ijEk5h/6CKKhJbdW2bdbU1MRmzpzpmRQOuEOEEBLdNU1j8+fPZydOnOACyWfz6Mp7pr/p0dLS4sqP9RIsxckIA2OtfeTNN99kM2bMcOVViWM7PW8YBnv++eddnmrGWjfB2LbNioqKXHOAuKOxoKCAMdYa+pcbnfoH0sg6B0zTZG+99RbvgOLuEgBcGXnhwoWy8/QhxDwKryK5OLlztCvDAeXl5bwdel0PyUdIQ6vvI/7G9PeMGTM8RTu9jCzxUVBQwA4ePMgYaw1Nn62B1V3jXryhNX/+fB4iFEN49EhKSmKKovDrNU2T1dfXs7S0NKaqKgsEAi6JCLFcFuU+xlfoiEQiLDk5uc3djU1NTQnXKueJvos0ss4Cmqw2bdrEvVZi5xWTHdesWcMYY3y3jaT3E41GWSQSYR988IFnDkcwGGSrV69mzc3NXfabO47DZs6c6Xk9ANiLL77Ir13S9yHjqqKignteNE1jSUlJpzWyaPyqqalx6V2d66M7ET9/9erV3JMUL30ifgc1NTWsubmZS+ssXLiQ6brO/H5/gpYWfa8ffvhhwmdTXxOlMOhz/H4/W7BgAb/GnvJ9SToPaWSdJW+99ZZLrE/0YNHjySef7O7LlHQSjuO4ijSLjwsuuIAdOXKkS6/FNE3W1NTEvadiaIKu8ejRo112TZLupbGxkWVmZroMJ1Hvqj0jq6ioKGGTxtkkuvdUo8GyLFZeXu66d0pGJyOKDNKysjLuuWtpaWGbNm3ix5ChJe4gJ0keUfOQ/h4zZkzCoscwDJadne25O1PSN5FG1hlAq7rFixez5ORk13b9+LqEmzdvZozJvKu+SnV1tStvRXzQCpUxd/2zzhpEqQwKY6dUqMVVOk0GlHci6f2QYU1yHs3NzcyyLLZv3z42a9Ys19gUL84pLgrF/6enp7PKyso+P+m/++67bPjw4dwTRTsBRQMqGAxyxXfHaRVVraurc/UtMfdW13VWWlrK388Y48KsVVVV/HNIM4s+j7HEMULSN5FG1hlSVFTE4+xkVIkrG0VR2ObNm2Vn6eOQunS8B9MwDMbYqS3dXonCnYEYlhSNfdHTCo+t55Leh1ieKRqN8sVfUVERzxeiiZzqDooPytsTDQYyEBjrP+ErKjAdn0Mr9uWioiJmWRZrbm5m0WiUHTp0KOEYeq+u6y4PoOM4XN4nJSWFS2WIJdaqqqqkkdVPkBIO7UDbbGfNmoWysjIcP36cbxm2bRvRaJRv162oqMAdd9wBRVFgmqbcotsHef/99xEOh6GqKnRdRzAY5NIJU6dO5e+jbd2dDWMMqqrCcRxEIhFYlgXbtvk1xWIxqKoKVVXx4x//GMePH+/0a5J0HtTuSLLj2WefhaIoKCsrg67rUFUVpmlCVVVEIhHPc9D4NXPmTDiOg4kTJyISiSRIkPRVIpEIXnvtNZSUlLieo+9F0zTYto3ly5fj3nvv5X38kksuQWlpKe9zpmkCAB/rSV6FCbINiqIgMzOTf7/0nGVZeOedd7r+5iXdgjSy2kHTNNxzzz0oLS3lExRNnjSROo6DLVu2IDc319VRpQ5W3+N3v/sd/81jsRiam5thWRY0TcOSJUu4Vg+ALtESIu0fVVXh9/uhqiry8/P56zTwG4aBrVu34v333+/0a5J0Plu3boXf78ejjz4KXdf5gk9c2AWDwYTjbNtGMBjEe++9hyVLlkBRFG6Ed0V77Qnoug7DMPDQQw+htLSUa9jR96VpGv8uVqxYgZtvvpkfO3nyZGRkZPAxgHAcB++9955LC8/n80FRFFx33XX8/fRZjDF8+OGHXXTHku5GGlkCtm1zwTrHcTBjxgwsX74cLS0tCYJ99N7a2lpkZ2fzTgRIodG+gjiQNjU1YdmyZQnioo7joKCggHsS4n97em9HiJF6Qeelz1ixYgU3/AjTNBGLxTBu3LhOuQZJx8IYc7U9oPU3XLFiBUKhEG677TZYlsVFLaPRKPdoigYTeVQYYzAMA8XFxWhubsYtt9ziErY1DAOGYbjaame11+5G7BeTJk3Chg0bAIB7/kzThOM4cBwHmqahsrISN910E3RdR0tLC2666SY4joOkpCQAp/rf559/zs8rRjuuv/56bvySOLFhGNi5c6frO+6r37dEGlme+P1+ZGdn44033uADF4UGaTI1DAOffPIJ0tPT+WpQ0regCSsWi2HlypWe7wkGg57q6t01UTmOg7KyMvh8voTXbNtGamoqWGsuZpdfm+TMUVWVh5gqKiowevRo3Hvvvairq+PGUzyBQIA/39LSAsYYNE3DM888g48++giPPPIIgNa22V/Cg6fjjjvuwKFDh5CVlcUNMFpQ02J79+7dmD17NoLBIA/HNjc3AzhlUO3evTuhT9m2jS996Uvw+Xx8DqHnLcvqqluUdDPSMhCg1WBmZiYaGhr4IEV5LrZtwzRNpKSkoLGxEZdeeikA75WnpG9AhtLPfvazhNf8fj/uvPNOMMZ4jkZPYNy4cfjqV7+a8DxjDDt27MCmTZvkIN8DIeOX2lxTUxNuueUW3H777airq+OTeFv5VmQ4McYQDAaRnp6Offv24cc//jEuu+wylxEglvjqr1CofcCAAaioqEAoFIKmadwYou/L7/fj1VdfRVNTEz766CPEYjH4/X4EAgEArR6qMWPGJJxf0zR8/vnnsCwLjuPA7/fD7/fDtm2XR016sfo20sgSiMViGDVqFMLhsMuwMgyDe6p8Ph/eeecdXHrppXyiIm+XpO8RjUaxePFiT89PNBrFAw884Kod2J1Q/UygNX8sHgodzZ8/X06yPRT6/bKysnD11VfzjRY01lDunaZpCZMzTd4ZGRl49913UVNTgyuuuIIbBNKD5Y3f74eiKKiqquKGlggZtWPGjOHfeTQaRSQS4Yvw4cOHJ5xX0zTs2bOHL8Apl1NRFNx4442dfFeSnoJKq6f+Hj5obGxEMBhEVVUVgNYOQZOWZVmIRqPIzMzEsWPHcNFFFwE45VaWOVh9F1VVMXfuXJ4cK/aX7Oxs5OTkwLKsHtF/aLIAgNzcXBQUFEDTNB5GUhQFgUAA4XAYixcv5rkisVisTe+IpOOh7922bf53NBpFZWUl8vPzoaoqampq+C420zS5gUQ5QzS5k+GsKApmzZqFqqoq1NbWIj09HQAS8gSlcX0K6iuUAgIAlZWVyMrK4ikgqqry94XDYdTV1fHj/X4/j3a05RkWF99kYJGnUbwGSd+l37tfotEo/n975x4dRZXn8W9VdfUjJLozHoThOa66YBIenXcAneOMZ3edcVCIBgbCS3B219nZcQRGWBFGgfAIODPueFwQXBjekIDAqjNnz87OuALhkRcIiK4ggaAoKoMh3VXdVXf/iL+bW92VENC8OvdzTh/odHV1dVfVvd/7ex46dAi33Xab4+908ZMrcOrUqdi3b5/jNUnis3z5cm7mNwzDMUn99Kc/BeAUN52J9evX88UC0HgtU7r6L37xC1y8eBFA4yRDrg9J2xEbVkAlNnbv3o2srCyMGDECmzdvBgBXS5Vt29B1nWcU+nw+aJqGJUuW4MyZM1i7di0yMzN5ILzk+rly5QqeeuopLoZIxLpBgpeyPN147733AIBncpKovu+++9rmC0g6HYpt2/wK6owTRVtz6NAh5OXlAYj//nSjTZs2DS+99BJf1USj0U7hHpK0LbTiFONkSLAAjYNsZ7YMWJaFt956C/fee6+jdg9jDH6/H6mpqThy5Ei3vO87mkgkgpqaGjz55JO8tAadGwBcSIlomuZw9+3YsQNjxozhZQfIwgXIEIYbhTGGJUuW4Omnn27V9snJyTh+/DgGDBgQJ8YURcHQoUNx7Ngxxznyer04c+YM+vTp0xZfQdLJ6NZ3YV1dHUaNGgUArgOSZVn40Y9+hJdffhkejweapvHMws7gHpK0LXv27IFhGDyonQSWruvYunVrRx5aq7BtG9/5zncwffp0HldI161hGKisrERVVVUHH2X3wTRNGIaBS5cuISUlBbm5uXjrrbdct3WLnaK/HTx4EKZpYvTo0XE1myjrTXJjKIqC7du3t3r7sWPHYsCAAQCaSr6IXpD33nuPW7HEEhu9e/f++g9e0ilRWDdSC6FQCIFAAJZloaamBllZWY7XqZ4MWSjGjBmDjRs3cp+7tF4lNnQrRKNR6LqO4cOH4+233+YWBU3T4PF4YBgGQqFQp3exWZYFRVFw4sQJDBkyBEBTRWtd1x3ZaJKvDv3eFIAulvE4f/48Dhw4gIULF+LYsWOu7yfrlThZ05iUnp6O1atXIzMzs0UrFZ1LypyTtB6yWPv9fteq+XQuKAaTMYYjR47wc0LnnX73uro63HbbbYhGo3FlN2Jr2UkSl251F1Kw4euvv47MzMy410lgAUBxcTG2bNniqIslSWxoUtR1Hfv37+cCiyr40/83bdoUV5y2MxKNRhGNRpGamoply5YBaGrNAjRO6j6fD5MmTerIw0wYSFjRmBGJRHDw4EEUFxfj9ttvx7hx43Ds2DHouu7qoqWYKwA8NKGkpARVVVWoqKhARkYGALSqbZd0AV8/tm1j586dsG3btSSLuADXdR3BYJDXnXPL+HzllVe4m5DOq6ZpyM3NbbfvJOkEXH+7w67N66+/zrvQK4rieODLBqGLFi3iDT4ZY7wpq6R7YFkWGzZsWFzDZZ/Px3Jzczv68K4LsQEtfQ982dg2EAjw5wcOHOjoQ+3yWJbFx43du3ezjIwMxzgj/v5uD1VVWSAQYH6/n5WWljr2S1Dj8YaGBtdjkA2Hb5yGhgY2cuRIRwN48aGqKvP5fPxcffjhh/w8iOfItm1mWRZv1i0+fD4fW7ZsGW/uLUl8upUlq6ysDGPGjGm2YrKu6ygpKcHcuXO5H50JBUmZdKskNFTH5sKFC6ipqXG8lpKSgmg0itmzZwPoOi42sU0KlScBGuN7KENN13U88cQTHXiUicPrr7+OpKQkjBkzBpWVldySQS4kRVGQnJzs6srzeDw4deoUGhoaMHbsWB4DSNtGIhEe/O7Wm1Dy1aiqqsK+fftadMXSuSwsLETv3r15ZwXxPezLLhGiNUxsuTZy5EhpaexGJLzIItPvjh07UFhYyONQVFWFx+MBY4z/W1xcjCeffDKuqzoga2F1FxhjuOOOOwCAV2f2+XwIh8PweDy4++67ed2irkZmZiaGDx+OpKQk7s4yTRPRaBSHDh1CWVkZgK4jINsD0zTjJk32ZX9TADyQfcmSJfB6vRgzZgyPwfF6vYhEIjxRhlyJ9fX1fJHn8/mQn5+P8vJyGIaB/v37c1Ec65Iml1NLoQuJ3nvw60RsjWNZFl566SX4fD7Yto1AIBDXy1FRFJimCU3TeLHf2OxiGhumT58edy40TcOdd96JkSNHyni5bkR8g7MEQ1VV/OpXv8K//uu/xr1GNxQA7Nq1C6NHj+YtEyiIlfYByDiHRIcxhi+++IIXoaWJlCxcy5YtQ8+ePXlAcle7HjRNQ0VFBe/BGWvNLSws5Ne9LAHQCAklj8fjyBqrrKzE/v37sWXLFlRXV7v+XiTKqK2K+DcAWLZsGcaPH49+/frJNkcdAFmhFEXBkSNHsGPHjrhMYhE6h+fPn+cNomOheLtNmzbFjQ+BQMC1MrwksUlokWUYBh5//HFs2LDBdRCsr68HAJSWluLBBx9ENBp1VHGXE033QtM03HvvvQDAa0lZlsWLRk6cOJGLL1rtdkW2bduGoqIi19dIQF69ehUpKSntfGSdCzrvZK1gjGHlypXYtGkTTp06hVAoBACughUAz0Sj11RVxdChQ7FgwQL88Ic/dIwxbg29JW0LWQQjkQivlQjAUVNOFEqqquKFF17Arbfe2uw+FUXhSSZi3TOgUaT98z//MyKRSKeuryf5mmnH+K9257HHHmOKovDgZVVVHQ8A7JNPPmG2bbOrV68yxhgPSGwusFSSuBw4cID5fD7m9/uZqqpM13V+3QSDQRYKhRhjziDXrgQdt23bLD8/3zWwV1EUlpmZyQzD6OCj7RyYpskOHz7McnJyHAHR4r8AmN/vZ5qmOR40xgBgw4YNY3V1dYwxFhf0LCbZSNqf6dOnM0VRWCAQ4Ocsdq5QVZVNmDChxf1Eo1EWjUaZruv8/Iv3V05ODt9WJlN1HxJKZEWjUWaaJrMsi02ZMsVVVEHIGCsvL3e8V9K9oOuF/j9p0iSmaRrTdZ0pisIziQCw//u//+vgo/16oKyziooKR+ak+PD5fGz06NGMsab7IhEmBVE4mqbpeB4KhVgoFGK2bbNoNMrOnj3LVq5cyXw+H1NV1TVTzO/3O4SWrutcmNNvW1RUxK5cudIRX1figmmajszLiooKfr40TXMsOOhc+nw+pijKNfcdDofZypUruQDXNI0lJyfz59XV1YwxJrM/uxkJVYyU/OijRo1yNPIUIdP9xYsXWzT7SroPtm3j7NmzCAaD+Mtf/oKkpCSEQiGeXTp16lS89NJLCVMrjX0ZT7Z48WLMnz8/rvgl0BivOHjwYLz22mvo27ev4/3Uz62rJYNQnTM3zp8/j3379mHXrl147733mh0/CLGKNwBHFnIwGMQjjzyCuXPnAui6v1eiQW46Cl5XFAU5OTmoqKiAz+fj8VjkIqRzq+s6Tp8+jX79+rW4f9M0kZSUxM83FfwVs9Pp/upq8ZySr0AHibs2Iysrq1lzLwA2ZMgQVldXJy1XEof7rLi4mPl8Pr6aVVWVaZrG/H4/YyzxLJ20ms7JyeFWGvreEKw1uq6zkpISZhgGX33btp0Q7sTDhw+zSZMmsaysLOb3+7nLT7RgimNJbK0r+q1uvvlmpus6KyoqYvv37+ehB4yxhPidEgXxurVtm02fPt1RN46uf3G+UFWV7d+/v1X7X7FiBdN1nV8/YphKZWWltGB1UxLKkpWbm4uKigqedh/b/0vXdYRCIb6KEFe2Msi9eyOmWVM1bUVRMHnyZKxbt64jD63NYF9atDIyMlBTUwOPx+NotUMr8ZSUFNxxxx347//+b/To0aPLWvRM08TOnTuxatUqvPnmm7Btm1swxGGQKvybpomUlBSeIBM7VJI1a9GiRZg5c6YjmJnGk0gkwv8vg507HrJmbd++HePGjQPQaLWlVjkimqZhw4YNKCwsBHBt61OPHj0QiUQQiUT4th6PBxkZGbz+lrRgdT+6pMhiLunz1JMwNstHbD/hlgEk7lOKrO4HYww7d+7EhAkTADROxF6vF5ZlwePx4PTp0+jTp0+XLNnQGkgADB8+HDU1NQgEAjxrDmiqu0SLkfT0dOzduxd9+/Z1lDlpqbdnOByG3+/nExwtbuizm1vgiFlYYnPd2HvVLVsrHA7jypUrWLt2LTZs2IB33nnHVSQ1B31v27Z5+QbqNxeJRJCZmYn58+dj9OjRLf28kk6Kx+NxzAdigWoS3v/2b/+Gn/zkJ2CMuV6j4vVDQk2ErpXy8nLZSqcb0+VEljjZMcZw7tw5DBo0COFw2BHzQH5xVVWRlpaGo0ePXrPIYiJOopKWIYsNXS9AkzUrLS2Nx2skuqWTMYasrCwei0QiiAkxJB6Ph1cwZ4zhueeew/e+9z306dMHvXv3di2C6SZOScg295ygQsK6rvPjIaFD9zpjDHV1dbh06RJqa2tRWlqKo0ePcsFINc/ExRaJtZYQvwtNvrm5uRg6dCh+/OMfO3qfGobRJXpZSoDa2loMHDjQ9RoQnz/66KNYu3atw9sRuz01kp8/fz4WLlwYNz4wxhAMBrFv375O30xe0nZ0KZFFAzb7sgLzsWPHkJWVBQDc+hA7MZC7R6zi3hxSZHUvDMPAihUrsGDBAu5ijkaj3EKzbds2jB49mouLRMWyLF75/de//jXmz5/PLUNiwK5oSRKFTiQSQVpaGnJycjBo0CDk5+dj8ODBuPnmm/l9Sa4z8X0UgEzCLfb+sywL0WgUn376KS5evIjTp0/j7bffRm1tLQCguroalmWhpqYGSUlJaGho4M3cw+EwgCaxqOu6q0uoJRhjCAQCGD16NAoKCjBixAj07dsXjDGYpgmfz4dQKNRl66V1Ny5duoTvfve7OH78OK+DJeL1emEYBh577DGsWrUKALhAp2tURFEUVFZWIicnx3V+sW0blZWVCAaDUoh3Y7qUyCJM08Tnn3+OgQMH8oHTzRU4ffp0rFmzhrsTpCVLImJZFnr06MEHQFFgDRs2DEeOHOEWrEQUWYZhcAsSWYiAxh5uI0eOdGRD0e9CFiExdg2Aw7os/o2ejxs3Dn6/n1sNT548iYEDBzqex2b0kYuRRB3dx+S6I3Rdh2EYvKinpmk8O5SEEIms5nATednZ2SgvL3d8P9FtSX8LhULwer0JeY0kEpMnT0ZpaSl3h7uN91OnTsXatWsd4gpw3iuEoijIzs7GkSNHXGOACwoKsH37dimwujmdWmSZpgmPxwNVVfmq1uv14syZM7y/nIgYxJqZmYnDhw93wFFLOjPiwLl48WLMmzePv0aB3gDw6quv4sEHH+yQY2wvWnKXAI0uk61bt0JVVUdJCxIYzTVa/6rETn6tXfzQ8Tc3pJHoI+sWHb/X6+U956iNjqIo2LVrF77zne/gpptucuxXLsa6DrQAX7ZsmeNejw0NAIBgMIiKiopWt5UaiMahUgAAIABJREFUN24c9u7d64hhpOB2t/hged10Tzp1kAkJLBoYfT4fdu3ahdtvv911IA2Hw/D5fPjlL3+JgwcPdsARSzortm07zP6RSASvvfYaAHAXEw22uq4nvMByI7YZ7rp16xAOh1FYWIhAIOBqDe5McWrk0iQRraqqI6NLURQEg0EMGjQIJSUluHDhAneV0nVB4suyLPzt3/4tAoEAbNtuEzEpaVvoPl+5ciWefvpp122Sk5MRCASQkZGBiooKfn27XdcUI2jbNpYuXRonsChBxOv1oq6urm2+lKTL0akbZsWa5cvKyvCjH/2oxfc899xzmDVrVnscnqQLQVlstEI9evQoDhw4AKBxNUtuZ03TsGPHjg4+2s7FunXrsHr1aqxcuRInTpzAxo0bATS52MSinB0JWaSARqGcl5eHgQMHYsiQIfj2t7+NgQMHIjc312GlWLhwIbdmpKSkIBqNIhQKYdiwYdzFIxYcldaIroNt2/j1r3+NefPmceslQeexvr4emZmZ2L17N19csC97dyYnJzv2RwK+tLQU8+fPj3MPqqqKaDSKp59+mmckSySdshgpFYkUC0Du3r2b94Py+/28eKL4KC4uZpZlMcuyZO9BSRzhcJgx1lggMi8vz9FfjoqQaprWwUfZflBxxOYeRGxLnQ8++IBt3bqVpaWlOQo4wqVFz4083HoqtuYxfPhwtmDBAnb48GFWV1cXV/iRxhPDMPh3CgaDjs/VNI15vV62bdu2Zn8zSddg8eLF/N6m1jjiIzk52dFPkOadL774otl9HjhwoMVrd9q0aXzb5u4nSfdCsW2by+3Oskojtw4FDC5duhRz5851TQ8HGletmzdvRkFBgeP1zvJ9JJ2LS5cuoWfPnq7Xx/LlyzFr1izXbCF5PcVj2zY+//xzrFmzBjt37kR1dTWAxnhKsnCJAfAt/YYUE8diMhkJv98P27ZRWFiI1NRUfP/738eQIUMQDoeRlJR0zWNlMZYFRVF4cL3YWkhVVdTV1aFXr17X/XtIOgfl5eUYOXIkf+5maU1PT8fRo0cRDodbzBClEiPnzp3DgAEDADhLfJB72efzIRwOS4unxEGnE1mxF+jSpUsxb948R+FDcVsA2Lp1K6/KK9IZvo+kc2GaJvLy8nD8+PE4c7+Y+u+W4i2vp3jE+9WyLFiWxWNSNE3Dn/70JyiKgj/96U+4evVqi/tKT0/Ht7/9bfTo0QNffPEFkpOTceutt2LgwIG49dZbeekEyjAkESxmPF7rWEU2bdqESZMmOeK2LMtCTk6OjOnswpSXl+Oee+5xZL8CznuaMkdpAdDcvU3xepcuXcLf//3fo7q62pEgkZSUhPr6eqiqigsXLqBXr168+K5EAgDojOZMy7KYaZpsyZIl3NQbCATizL1er5eVlpYyxhhraGiQ5llJi1iWxWpra5mu667XE7mbaVt5PbUM/Vamabr2dqS/xbobm6O5Pn+2bbNoNMr3Z9t2XEhBa3pLxp5PCD0IyVWoqiqbPHkydy1Luhbbtm1juq679q+96aabGAA2fvx4xljTnMGYuxvYMAx+XeXm5jJd1+NCDOga2rp1K79OJRKRDk0NYi6BgexLV8GMGTMwd+5c7rYxDCNu2wMHDqCgoIAXDZRIWkJRFDz44IOIRCKu19P3vve9Djiqrg9ZlkQoycC2bUeV+JYebsVIyc1DQcdUwZ2sWGS9ak2Nqtj903t0XeeZk7ZtY+zYsbLPYBdk+/btKCoqQiQScc0O/OKLL7Bs2TJs2bKFzxlkyXKbi7xeLy5duoS8vDxUVVVxS61YqFdVVWzduhXjxo1ztJ/qDIkgks5Bh2UXxl7Y4gA4YsQIHDhwgN8oNCFSA1td13H16tW4KrzSnSMRiS0CePDgQRw9etS1KfC0adOQnZ0NoPk6SxInYvZv7KRG5ROuh1hh49am5Ks0pxaF3LZt27j7iDISiQceeOCGP0PSvpAwLisrw/jx4wE45wE654qiYOLEiZg1axZvwUY9KWPfI/L9738fNTU1jmuRBJSmaVi0aBFvNC3SmUqbSDqWDrsSxHo8NMjZto2srCwcOHDA1adNK5QzZ87w1bNbvzSJBGhciYoryt/+9rcA4EjzBxoHy4ULFzreK6+p1tGVfiexFMMLL7wQ97qiKBg+fPgNCURJ+0MJCydPnkRRUZHjtVgr6ZQpU7Bu3Tqoqgq/3w+Px8O3I0KhEK+FBQCZmZm8C4FYK406B0yZMgVz5szhxyKRuNHhI4lhGPyCHzlyJL+oY1eXQONFf/bsWfTt29c1MFkiEREFeF1dHbZv38578dEkqqoqcnJy0Ldv3448VEk7QOdcURTs378/7nWv14t58+bJcaWLoKoqysrKMGTIEFf3HN3n8+fPx+rVq/mc0px7kEJOLl++jNzcXFRXV/Maaqqq8oW9ruv4yU9+gjVr1vDPle5lSXN0aDFSRVG4O2fEiBEoLy/nPaDEtG9ix44d6NmzJwBpjpVcGyo6aVkW1q9fj2g06ojloUF3165drr3JJImFoigwDANVVVWuQioSiWDMmDE8ZV/SuVm4cCEWLVoEwD0GSlEUbN68GQ8//DCP6Wsu/o+orKzEvffei4aGBkdzcTE+cMaMGfjtb3/rWKwBslitxJ12FVnsyzYH4gAWCoWQnJzsaMDKGOONYyORCDIyMnD48GF5AUuuC1VVeQzfM88847h+KL07Ly+PC3dJ56It7nefz4f3338/boIEmgKZpcDqXIjihe7nhQsXchd/7Hkk69OOHTswduxYAI3zCnlM3OKwLMtCVVUVsrOzeUA8uQBp/36/H+PGjcOLL74Y93635xIJ0M7uwliBVVdX5ygiSFYsCma0bZv3lLpWjR2JxA1d11FWVha30qUg6tLSUtcabJLExDRN/PGPf3R170ybNg2ATHzoTIgCi33Z9ur555/H8uXL47YV2yAdPnyYCyxq/u12j9PC/9ChQ7x4aSgUctTYotCUcePGYd26dfL6kFwX7SqyRIFVWVmJAQMGOJrzimn10WgURUVFKC8vBwCkpKS056FKEoRIJMLdBbEEg0H06dPH4TqUJDZerxc1NTWur82cOZO7k2QKfsdDAot9WYSWMYbHHnsMM2fORH19fdz2oVAIOTk5qK2txZAhQwCAF8dt6ZyWlJRgxIgRjuD1pKQkR2JMUVERF1jUbF6KLUlr6JCYrMrKSuTk5DhWFj6fjzfpVRQFkydPxqpVq8AYQ319PXr06NERhyrp4uzZswdAkwtBZO7cuQAa3QE+n08Omt2Ajz76CFVVVa5tfgYPHswtGzKQuf2JjWkSXYSff/45Ro8ejaqqqmYbko8fPx6bN2/mbW6ApthLEloihmHg0Ucfxc6dOwE0lSQhIpEIkpOT8fTTT2P27Nn8mEi4SSStQWFtPLOIQaSmaeLo0aN81SAGt4tF3P7pn/4JK1eudNQ4cj146eKRxEDB7gRZScWBFwB3Q0u6F/v27cN3v/tdbrnUNI1fL2LtNDm2tD9074r3sGmaOHbsGLKzs7lQojlFtD4///zz+PnPf97i/qknLpGRkcGtmiTwqHguHcPKlSvxs5/9TAa1S26YNnUXki+c2LNnD3JycvhkF1tc0LZtLF++HC+++KJcKUiuGzLhU//BFStWcDHv8Xjg9Xr5pPrwww938NFKOoJ9+/bxOkdAU4Fjsc6SnEw7BrGsCondY8eOITc3l/+NegmK1sbt27dfU2DRfi3LwsWLF+Hz+VBTU8MD4skNSPUZFUXhAksi+Sq0uSWLVgB79+5FQUEBNE1DOBx2WLGoQWtxcTGeeOIJ2LYNr9d7zcFODoaSWMLhMHRdh6ZpyM7ORkVFBR9cKbFC13UuxCTdi7y8PN78WRyDDh48yCv+y3GlY6DMcnLHLVmyBPPmzeOvAXDUrUpLS8N//dd/oVevXq3aP2MMe/bswUMPPcSz18myJVowo9Eodu/ezSv/UzKWXPhLboQ2D3xXFAV79uxBQUEBIpEIb2lAxd00TYOiKFiwYAFmzZrFO5zHxs9IJK3B7/dD0zSUlpbiyJEjAJpEvGmasG0bixcv7uCjlHQUJLBEVFXFwIEDAUiB1ZFQpf0PP/wQ+fn5eOaZZxyV1n0+H3fjTZw4EXv37kWvXr0cbsOWEhamT5+OMWPGAAB3DZKL2OfzQVVVDB06FG+99RZ+8IMfAGgqXCoFluRG+doD3xljMAwDfr8fjDH8+Mc/xu9+9ztuQfB4PIhGozyTw7Is/PnPf0ZeXp6jnYXYF00iaQ2MMZ48sXv3bkftNXpd13XMnDnTtWOAvNYSH9F6RdW709LS8M1vflOe/3Yk1oFCdctqamoQDAYBgC+4yUVI/PKXv8QzzzwDwzD4PS3uh2K2aM45f/48+vfvz/dJ1jBd1/nCq76+Hjk5OXjzzTfh8/l4/BYdg0Ryo3ztlixFUbhfe8mSJdi4cSOPgdA0DaFQiFff9Xg8OHjwIO655x7XbB456EmuB5pAL1++zDOGAKergQoYykzC7gdlphFkyUhNTZXZhO2Moii4evUqH+NVVcWMGTMwYsQI/pwW2X6/n7v3zp07xy1cJH7ovqc6WiTMdF3H1q1b0b9/fz7n0PmnLFKgMTlmxowZXGABcIg6ieSr8LWKLDHoePny5Vi6dCnvTUitCahUg23b2LhxI3JycgC0bOaVSFqLx+PB3Llz0dDQEPeabdt44oknOuCoJJ2BN954A4Bz8UatViTtT3JyMgDg0qVLyM7Oxrp16/j8Qe1sKB6qsLAQpmniG9/4BgBnDBX9S3NIJBLBlStX8Nhjj+HRRx91bCf2LWSMISkpCQsWLMCqVauumc0ukdwQ7GskFAoxxhibNGkS0zSNAWCapjGv18sAMABMVVWmKArbsGHD1/nREgmHrjVFURyPkpISx3a2bTseksQmKyuLAWBer5epqsqvk1dffbWjD63bsnjxYpaUlMQURXGcE3HOKC4uZtFolIVCIWYYBmOMud6z4XCYWZbFysrKWH5+PgsEAkzXdT7vxD4yMzNZeXk53180Gm337y9JfL5STBaZZMlc6/V6kZ+fj+rqar4Soe2Sk5N5ld4LFy7glltu+SofLelCiPVvgGv3/KLtDcPgRUKpua/P54NpmvB4PK5V3DMyMhxxN/Svpmn4u7/7O4TDYfh8vmbbbEgSh4aGBiQlJfHrqbKyEqqq8vAFuiavXLkSV19N8vXQ3O9qGAZGjhzJa9WJDZyBxjkjGAyisrLSUcOKyi3E3rvsy+D1iRMnoqysjHcPofmJMgnJo5Keno7Dhw/z9wLSRShpG77SqKLrOh+wFEXByJEjeRscoDGoneoU1dfXQ1VVNDQ0oFevXnJA6wawL2vPiMkMlOknPgjDMByCjAJQqVkrmfNZC+6dd955xxF3QfGBRUVFuPPOO+OqOksSF+qL2pyYJtGfmpoqx6M2ILZunWVZsG0blZWVSElJcQgs27a5axAAiouLUVFRAcMwHCIJcF+UnT9/Hl6vF9u2bYOiKHysoeB3ymQPh8NYsGABF1gSSVvzlUYWys6JRCLIyspCdXU1/H4/wuGwI+vD4/EgNzcXdXV1vP6VtCIkPuIKlDKBWnqQhUkUZjSw6rrOB2BKt45lypQpME2Tx/4B4AP8v/zLv8Dn88Hj8chrr5tAdZdEy6YIZY5lZmZK4d0GxBYN1TQNkydPxqhRo/jfYs+Nrut47bXXeMsrslxTSR83C9ayZcswYMAARCIRnsxAooqC4KPRKEzTxIEDBzB37lxptZK0G1/JXUgDWH5+Pt59910+kYpQ7ZFt27bhlltu4anzcuWY+NA5NgwDly9fxvnz5x2v19XVOZ6bpomzZ8+ivr4eN910E0zThM/nQ3V1NXw+H8LhMDweDyzLwjvvvONo6AoAJ06c4NeXaZpISkqCYRgIBoPIyMgA4AyAlWIrsaHrz7ZtHD9+PO51xhjuuusuADKTua0gS3JpaSkWLVqEEydOOFrniDWwHnroIZSUlKBXr17cCk4uRHL7iRw5cgQ/+9nPsH//fkdvQjrvJPAURcGECROwcuVKfPOb3+QFT+UcJGkPrltk0WrB5/Ph4sWL6Nu3r6NqLqXaWpYFwzAwfPhwXhSyPRFXUHTztXYgFS0w4o1ItVNie2DFvldEbHJKvw0NLoZh8NUWucWuRezA0NKxtJZwOIzPPvsMvXv3BgDU1NTg7NmzcRmfu3fvjvvsDz74AA0NDQiHwwgEAlBVlZ9v+v3JotAexLofLcvCqlWruPhqzqohSTzoutM0DX/4wx/izrvX6+UuRRmT9dWhmEkRxhimTZuG9evXIxAIcIsUuRIBICcnB6tXr8awYcMc76VxTaxbRWPz0qVL8fTTT/PtRNFEdbIok33z5s145JFHpPVK0iHckCWLbqQf/OAH/MKNRqM8dgZonGDT09Nx4MABAO0ziBmGwd2RHk/jVxMr+jYngIjYQH6xVgsN1uJ3vdb3EYUaCQ5q8RKNRnkvvdYKJcYYPv30U1y9ehUA+Hc8dOgQjh8/DsuykJKSgvr6etTW1qKqqsrx/qNHjzqeRyIR/h3dJiD6W6zYEoPK6XeibcT4q/YUV25YloWMjAwEg0HU19cjOTlZCqxuhKqqCIVCCAQCePvtt+NeZ4whLS0NgLRkfR2IY2wkEsHHH3+M/v3787GNaiRSrBQAlJSU4Oc//3mrf/9PP/0UPXv2dIyXNA6JXUIMw8Ddd9+N//mf/5HiStKhXJfIoiq5kUgEJSUlPFuH4mWSk5NhGAYikQjS0tJQWVnpeG9biyy6ycXPEmNw3Pz5IiQsYrvB079UedhNsAHAJ5984njes2dP7Nmzh9/8VO3+D3/4AyzL4qKO3F8UCNoc1NPLsiz+HW3bRiAQQCgUgqZpXLSJwi0200489tieYAQVjiVif0P6l64HSoIgi5FoOeoodF3nvynV5JF0L8h6sn79+rhr0bIs3HPPPdJ1/DVi2zYuXryIOXPmYPPmzdA0jY8FYpawWF29uf3QWE7jWnFxMbdeUfgAQfHBpmlCVVUsXrwYc+bMQSQSkSJL0qFcl8gSg5BLSkoAgN9AdIFTR/tXXnnF4bJrr4rKly9fRn19PRRF4WbmCxcu4PTp09zyQ5w6dcrxPDYmqKGhwRETVF9fz11+J0+e5GnCROzNLBZfpeeiKFEUhQsiIN4VGIumaY4+XUDjYENiiEzwJJya6/9IE0ogEOBFOymFmoSkKLCaQxw8SYiKq9SOnrhKS0sBNFlRpRWreyFO0G6QJUvMXJPcOIwxvPHGGxg9ejSAxkUlZZeTKBo+fDjmz5/PtyHhFQ6HefwW0DQWUh/SpUuXoqKiggeyU9aheE+bpolhw4Zhw4YNGDJkCABZ5FrS8Vy3u9CyLFy6dAmXL1/mkyiJDUVRsGLFCsycObNV+wqHwzh+/DjOnj0LoFGIDRgwAL///e95DypR1Jw4caLF/THGUF1dzY9F/Dd2u68Dt1Ti2NdFUUQd3unf5vZDUNsIKoVBE4FodaI4CBrM3CxZBL2HYudoJSj28iIxQqJLhFKs/X4/L6lA8Q+Uni0KOxKYdCzidwbAhTn9BhTULsbEUVNYMcidLHhuv5vX68W4cePw1FNPITU1lW/f0u8sSUwohoeu51joPpQCq3XEhgQATWNpeXk5fvrTn6KqqoqLK3GMCIfDWLp0KX7xi1/AMAzeCYR+e6/XyxdDNF4cP34c//AP/4CqqiqEQiGeue73+/mYKLJo0SLMnTvXcXyyiruko7kukUUrvnfffdd1wlIUBdXV1cjIyEBVVZUjtslttShaPWJjg8Q4H2r2eS1xJK5+xPd3VQsGpSOLGXH0d5/PB8MwuDCiGDH6l0SPCMVrUXwZCT4SRmLH++aggQ5oPC9er5cfBw2OHo8HhmEgFApxi13sgCh+n2AwyOPHCgsLMWjQINTW1nL36v3334++ffvyQoQ+nw9DhgxxHKvYXFyKKUlrsCwL3/rWt6S7sJU0J1RXrlyJWbNm8XhYgsaGrKwsHDp0iIcT6LoeFyRP+6bYyalTp+J3v/udY+wW622J44nX68XHH3+MlJQUR6kHeU4lnQGFXYcCoSDSjz76CAMGDIizTHg8Hm7NIBHg+DCXmCjRbUaTM+C04lDm3bXcabGxWKLlJvZzOyNuljGyGomuPDHLkdyPhFsQOkEilty7TGiS2homT57MY69OnTqFO++8E4MHD8aAAQNw7tw5DBw4EElJSejTpw/POo1GowgEArjpppvi9kcuZBLQYpxXLLTKpZWsWyaTRBILXfPNXVPhcDhOHEiujW3buHDhAvr37w/AWRqFxv5hw4bh9ddfR69evWCaJncH0rbUuYGgxJ5+/frxeYTGP7E4sZiws3jxYl5Ti44LuHbohUTSXlyXyCIYY8jOznYEttPfCbFGTXMZbKLbh8zFsZM+BXW3FhIf5MKKPS63550Ft3Yzqqpi0KBBOH78OBhjSE1N5V3pSZgyxjBo0CCHuzAajfLMKeJv/uZv0Lt3b56gQPEN2dnZcVmCgPtAxRjjlis6PhJIootSzCalqs+BQKDF708iWQySjW2xAzSlaLsdm6yDJRGhccetCK2Y/SpF+7WhWNIjR47g5Zdfxpo1axyihlz+48ePR3FxMXr27Ml/dxob6H4OhUK8qLBpmjhx4gSef/55bNiwAUBTEVISbbTQJIEVDAaxZs0apKamOmpoyfte0tm47pgsuogLCgri+k5Fo1FuWRFbIJAVhiZ1APyGo8BUsqqImXLiDSy+VzyWWPeiWLqBbnzxhqVjchN9BH0HN2tcS8TWefH5fEhPT8eAAQMAAKdPn8agQYNgWRYGDRoEj8fD+zr27t07zp36rW99y/FcVVV84xvfaJMkAhqYWlOWQgxQFd8rHr+4H0VRrimwYt8fezziBOgmsMT3xP5f0n1RFAUXL15stuI7IQVWE2IWoLiw0TQNjz76KP7jP/6DL/RofLzrrrswYcIEPP744/irv/orx+9NCzgxflQcD6ZNm4bNmzc7XHwUj2uaJh+7NU2D3+/Hpk2bcN999/G6fOIxy/te0tm4LkuWmAFi2zYmTZqELVu2OAJLk5KSEAqF4jLpxFidWGuV6CaiGCS6qWJNxrHvo9UNPXeL6aKaXTU1NY73FxUVOZ57PB7cf//9XKypqoqBAwdi2LBhN3QDx5ZRiEajXFiRMHULIo39XSQSyY1z5swZ/PVf/7Xr/SSzz5w0ZwkqKyvDI4884ggJofG5qqoKw4cPd92XSOx+V6xYgdmzZzuEnIjf73cEvK9YsQJPPPGEa2ka6R6UdFauy5JFWR0kDjZu3IibbroJL7/8siPbjWKoxOq+ZN2iTuhusUC0egGA9PR0AOD7ueOOO5CVleXY/q677sKoUaPQ0NAAv98P27bRs2dPxw1HqydycdE+RcTnJIbEQG6ywl1rQI7db6xlhuKgaFAR90fuOxEpuiSSG4cEAxXvlbSMWHg5EonA6/Xio48+wg9/+EPU1NQ4YjgVRcH+/fuRk5PjGMsjkUiz/UFpHL148SL69OnDk3YMw3C1dFOYSDgcxrlz59CvXz8+p1A8F3krJJLOynXHZIm1r0i4MMawc+dO1NXVcbHQt29f9OvXD4FAAIZh4IMPPsC9996Lm2++mQsiUbDF7jsWMlc7Dl4Iho+NAaLXr7VfN8R9xRYkvVEo249+L8q4a6lhcWydKzmgSCSth+6zQ4cOIS8vz3UbacmKxzRNfP755/j3f/93LF++3LEAnDBhAmbMmIHs7GxomsZLMVB8m7gYjR2ramtrMW/ePGzcuDGuFY7bexhjWLJkCebMmdMeX1siaRMU27a5yOoqE3isiJJIJJJYqEjuf/7nf6KoqIgX3iXEwPfuGjAda71SFAUvvPACZs2ahUAgwMu8LFy4EKNGjcLQoUOh67prj0LAfUy+dOkSnnzySWzcuNHxd6qnJb6PhNpDDz2E9evXc8+HRNJVuaHehRKJRNIVsG0bvXv3Rn19vYzbiUEUloqi4NVXX8WkSZMANDVlLi0t5dXZW7svwrIsTJ48GWVlZXHxVgC4qBNLy4wcORKbN2/Grbfe2mK1fomkqyBFlkQiSUgoMUb2rXSHBM4nn3yCXr16OYpHv/nmmxgxYgQURUFDQwMCgYCj/U1s+IT4/1AohBUrVmDRokWIRqMOa1ksZLmKRqM8xqu5UhsyXELSFZFLO4lEkrDE1liTNHH+/HlMnTqVC6wJEyZg//79qK+vR35+Pg88T0pK4iJJTB5yE01lZWVISUnBs88+C9M0uUByc/nROXn22Wfx2WefITc3t9k2aGT1kki6GiqVJuhKF3BXO16JRNIxWJaFnj178q4C4oMsMokaj9VcUP+hQ4cwffp03HnnnTh69CiKi4tRW1uLjRs3Ij8/n9efSkpKcryPLINu8Vc7duxARkYGHn74Yd7Wi4QVWaoAOArDTpkyBe+//z5mz54dV3tPRFXVFl+XSDozHnE1kogDjUQi6b5Q8Vw3q0s4HOYusNYUy+1qUEFlkUmTJmHjxo0oKirCn//8Z+Tk5LRaZFInCaDJCvWrX/0K8+bNQ0NDg8NlSMWkxf36/X6YpokJEyagpKQEPXv2BNDUi7U55Lwk6cp45AUskUgSFVVVkZKSEickyBp+4sQJpKWlOQoHJwokXCzLwm9+8xvMnj0bxcXFcRY9qol1LcTuHHv27MGYMWMcxaDJckY1ESluiwpMR6NRvP/++xg4cKBjv7RNa45BIulqyMB3iUSS0DTnavL5fDh37hxSU1MTTmABjfWuqqqq8L//+7/o168fGhoaHF04gKYiya1l8eLFWLBgAQBwgUXdPKj3LHXoYIzBsixkZmZi9uzZGDduHIDGwHj6XNqHLNMgSVRuqEG0RCKRdHZCoRC8Xi80TUMwGER1dbWjZAHQ2Fpr/fr1vDCwSHe08rsVXT537hwbXW5ZAAAHPElEQVTWrVvHxRVBUwdZuGLLNOTn52PmzJkoKChwTT6QHS0k3QFpyZJIJAlJIBDgXROmTJmC6upqx+u2bePEiRMAwDsxdGfEHoCmaeLtt9/GCy+8gA0bNrhuCzQGtZumyd2tVAC2rKwMY8eOhWVZsCxLugIl3RZpyZJIJAmNbduoqqpCVlYWt5aoqsoFAQVzx1pwuptlheLWdu/ejcLCQt4KjLIKbduOa39j2za8Xi/fdteuXXjggQdg2zZ3ITaXwS4tWZLugKyTJZFIEhLGGEzThKqqyMjIiHudBMOJEydkNXgAxcXF8Hg8GDduHCKRCCzL4kKUnhNUigFoDKxfuHAhbNvGAw88wOPbSJypqsqFrETS3ZAji0QiSUgUReFuKnHCBxqFgc/ng67r+M1vftORh9nm2LbNBZJoPTIMAxUVFSgoKICiKJg/fz7fvjmrkpiVmJaWhh07diAajWLWrFkAwAVWbCC7W2C7aOGSVixJoiLdhRKJpFuwYsUKXvjS4/Ggvr6eN0Gur6+PEwJdfeKnrL3Y7L2zZ8/i2WefRWVlJWpqaqDrOq/gTtYrmhaoxphhGAAaxVJ6ejpWr16NrKysDvleEklXQoosiUTSbaDYIp/PxzPebNvG9OnT8eKLL8bV0urqkMCyLAvLli3D/PnzuVWLrHpiRmFslXjR3RcMBrF69Wqkp6fzTEEx5koikcQj3YUSiaRbYBgGJk6cCKDJbRaJRGDbNtauXYtTp0515OG1CceOHcPIkSPh9Xoxb948eDweh6CiEhdiULuIZVmYNGkS6uvrceTIEWRmZsLn8/Hfj/YlWr8kEkkT0pIlkUi6BYwxVFdXIzs7m1tgqGwBWWu2bNmChx9+2FGOoCMLlYpWJsuyoKqqw2pEwzcd57lz53D8+HFs2bLFtfSCCPVvDIfDjr+rqoqcnBzcf//9eOqpp7gY6+7ZlxLJjSBFlkQi6RZQC5l//Md/xMaNG7n1htxdVFBz6dKlmDVrFhdXHdVAmtx6VEVdrEVFx2NZFn7/+99jy5YtOHXqFKqqqvh2zTWIJrxeL4+1IsE5ceJEPP744xgxYgQApztQllyQSK4fKbIkEkm3gDGGaDSKSCSCW265hbd+EYtwer1ehEIhAMBnn32GHj16dGghzXA4zNvP2LbNheLevXuxbNkyVFdXO1rTUB/B1ghDj8fDt3/uuefwzDPPOHo4ulnRRKTIkkiujYzJkkgk3QKxX15tba3D9UaZdYSqqujZsyfy8vJQWVkZ1zKmvfD7/dA0DaWlpRg+fDiSk5Nx8803o7CwEEePHuW1wAC4lmloiSFDhuDw4cNgjOGZZ54BAIeYU1WVW7okEsmNIS1ZEomkW1JWVoZHHnnEEcRNmYcUEC+ydOlS3Hfffejduzf69u0b57YTLT1iRXTGGBcvqqryPom0zblz5wAAH3/8MTRNw9tvv40//vGPOHnyJA4dOsQtVc1ZjmL7MdLxkIuPxKWqqkhLS8OcOXMwZsyYhGyKLZF0NqTIkkgk3ZaKigqMGDECpmlC13VeuNPn88VZryiGSVEU5OTkIDU1FQAwYMAApKeno3///o7tKRj9ww8/xMmTJ3HHHXfg3XffhaZpOHXqFBRFwfHjx3Hw4EHe5gdoFEsej4e7BlVVhaZp16yaTnFlALgbUFVVBINBzJo1C/feey969erVYTFmEkl3RIosiUTSLSHL0rlz5/Dggw+iqqoKQKPLTHQdiohxT0lJSbzdjBjfRJAFi/ZFzZTJYub3+2HbNkzT5HW7YqFtAMTtPxbx86ZNm4bHHnsMeXl5DkEViUR48Ly0ZEkkbY+MyZJIJN0SEj/9+/dHeXk5nn/+eQDglqNYyOXm9/sBNNbdouB5IL5NDFmWfD4fz1wEmmKmTNOEaZpQFAXRaNTxmRRsT5az1sSETZs2DbW1tbBtG6+88goXWBS3ZVkW/w7NiUiJRPL1Ii1ZEolEgkYrz1/+8hc8+eSTKC0t5VmGYs9DsQ8gAEedqdjsu6SkJNTX13PrkmgFozgpsmyJFi8xzktRFO5KJIsWxXdlZGRg0qRJGDVqFILBoKMwaGuQLkOJpO2RIksikUhi+OSTT/Dyyy9j69atOHbsGADwbESPx8NrbJEQchMsoigShVmsoCLxRfuhz6GYLADIyspCQUEBBg8ejNtuuw2DBw+G1+uFoii8fIM4lLvVtYpFiiyJpO2RIksikUi+hOK0qK+haZq4cuUK3nzzTbz22mvYsGGDI9PPLUCeEC1SscLKzWWnaRoGDx6M/Px8DB48GLfffjvuvvtuBAIB7qY0TRNer5e7KTVN49mHYsYi0dLwLkWWRNL2SJElkUgkArFCC2hqtAw0xkmdPHkSb7zxBlRVxY4dO3DixIm4wHXRkjVkyBD06NED0WgUd9xxB1JTU+HxeHDfffchGAwiHA7zz6IhWWztQ8KMjkXTNBiGgUAg0OJ3kSJLIulY/h9RSUENJG9LpAAAAABJRU5ErkJggg==;" parent="1" vertex="1">
          <mxGeometry x="704.5" y="213.12" width="81" height="59.43" as="geometry" />
        </mxCell>
        <mxCell id="x3hafI14n_ICb8MnIb99-25" value="" style="endArrow=classic;html=1;rounded=0;exitX=1;exitY=0.5;exitDx=0;exitDy=0;entryX=0;entryY=0.5;entryDx=0;entryDy=0;" parent="1" source="uQHyKSglJvGrIC3zyUuT-15" target="x3hafI14n_ICb8MnIb99-16" edge="1">
          <mxGeometry width="50" height="50" relative="1" as="geometry">
            <mxPoint x="730" y="410" as="sourcePoint" />
            <mxPoint x="780" y="360" as="targetPoint" />
          </mxGeometry>
        </mxCell>
        <mxCell id="x3hafI14n_ICb8MnIb99-26" value="" style="endArrow=classic;html=1;rounded=0;exitX=1;exitY=0.5;exitDx=0;exitDy=0;entryX=0;entryY=0.5;entryDx=0;entryDy=0;" parent="1" source="uQHyKSglJvGrIC3zyUuT-16" target="x3hafI14n_ICb8MnIb99-7" edge="1">
          <mxGeometry width="50" height="50" relative="1" as="geometry">
            <mxPoint x="730" y="490" as="sourcePoint" />
            <mxPoint x="780" y="440" as="targetPoint" />
          </mxGeometry>
        </mxCell>
        <mxCell id="x3hafI14n_ICb8MnIb99-48" value="" style="shape=image;verticalLabelPosition=bottom;labelBackgroundColor=default;verticalAlign=top;aspect=fixed;imageAspect=0;image=https://cdn1.iconfinder.com/data/icons/delivery-logistics-seo-2/128/search_zom_finds_delivery_logistics_parcel_service-46-1024.png;" parent="1" vertex="1">
          <mxGeometry x="257.75" y="318" width="34.5" height="34.5" as="geometry" />
        </mxCell>
        <mxCell id="x3hafI14n_ICb8MnIb99-49" value="" style="shape=image;verticalLabelPosition=bottom;labelBackgroundColor=default;verticalAlign=top;aspect=fixed;imageAspect=0;image=https://cdn1.iconfinder.com/data/icons/delivery-logistics-seo-2/128/search_zom_finds_delivery_logistics_parcel_service-46-1024.png;" parent="1" vertex="1">
          <mxGeometry x="257.75" y="593" width="34.5" height="34.5" as="geometry" />
        </mxCell>
        <mxCell id="0puzZQSnOkLi-qvpOcqK-1" value="&lt;font style=&quot;vertical-align: inherit;&quot;&gt;&lt;font style=&quot;vertical-align: inherit;&quot;&gt;&lt;font style=&quot;vertical-align: inherit;&quot;&gt;&lt;font style=&quot;vertical-align: inherit;&quot;&gt;Производитель&lt;/font&gt;&lt;/font&gt;&lt;/font&gt;&lt;/font&gt;" style="rounded=1;whiteSpace=wrap;html=1;" vertex="1" parent="1">
          <mxGeometry x="220" y="203.25" width="110" height="30" as="geometry" />
        </mxCell>
        <mxCell id="0puzZQSnOkLi-qvpOcqK-2" value="&lt;font style=&quot;vertical-align: inherit;&quot;&gt;&lt;font style=&quot;vertical-align: inherit;&quot;&gt;&lt;font style=&quot;vertical-align: inherit;&quot;&gt;&lt;font style=&quot;vertical-align: inherit;&quot;&gt;Производитель&lt;/font&gt;&lt;/font&gt;&lt;/font&gt;&lt;/font&gt;" style="rounded=1;whiteSpace=wrap;html=1;" vertex="1" parent="1">
          <mxGeometry x="220" y="472.5" width="110" height="30" as="geometry" />
        </mxCell>
        <mxCell id="0puzZQSnOkLi-qvpOcqK-3" value="&lt;font style=&quot;vertical-align: inherit;&quot;&gt;&lt;font style=&quot;vertical-align: inherit;&quot;&gt;&lt;font style=&quot;vertical-align: inherit;&quot;&gt;&lt;font style=&quot;vertical-align: inherit;&quot;&gt;Владелец&lt;/font&gt;&lt;/font&gt;&lt;/font&gt;&lt;/font&gt;" style="rounded=1;whiteSpace=wrap;html=1;" vertex="1" parent="1">
          <mxGeometry x="220" y="510" width="110" height="30" as="geometry" />
        </mxCell>
      </root>
    </mxGraphModel>
  </diagram>
</mxfile>
